<?xml version="1.0" standalone="no"?>
<!DOCTYPE svg PUBLIC "-//W3C//DTD SVG 20010904//EN"
 "http://www.w3.org/TR/2001/REC-SVG-20010904/DTD/svg10.dtd">
<svg version="1.0" xmlns="http://www.w3.org/2000/svg"
 width="261.000000pt" height="261.000000pt" viewBox="0 0 261.000000 261.000000"
 preserveAspectRatio="xMidYMid meet">
<metadata>
Created by potrace 1.14, written by Peter Selinger 2001-2017
</metadata>
<g transform="translate(0.000000,261.000000) scale(0.100000,-0.100000)"
fill="#000000" stroke="none">
<path d="M1281 2518 c-6 -46 -16 -113 -22 -150 l-11 -68 -33 0 c-87 0 -242
-44 -361 -103 -300 -147 -516 -453 -550 -781 -4 -33 -7 -62 -8 -63 -2 -2 -68
-13 -149 -25 -81 -12 -147 -25 -147 -30 0 -4 6 -8 13 -8 21 -1 279 -39 282
-42 2 -2 6 -30 9 -63 24 -214 138 -449 289 -596 164 -161 373 -260 600 -285
31 -4 57 -8 57 -10 0 -2 7 -50 16 -107 8 -56 18 -120 21 -142 9 -67 18 -63 27
10 4 28 9 57 11 65 2 8 6 40 10 70 3 30 7 64 10 75 2 11 4 23 4 26 1 4 33 10
72 13 261 26 536 188 694 410 95 134 168 321 181 467 4 38 10 69 13 69 5 0 73
11 161 25 14 2 48 7 75 11 78 10 77 19 -4 29 -30 4 -61 8 -70 10 -34 6 -98 16
-130 20 -18 2 -34 5 -36 7 -1 2 -5 30 -8 63 -4 33 -9 70 -12 83 -3 12 -7 30
-9 40 -14 59 -22 85 -52 154 -137 327 -461 569 -809 604 -33 4 -61 7 -62 8 -1
1 -5 17 -8 36 -3 19 -8 49 -11 65 -3 17 -7 41 -8 55 -13 107 -19 140 -26 140
-4 0 -13 -37 -19 -82z m17 -618 c-1 -320 -3 -578 -7 -575 -3 3 -37 35 -74 72
l-68 68 6 65 c3 36 10 92 15 125 27 173 44 287 55 380 4 28 8 61 11 75 2 14
11 72 20 130 8 58 17 116 19 129 2 13 7 44 11 68 3 23 7 43 9 43 1 0 3 -261 3
-580z m-58 335 c0 -1 -11 -76 -24 -166 -13 -90 -27 -184 -30 -209 -3 -25 -8
-58 -11 -75 -6 -41 -15 -103 -21 -145 -3 -18 -6 -36 -8 -37 -2 -2 -91 54 -197
125 -107 71 -197 128 -201 125 -4 -2 52 -92 123 -199 72 -108 129 -197 127
-199 -3 -3 -103 -19 -253 -40 -83 -11 -324 -46 -353 -51 -31 -5 -32 -4 -28 23
3 15 8 51 12 78 21 154 114 340 234 472 132 144 352 263 535 289 22 4 41 7 43
9 3 3 52 3 52 0z m235 -10 c169 -29 362 -133 491 -262 144 -145 247 -357 269
-554 l6 -50 -43 6 c-24 3 -54 8 -68 10 -14 2 -45 7 -70 10 -25 3 -56 8 -70 10
-14 2 -43 7 -65 10 -22 3 -67 10 -100 15 -33 5 -82 12 -110 15 -65 8 -109 15
-113 20 -2 2 56 92 128 200 72 108 130 199 127 201 -2 3 -93 -54 -202 -126
-108 -72 -199 -130 -200 -128 -2 2 -20 116 -40 253 -20 138 -39 264 -41 280
-3 17 -7 47 -9 68 l-4 39 42 -6 c23 -4 56 -8 72 -11z m153 -588 l-153 -153 -9
39 c-6 24 -6 45 0 53 8 13 302 214 312 214 2 0 -65 -69 -150 -153z m-653 -22
c79 -79 141 -146 137 -148 -4 -2 -27 -3 -51 -3 l-44 1 -61 90 c-98 145 -137
205 -131 205 3 0 70 -65 150 -145z m598 -175 c32 -5 84 -12 115 -16 31 -3 66
-8 77 -10 11 -2 40 -7 65 -10 25 -3 52 -7 60 -9 8 -2 39 -7 69 -10 30 -4 62
-8 71 -10 9 -2 41 -6 70 -10 29 -4 62 -9 74 -11 12 -2 41 -6 66 -9 25 -3 56
-8 70 -11 14 -2 34 -6 46 -8 12 -2 45 -7 75 -11 30 -4 55 -8 57 -10 2 -2 -260
-3 -583 -3 l-586 1 28 30 c115 123 119 125 226 107z m-293 -146 c0 -2 -33 -35
-72 -74 l-73 -71 -68 6 c-37 4 -78 8 -90 11 -12 2 -40 6 -62 9 -22 4 -49 8
-60 10 -11 1 -45 6 -75 10 -30 3 -77 10 -105 15 -27 5 -68 12 -90 15 -62 8
-177 24 -205 29 -24 4 -93 14 -155 22 -61 8 -99 15 -103 18 -2 3 258 4 577 3
320 0 581 -2 581 -3z m148 -134 c21 -22 23 -32 18 -85 -3 -33 -8 -69 -10 -80
-2 -11 -7 -45 -12 -75 -4 -30 -8 -57 -9 -60 -1 -3 -5 -32 -9 -65 -12 -97 -17
-127 -26 -185 -5 -30 -12 -80 -15 -110 -3 -30 -8 -62 -10 -70 -2 -8 -7 -35
-10 -60 -3 -25 -10 -73 -15 -106 -6 -34 -11 -74 -12 -88 -1 -14 -5 -26 -8 -26
-4 0 -7 255 -7 566 l0 565 51 -48 c27 -26 61 -59 74 -73z m-968 66 c14 -3 48
-8 75 -11 28 -3 61 -8 75 -10 14 -2 106 -16 205 -30 99 -15 181 -28 183 -30 2
-1 -55 -90 -127 -198 -71 -107 -127 -198 -124 -200 3 -3 93 53 200 124 107 72
196 129 198 127 2 -2 6 -19 9 -38 10 -71 47 -326 52 -360 2 -19 6 -46 9 -60 3
-14 7 -43 10 -65 2 -22 7 -57 10 -77 l6 -37 -48 4 c-76 8 -200 43 -279 80
-300 138 -507 422 -548 752 l-5 43 37 -5 c20 -2 48 -7 62 -9z m1775 -33 c-44
-378 -333 -710 -698 -802 -83 -21 -177 -33 -177 -22 0 4 4 32 9 62 5 30 12 77
15 104 3 28 8 59 10 70 2 11 7 45 11 75 4 30 9 62 10 70 1 8 6 40 10 70 4 30
9 64 11 75 6 47 16 100 19 103 2 2 92 -56 200 -128 109 -72 200 -129 202 -126
7 7 -56 96 -67 93 -12 -3 -301 283 -295 293 2 4 23 7 46 6 l42 -1 100 -148
c55 -81 102 -145 105 -143 2 3 -39 71 -92 151 -53 80 -96 147 -96 149 0 4 180
32 260 41 25 3 56 7 70 10 34 6 76 13 132 20 25 4 68 10 95 15 88 14 84 16 78
-37z m-1096 -148 c0 -31 -11 -39 -279 -212 -14 -9 40 50 120 130 152 154 158
157 159 82z m168 -927 c-3 -8 -6 -5 -6 6 -1 11 2 17 5 13 3 -3 4 -12 1 -19z"/>
</g>
</svg>
