<?xml version="1.0" encoding="utf-8"?>
<!-- Generator: Adobe Illustrator 23.0.1, SVG Export Plug-In . SVG Version: 6.00 Build 0)  -->
<svg version="1.1" xmlns="http://www.w3.org/2000/svg" xmlns:xlink="http://www.w3.org/1999/xlink" x="0px" y="0px" width="250px"
	 height="100px" viewBox="0 0 250 100" style="enable-background:new 0 0 250 100;" xml:space="preserve">
<style type="text/css">
	.st0{opacity:0.6;fill-rule:evenodd;clip-rule:evenodd;}
</style>
<g id="Слой_3">
	<path class="st0" d="M250,81.3c0-1.1,0-2.2,0-3.4c0-1.4,0-2.8,0-4.3c0-2.8,0-5.6-0.1-8.4c0.1-0.7,0.1-2,0.2-3.3
		c-0.1-3.7-0.1-6.3-0.5-7.3c0,4.4,0.1,7.9,0.1,15c-0.1,1.5-0.2,2.6-0.5,2.9c-0.2-5.7,0.1-11.8,0-17.2c0-0.8-0.1-1.1-0.1-1.8
		c0-4.5,0.1-6.8,0.1-9.9c0.1-5.9,0-12.3,0.1-18.3c0-1.2,0.2-4.6,0.1-6.2c0.1,0.4,0.2,1,0.2,0.3c0-0.1,0.1-0.6,0.1-1.2
		c0-0.8,0-1.5,0-2.2c0-0.4,0-0.7,0-1c0-0.3,0-0.7-0.1-0.9c-0.9,0-1.8-0.1-2.7-0.1c-0.9-0.1-1.8-0.1-2.7-0.2l-0.7-0.2
		c-0.2,0-0.3-0.1-0.5-0.2c-0.3-0.1-0.6-0.2-0.9-0.4l-0.9-0.4c-0.3-0.2-0.5-0.3-0.8-0.5c-1.1-0.7-2-1.5-2.8-2.5
		c-0.8-0.9-1.4-2-1.9-3.1c-0.1-0.3-0.2-0.6-0.3-0.9l-0.1-0.4c0-0.1-0.1-0.3-0.1-0.4c-0.1-0.3-0.1-0.6-0.1-0.9
		c-0.1-0.6-0.1-1.3-0.2-1.9c0-0.6-0.1-1.3-0.1-1.9c-0.1,0-0.2-0.1-0.3-0.1L234,0l-0.8,0c-0.6,0-1.1,0-1.7,0c-1.1,0-2.2,0-3.4,0
		c-1.5,0-3,0-4.6,0.1c-3,0-6.1,0-9.5,0c-0.7,0.1-1.6,0.1-2.7,0.1c-5.7,0-14.3-0.3-17.8,0.3c4.2,0.1,9.4,0.1,14.4,0.1
		c3.9,0,8,0,12.2,0c2.1,0,4.1,0,6.2,0c1.3,0,2.5,0,3.8,0c0.7,0,1.5,0,2.2,0l1.1,0l0.5,0c0.1,0,0.2,0,0.3,0l0.2,0.1
		c0,0.6,0.1,1.2,0.1,1.7c0.1,0.6,0.1,1.2,0.2,1.7c0,0.4,0.1,0.8,0.2,1.1c0,0.2,0.1,0.4,0.1,0.5l0.1,0.3c0.1,0.4,0.3,0.7,0.5,1.1
		c0.2,0.4,0.4,0.7,0.6,1.1c0.2,0.3,0.5,0.7,0.7,1c1,1.3,2.5,2.7,4.2,3.6c0.9,0.4,1.8,0.8,2.8,1c0.8,0.2,1.8,0.3,2.7,0.3
		c0.9,0.1,1.8,0.1,2.6,0.1c0.1,0,0.2,0,0.3,0c0,0.1,0.1,0.2,0.1,0.2c0,0.1,0,0.2,0,0.3c0,0.2,0,0.3,0,0.5c0,0.3,0,0.5,0,0.8
		c0,0.5,0,1.3,0,2.9c0,0,0,0,0,0c-0.1,3.3-0.2,9.3-0.1,11.5c-0.1,3.3-0.2,9.1-0.2,13.1c-0.3,8-0.1,14-0.2,23.7
		c-0.2,0.5-0.2,1.7-0.2,3.3c-0.2-0.1-0.3,1.1-0.4,2.9c0.1,1,0.2-0.6,0.2,0.4c-0.1,1-0.1,2-0.3,2.2c0-1,0-2.1,0-2.6
		c-0.2,0.3-0.2,2.6-0.4,2.6c-0.1-7.3-0.5-13.7-0.4-20.8c0.1-0.9,0.3-1.4,0.4-2.6c-0.2-0.8-0.3,1.9-0.4,2.2c-0.1-2.1-0.1-5.4-0.3-7.3
		c0.1-0.4,0.2-0.3,0.2-1.5c0.1-6.8-0.1-11.4-0.2-16.8c0-2.2,0-4.4,0-6.5c0-1.1,0-2.2,0-3.3c0-0.6,0-1.1,0-1.7l0-0.8l0-0.4l0-0.2
		l-0.2,0c-0.5,0-1,0-1.5-0.1c-0.5-0.1-1-0.1-1.5-0.2c-0.5-0.1-1-0.2-1.5-0.4c-0.5-0.2-0.9-0.3-1.4-0.5c-1.8-0.8-3.6-1.9-5-3.4
		c-0.4-0.5,0.2,0-0.6-0.9c-0.9-1-1.6-2.3-2.1-3.7c-0.1-0.3-0.3-0.7-0.3-1.1c-0.1-0.4-0.2-0.8-0.3-1.2c-0.1-0.4-0.1-0.8-0.2-1.2
		c0-0.4,0-0.8-0.1-1.2l0-0.1c0,0,0-0.1,0-0.1l-0.1,0l-0.3,0c-0.2,0-0.4,0-0.6,0c-0.4,0-0.8,0-1.2,0c-0.8,0-1.6-0.1-2.3-0.1
		c-1.3-0.1-2.4-0.2-3.2-0.3c-2.4,0-3.1-0.1-4.7-0.1c-0.7,0-1.4,0.1-2.3,0.1c-0.8-0.1-3.5,0-5.4-0.1c-2.1,0-3.8-0.2-5.9-0.3
		c0.3-0.2,0.4-0.5,0.1-0.5c-4.2,0-8.8-0.1-11.3-0.2c-6.4-0.1-14.2-0.5-21-0.3c-5.3-0.2-9.3,0.1-14.7,0c-0.7,0.1-2.1,0.1-1.6,0.2
		c13.7,0.2,28.3,0.1,39.2,0.5c1.4,0,2.7,0.2,3.8,0.3c-0.8,0-1.5,0.1-2.3,0.1c-2.2,0.1-5.6,0.1-7,0.4c0.7,0.1,1.4,0.1,1.9,0.2
		c2.5-0.1,5.4-0.4,8.9-0.4c2.2,0,3.6,0.2,5.8,0.1v0.1c5-0.1,8.9,0.1,12.6,0.2c1.8,0.1,3.6,0.2,5.5,0.3c0.9,0,1.9,0.1,2.8,0.1
		c0.5,0,1,0,1.5,0c0.2,0,0.5,0,0.7,0l0.4,0c0.1,0,0.1,0,0.2,0l0,0.2c0,1.5,0.3,3,0.9,4.7c0.5,1.4,1.1,2.6,1.9,3.7
		c0.4,0.6,0.8,1.1,1.2,1.6c0.5,0.4,0.9,0.9,1.3,1.3c-1.7-1.3-2.6-2.3-3.4-3.3c-0.8-1.1-1.5-2.2-2.1-4.1c-0.1-0.3-0.2-0.5-0.3-0.8
		c-0.1-0.2-0.1-0.5-0.2-0.7c-0.1-0.5-0.2-1-0.2-1.5c0-0.1,0-0.1,0-0.2l-0.2,0l-0.4,0l-0.7,0c-0.5,0-0.9,0-1.4,0c-1.2,0-2.3,0-3.5,0
		c-2.5,0-5.2,0-7.8,0c-5.3,0-10.6-0.1-15.4,0C193.3,3.7,186.1,4,177.9,4c-1.2-0.2-5-0.2-7.8-0.2c-0.8,0-0.1,0.2-1.6,0.1
		c-5.8,0-6.3-0.6-10.5-0.7c-0.8,0-2.1,0-3.1,0c-1.5,0-4.3-0.1-5.4-0.1c-4.2,0-8.2,0.3-12.8,0.3c-6.6,0-14.1,0-21.3-0.1
		c-5.9-0.2-14.9,0-22.5-0.2c-5.9,0.2-15.4-0.1-21,0.3c-1,0-0.3-0.1-1.6-0.1c-3.3,0.2-7.1,0.1-9.3,0.4c-0.9,0-1.5,0-1.9,0
		C48.9,4.2,38.1,4.7,24.7,4.6c-1.7-0.2-3.3-0.3-4.9-0.4c-0.5,0-0.7-0.1-1-0.1c-0.3,0-0.6-0.1-1-0.1c-0.3,0-0.7-0.1-1-0.1l-0.5-0.1
		c-0.2,0-0.4-0.1-0.4,0.1c-0.1,0.3-0.1,0.6-0.2,0.9c-0.1,0.4-0.2,0.7-0.3,1.1L15,6.4L14.8,7c-0.2,0.4-0.4,0.8-0.7,1.2
		c-0.3,0.4-0.5,0.8-0.8,1.2c-0.3,0.4-0.6,0.8-0.9,1.2c-0.7,0.7-1.5,1.5-2.5,2.3c-1,0.7-2.2,1.4-3.6,2c-0.5,0.3-1,0.5-1.5,0.7
		c-0.5,0.2-1,0.3-1.6,0.5c-0.5,0.1-1.1,0.2-1.6,0.3c-0.5,0.1-1,0.1-1.4,0.2l-0.2,0c-0.1,0,0,0.1,0,0.1l0,0.4c0,0.2,0,0.5,0.1,0.7
		c0,0.4,0.1,0.9,0.1,1.3c0.1,0.8,0.2,1.5,0.3,2.2c0.2,1.4,0.3,2.7,0.5,3.8c0.1,2.4,0.3,3.4,0.5,4c0.2,5.7,0.4,10.3,0.4,16.1
		C2.1,56.8,1,63.8,1.1,75.1C1,75.6,1,75.8,1,76.5c0.2,0.7-0.2,4.5,0.2,5.1c0.3-1.9,0.4-6.1,0.4-9.5C1.8,71,1.7,69,1.7,67.1
		c0.1-2.4,0.4-4.5,0.4-6.6c0-0.6,0-1.2,0-1.5c0.1-1.6,0.2-3,0.2-5.1c0-4.8,0-6.3-0.1-10.6c-0.2-8.7-0.3-17.5-1.1-20.4
		c0-0.8,0-1.4-0.1-2c0-0.5-0.1-0.9-0.2-1.3c-0.1-0.4-0.2-0.9-0.2-1.3c0-0.2-0.1-0.5-0.1-0.7c0-0.1,0-0.3,0-0.4l0-0.2
		c0,0,0.1,0,0.2,0c0.2,0,0.3,0,0.5-0.1c0.9,0,1.5-0.2,2-0.3c0.5-0.1,0.9-0.2,1.2-0.3c0.7-0.3,1.5-0.5,3.2-1.3
		C8.9,14.4,10,13.7,11,13c1-0.8,2-1.6,2.8-2.6c0.8-1,1.5-2.1,2.1-3.3l0.2-0.4l0.1-0.3c0.1-0.2,0.1-0.4,0.2-0.5
		c0.2-0.3,0.2-0.7,0.3-1c0,0,0-0.1,0-0.1l0.1,0l0.3,0c0.2,0,0.4,0.1,0.6,0.1C18.1,5,18.5,5,18.8,5.1l0.3,0c0.1,0,0.1,0,0.4,0
		c0.3,0,0.7,0,1.1,0.1c0.7,0,1.5,0.1,2.2,0.1c2.4,0,4.8,0,6.2,0.1c-1.9,0.1-4.1,0.2-6.5,0.2c-1.1,0-2.2,0-3.4,0c-0.2,0-0.5,0-0.7,0
		l-0.4,0l-0.2,0l-0.1,0c0,0,0,0.1,0,0.1c0,0.3,0,0.6-0.1,1l-0.3,1c-0.2,0.5-0.4,1-0.6,1.6c-0.9,2-2.3,3.9-4,5.5
		C11,16.4,9,17.6,6.8,18.4c-0.5,0.2-1.1,0.4-1.6,0.5c-0.3,0.1-0.6,0.1-0.9,0.2c-0.3,0.1-0.6,0.1-0.9,0.1c0,0-0.1,0-0.1,0l0,0.1
		l0,0.2l0,0.3c0,0.2,0,0.4,0.1,0.6c0.1,1.1,0.1,2.1,0.1,3c0.1-0.6,0.1-1.3,0.1-2.1c0-1,0-0.9,0-1.2c0-0.1,0-0.3,0-0.4l0-0.2
		c0-0.1-0.1-0.2,0.1-0.2c0.3,0,0.5,0,0.8-0.1c0.1,0,0.1,0,0.2,0c0.1,0,0,0,0.2,0l0.4-0.1c0.5-0.1,1.1-0.3,1.6-0.5
		c2.1-0.8,4.1-1.9,5.8-3.5c1.7-1.5,3.2-3.4,4.2-5.5c0.3-0.5,0.5-1.1,0.7-1.6c0.1-0.3,0.2-0.6,0.3-0.8L17.9,7C17.9,6.7,18,6.4,18,6.1
		c0,0,0,0,0-0.1l0.1,0l0.1,0l0.3,0c0.2,0,0.4,0,0.6,0c1.4,0,2.8,0,4.2-0.1c1.6,0,3.1-0.1,4.7-0.1c3.2-0.1,6.4-0.2,10-0.1
		c4.1,0,7.3,0.2,12,0.1c0.2,0.1,1.2,0,0.8,0.1C56.1,6,60.8,6.6,65.8,6.3c-0.2,0.1-1.2,0.1-0.4,0.1c3.4,0.1,6.9,0.2,10.1,0
		c7.2,0.1,16,0.4,23.3,0.1c2.6,0.1,5.5,0,8.1,0.1c12.6,0.3,25.7-0.1,38-0.5c0.9,0,1.8,0,2.7,0c3.8-0.1,7.4-0.3,11.6-0.4
		c8.7-0.2,18.9,0,27.9,0.1c0,0.1-0.1,0.1,0.8,0.1c8.8,0.2,17.1,0.6,26.4,0.6c2.3,0,4.4-0.1,6.6,0c1.2-0.1,2.5-0.1,3.9-0.1
		c0.7,0,1.4,0,2.1-0.1l0.5,0l0.2,0l0.3,0c0.1,0,0.2,0,0.3,0l0.2,0c0,0,0.2,0,0.1,0.1c0,0.1,0,0.3,0,0.4c0,0.1,0,0.2,0,0.2l0.2,0.6
		c0.5,1.6,1.2,3.1,2.2,4.4c1.9,2.7,4.5,4.5,6.5,5.5c0.7,0.4,1.4,0.7,2.1,1c0.7,0.2,1.4,0.5,2.2,0.7c0.2,0.1,0.3,0.1,0.3,0.1l0.1,0
		l0.3,0c0.2,0,0.4,0,0.6,0c0.1,0,0.1,0.1,0.1,0.1l0,0.2c0,15.7,0.1,36.3,0.1,52.4c0.1,1.5,0.1,2.7,0.2,4.4c0,0.3,0,0.7,0,1.1
		c0,0.2,0,0.3,0,0.5c0,0.2,0,0.3,0,0.5l0,0.3l0,0.1c0,0,0,0.1,0,0.1l-0.1,0c-0.2,0-0.4,0-0.7,0.1l-0.3,0.1l-0.4,0.1
		c-1.5,0.4-2.8,0.9-4.1,1.6c-2.5,1.4-4.4,3.3-5.6,4.9c-0.5,0.5-0.8,1.1-1.3,1.7c-0.4,0.7-0.8,1.4-1.1,2.3c-0.2,0.4-0.3,0.8-0.4,1.3
		l-0.1,0.4c0,0.1,0,0.1-0.1,0.2c-0.1,0.3-0.1,0.6-0.1,0.9c0,0.1-0.1,0.1-0.2,0.1l-0.3,0c-0.2,0-0.4,0-0.6,0c-0.2,0-0.3,0-0.5,0
		l-0.1,0l-0.3,0l-0.6,0c-0.8,0-1.6-0.1-2.3-0.1c-1.5,0-2.9-0.1-4.1,0c-7.6-0.1-15.6,0.1-24.1-0.1c-3.4-0.1-6.9-0.3-10.5-0.4
		c-4.8,0.1-9.4,0-14.4,0.1c-0.1,0,0.1,0.1-0.4,0.1c-2.9-0.1-7.5,0.2-11.3,0.1c-6.1,0.3-11.4,0.7-21.3,0.6
		c-3.9,0.4-12.4,0.3-17.9,0.4c-4.1-0.1-11-0.1-14-0.4c-2.7,0-5.1-0.1-8.5-0.1c-1,0-1.4-0.1-2.7-0.1c-0.5,0.1-1.3,0.1-2.3,0.1
		c-5.7-0.3-14.9-0.2-21.7-0.1c-0.8-0.1-2.6,0-3.5-0.1c-11.5,0.2-24,0.6-35.7,0.2c-1.9-0.5-5.2-0.7-5.8-1.2c-1-0.1-2.7-0.1-3.1-0.2
		c0.2-0.1-0.6-0.1-0.8-0.2c-0.5,0-1-0.1-1.6-0.1c-0.3,0-0.6,0-0.9,0c-0.2,0-0.3,0-0.5,0l-0.1,0l0,0l0,0c0-0.1,0-0.1,0-0.1
		c0,0,0,0,0,0c-0.1-0.2-0.1-0.5-0.2-0.7c-0.1-0.3-0.2-0.6-0.4-0.9c-0.2-0.6-0.5-1.1-0.8-1.6c-0.7-1-1.6-2-2.1-2.3
		c-0.5-0.3-0.4-0.1,0.3,1.6c-0.2,0-0.3,0.3-0.3,0.6c-0.1,0.3-0.1,0.7-0.3,0.8c-0.2,0.1-0.4-0.2-1.1-0.9c-0.2-0.2-0.3-0.4-0.5-0.7
		c-0.2-0.2-0.5-0.5-0.7-0.8c-0.6-0.6-1.3-1.3-2.3-2.1c-1.5-0.8-3.1-1.3-2.7-0.5c1,0.7,1.6,1.3,2.2,2.1c0.6,0.8,1.3,1.7,2.2,3.1
		c-0.4-0.5-0.1,0-0.2,0.1c0.8,1.3,1.7,3.4,1.5,3.6c-0.5-1.8-1.1-2.7-1.7-3.5c-0.1-0.2-0.3-0.4-0.4-0.6c-0.2-0.2-0.3-0.3-0.5-0.5
		c-0.3-0.4-0.8-0.8-1.3-1.3c-1.3-0.9-1.9-1-2.3-1c-0.4,0-0.8,0-1.8-0.3c-0.4-0.2-0.6-0.3-0.8-0.4c-0.2-0.1-0.5-0.2-1-0.3
		c-0.3,0-0.2,0.2-0.2,0.2c0,0.1-0.1,0.1-0.9,0c0.5,0.3,1.3,0.4,2.3,0.9c0.2,0.2,0.5,0.4,0.8,0.7c0.4,0.3,0.8,0.6,1.2,1
		c0.9,0.8,1.8,1.9,2.3,3c0.3,0.4,0.5,0.9,0.7,1.3c0.2,0.5,0.4,0.9,0.5,1.4l0.2,0.6c0,0.3,0.1,0.5,0.1,0.8c0,0.6,0.1,1.1,0.1,1.6
		c0.1,1.1,0.1,2.1,0.1,3.2c0.2,0.1,0.6,0.1,0.9,0.1l1,0c0.6,0,1.3,0,1.9,0c1.3,0,2.6,0,3.8,0.1c1.5,0,2.9,0.1,4.3,0.1
		c2.8,0.1,5.6,0.1,8.7,0.1c0.2,0.2,3.4,0.2,5,0.1c0.7,0.1,0.3,0.3,1.6,0.3c1.1-0.1-0.3-0.2-0.4-0.3c1.4-0.1,4.7-0.1,5.8,0
		c2.6-0.2,7.6-0.1,10.9-0.3c1.3,0.2,3.1,0.2,5.8,0.3c0-0.1,0.6-0.2,1.2-0.3c7.4-0.2,11.4,0.2,18.6,0c2,0.1,5,0.1,8.1,0.1
		c7.9,0.4,19.7,0.5,29.5,0.1c2.7,0.4,7.1,0.1,10.5,0.2c5.4,0.1,10.8,0.5,16.3,0.3c0.6,0,0.2-0.1,0.8-0.1c4.1,0,9.4-0.1,14-0.1
		c3.3,0,6.4,0.1,9.7,0.1c3.8-0.1,6.7-0.2,8.9-0.6c3,0,6.3-0.4,9.3-0.2c0.6,0,0.5-0.2,1.6-0.1c0.8,0,0.8,0.1,1.2,0.1
		c0-0.1-0.4-0.1,0-0.2c-2.2,0.1-3.2,0.1-5,0.2c-0.5,0-0.7-0.1-1.6,0c-4.2,0.2-9.1,0.5-14.7,0.6c-5.4,0.1-11,0-14.7,0.2
		c-0.9,0-0.5-0.1-1.2-0.2c-2,0.1-3.8,0-6.2,0c-1.7,0-3.1,0.2-5,0.2c-3.9,0-6.4-0.1-10.9-0.1c-1.9-0.2-6.3-0.1-6.6-0.3
		c0.9-0.1,2.8,0.2,3.9,0c-0.8,0-1.7-0.1-1.9-0.1c4-0.3,5.5-0.7,10.5-0.9c4.2,0,7.2-0.1,9.7-0.2c13.5,0.2,32.4,0.1,45.8-0.2
		c3.3,0.1,6.1,0.1,10.1,0c4.6,0.5,15.8-0.1,20.2,0.1c0.9-0.2,2.6-0.2,4.5-0.2c1.3,0,2.6,0,3.8,0c0.7,0,1.3,0,1.9,0
		c0.3,0,0.6,0,0.9,0c0.1,0,0.3,0,0.4,0c0.1,0,0.2-0.1,0.3-0.1c0.1-0.5,0.1-0.9,0.1-1.3c-0.1-0.3-0.1-0.9,0-1.5
		c0-0.6,0.1-1.4,0.3-2.2c0.1-0.2,0.1-0.5,0.2-0.8l0.3-0.6c0.2-0.4,0.4-0.8,0.6-1.1c0.1,0-0.5,1.2,0.1,0.1c0.3-0.5,0.3-0.5,0.4-0.8
		c0.3-0.4,0.9-0.9,1.1-1.1c0.4-0.4,0.6-0.6,0.8-0.9c0.2-0.2,0.5-0.5,0.9-0.8c-0.2,0.2-0.3,0.5-0.8,0.9c-0.5,0.6-0.9,0.9-1.1,1.2
		c-0.3,0.3-0.5,0.5-0.7,0.8c0.1,0,0.4-0.4,0,0.3c-0.2,0.1-0.4,0.5-0.6,1c-0.2,0.5-0.4,1-0.6,1.3c0.2-0.5,0.3-0.9,0.3-1.1
		c-0.1,0.3-0.2,0.6-0.3,0.9c-0.1,0.3-0.1,0.5-0.3,1.2c-0.1,0.6-0.1,1.2-0.2,1.8c0,0.6-0.1,1.2-0.1,1.7c0-0.6,0.1-1.5,0.1-0.6
		c0.1-0.7,0.1-1.5,0.2-2.2c0-0.4,0.1-0.7,0.2-1l0.2-0.6c0.2-0.6,0.5-1.3,0.9-1.9c0.7-1.2,1.6-2.2,2.7-3.1c1.1-0.9,2.3-1.5,3.5-2
		c0.3-0.1,0.6-0.2,1-0.3l0.7-0.2c0.4-0.1,0.7-0.1,1.1-0.1l2.3-0.2l2.2-0.1c0.1-0.2,0.1-0.5,0.1-0.8l0-0.8L250,81.3z M63.8,6.2
		c-1.1,0-0.8,0.1-1.6,0C62,6.1,64.2,6.1,63.8,6.2z M154.3,5.4c-2-0.1-4.5,0.1-6.2,0.2c-5.8,0.1-10.2,0.2-15.9,0.3
		c-1.2,0-2-0.1-3.1-0.2c-4,0-7.9-0.1-11.6-0.1c-4,0-8.2,0.1-12,0.1c-4.2,0-8.5-0.3-12,0c-4.2-0.1-10-0.3-13.6-0.1
		c-3.5-0.2-9.4-0.1-14-0.3c-8.9,0.1-14.5,0.7-24.4,0.3c3.5-0.2,8.7-0.1,11.3-0.3c3.7,0.1,7.1-0.2,9.7-0.3c2.2,0,5-0.1,7.4-0.1
		c2.9-0.1,4.5-0.2,8.9-0.3c1.8,0,3.5,0,5.4,0c4.1,0,8.7,0.2,12,0.2c0.9,0,1.8-0.1,2.7-0.1c2.1,0,4.6,0.2,7,0.2
		c0.4,0,1.6-0.1,1.9-0.1c1.2,0,2.4,0.1,3.5,0.1C118.7,5,128.8,4.9,138,5c1.9,0,3.6,0.1,5.4,0.1c1.2,0,2.6-0.1,3.9-0.1
		c2.6,0,4.7,0.3,7.4,0.1C154.5,5.2,154,5.3,154.3,5.4z M13.9,88.6C14.1,89,14,89,13.9,88.6c-0.1,0.1,0.2,0.7,0.4,1.1
		c-0.1-0.1-0.7-1.3-0.8-1.3c0.2,0.3,0.3,0.6,0.4,1c0.2,0.4,0.3,0.7,0.4,1.2C13.4,88.6,12.9,87.3,13.9,88.6z M26.2,96.3
		c-1.2,0-3.3-0.2-1.9-0.3c1.5-0.1,5.9,0.1,8.2,0C32.8,96.3,27.4,96.3,26.2,96.3z M43.3,95.4c-0.1-0.1,0.1-0.1,0.4-0.2
		c2.1,0.2,7,0.1,8.5,0.4C48.5,95.6,47.5,95.5,43.3,95.4z M87.5,95c-0.1,0.2-2.2,0.1-3.1,0.1C85.3,95,85.9,95.1,87.5,95z M55.7,96
		c-0.3-0.1,0.8-0.1,0.8-0.1c0.5,0.1,1.7,0.1,1.9,0.2C57.1,96.1,56.9,96,55.7,96z M56.9,95.1c4.4,0.1,9.3,0.3,14.4,0.2
		c4.3,0,8.5-0.3,12-0.2c-3.9,0.2-10,0.2-13.2,0.5c-3.8-0.1-8.4-0.3-11.3-0.1C58.5,95.4,56.7,95.4,56.9,95.1z M59.6,96.1V96
		c1.6,0,4.5-0.1,4.7,0.1C62.3,96.2,61.6,96.1,59.6,96.1z M65,96c1.7,0,1.3,0.2-0.4,0.1C64.9,96.2,65.1,96.1,65,96z M108.1,98.6
		c-3.6,0.5-7.3,0.7-15.1,0.5c-1.7,0-3.4-0.2-5-0.3c-3.1-0.1-6.2,0.1-7.8-0.1c1-0.5,9.3-0.3,12-0.7c1.3,0,1.1,0.1,1.9,0.1
		c2.6,0,3.7,0.1,5.4,0.1c4.1,0.1,12.3-0.2,15.1,0.1C112.3,98.4,110.7,98.7,108.1,98.6z M119.4,97.6c-9.2,0.1-16.1-0.2-23.7,0.2
		c-5.3,0-9.7-0.2-15.9-0.2c-6.4,0-12.8,0-14.7-0.7c0.5,0.1,1.9,0,2.7,0c1.6,0,2.5,0.2,3.9,0.2c2.5,0,3.4-0.2,6.6-0.1
		c1,0,0.6-0.1,1.2-0.2c14.7-0.3,28.1-0.4,45,0C123.7,97.2,118.7,97.1,119.4,97.6z M190,95.4c-16.7-0.1-32.8,0.2-47.7-0.5v-0.1
		c5.2,0,10.2-0.1,15.9-0.1c5.3,0.1,8.1,0.3,14.7,0.3c2,0,3.2-0.1,6.2-0.2c3.3,0,6.6,0.1,8.9-0.1c3.7,0.1,7.4,0.2,10.5,0
		C197.6,94.9,193,95.2,190,95.4z M242.9,19c-0.1,0-0.3,0-0.4-0.1c-0.2,0-0.4-0.1-0.6-0.1c-0.7-0.2-1.3-0.4-1.9-0.6
		c-0.5-0.2-1-0.4-1.4-0.5c-3-1.5-5.5-3.6-7.2-6.2c-0.9-1.3-1.5-2.7-2-4.1L229.3,7l-0.1-0.2l-0.1-0.3c-0.1-0.2-0.1-0.4-0.1-0.6
		c0-0.1-0.1-0.1-0.1-0.1l-0.2,0c-0.3,0-0.6,0-0.9,0c-0.8,0-1.5,0-2.3,0c-1.9,0-3.8,0-5.8,0c-3.9,0-7.9,0-12-0.1
		c-1.8,0-3.2-0.2-5-0.3c-1.6,0-3.6,0-5.4,0c-2.6-0.1-5.2-0.2-7.8-0.3c-1.2,0-2.7,0-3.9,0c-0.8,0-1.2-0.1-1.9-0.1
		c-2.2-0.1-4.8,0-6.6-0.1C170.8,5.1,165,5,157.4,5.1c3.4-0.2,7.1-0.4,8.1-0.8c3.9,0,7.5-0.1,11.3,0c2.7,0,3.7,0.1,8.2,0.1
		c2,0,3.9-0.1,5.8-0.1c5,0,10.2,0.1,15.1,0.1c4.2,0,8.4-0.2,11.6,0c2.3,0,4.8,0,7.3,0c1.1,0,2.3,0,3.4,0c0.4,0,0.8,0,1.2,0l0.6,0
		l0.3,0l0.1,0c0,0,0,0.1,0,0.1c0,0.7,0.1,1.3,0.3,2c0.1,0.2,0.1,0.5,0.2,0.7c0.1,0.3,0.2,0.5,0.3,0.7c0.2,0.5,0.4,1,0.7,1.4
		c0.5,1.2,1.3,2.2,2.1,3.2c0.9,1,1.8,1.9,2.9,2.6c1.1,0.7,2.2,1.3,3.4,1.8c0.6,0.2,1.2,0.4,1.7,0.6c0.7,0.2,0.9,0.2,1.3,0.3
		c0.2,0.1,0.5,0.1,0.8,0.2c0.2,0,0.5,0.1,0.8,0.1c0.2,0,0.1,0.2,0.1,0.3c0,0.1,0,0.3-0.1,0.4c0,0.3-0.1,0.6-0.1,0.9
		c0,0.3-0.1,0.6-0.1,0.9c0,0.1,0,0.4,0,0.7c0,0.3,0,0.5,0,0.8c-0.1,2.1-0.1,4.4-0.1,7c0.1,5.3,0.8,8.3,1,12.4
		c-0.2,2.2,0.1,3.8,0,6.2c0,3.6-0.3,7.6-0.2,12.8c-0.4-0.7-0.7-0.7-1-1.8c-0.1,0.5-0.1,2.2-0.3,2.2c-0.1-5.3-0.1-10.6-0.2-15.7
		c-0.1-7.3,0.1-16.8-0.2-24.1c0-0.3,0-0.6,0.1-1c0-0.2,0-0.3,0-0.5l0-0.3c0-0.1,0.1-0.2-0.1-0.2C243.4,19,243.2,19,242.9,19z
		 M245.9,81.1c-0.8,0.1-1.9,0.2-3.1,0.5c-1.4,0.4-2.8,0.9-4.2,1.8c-2.7,1.6-4.7,4-5.6,5.6c-0.3,0.5-0.5,1-0.7,1.6
		c-0.1,0.3-0.2,0.5-0.3,0.8l-0.2,0.7c-0.3,0.9-0.4,1.8-0.4,2.7c0.1,0.3-0.3,0.1-0.5,0.2c-0.2,0-0.4,0-0.6,0
		c-0.1,0.1,0.5,0.1,1.1,0.1c-0.8,0-1.6,0-2.5,0c-0.4,0-0.8,0-1.3-0.1c-0.5,0-0.9-0.1-1.4-0.1c-1.9-0.1-3.8-0.2-5.7-0.2
		c-0.7,0,0-0.2-0.8-0.2c0.1-0.1,1.2,0,1.2-0.1c2,0.1,3.8,0.1,5.4,0c1.4,0,2.6-0.1,3.8-0.1l0.4,0l0.2,0c0.1,0,0-0.1,0-0.1
		c0.1-0.7,0.2-1.5,0.5-2.5c0.3-1.2,0.9-2.5,1.5-3.6c0.6-1.1,1.4-1.9,1.8-2.2c0.7-0.9,2-2,3.5-2.9c1.5-0.9,3.2-1.5,4.4-1.9
		c0,0.1-0.3,0.2-0.6,0.3c-0.3,0.2-0.7,0.3-1,0.5c-0.3,0.1-0.5,0.3-0.5,0.4c0,0.1,0.2,0,0.8-0.2c0.5-0.2,0.7-0.4,0.9-0.5
		c0.1-0.1,0.2-0.1,0.4-0.2c0.2-0.1,0.3-0.1,0.5-0.2c0.5-0.2,1.1-0.2,1.5-0.2c0.4,0,0.8,0,1.2,0c0.1,0,0.1,0,0.2,0c0,0,0-0.1,0-0.1
		c0-0.1,0-0.1,0-0.2c0-0.1,0.1-0.2,0.1-0.2c0,0.1,0,0.2,0,0.4C246.1,81,246.1,81.2,245.9,81.1z M245.8,79.4c0-0.6,0.1-0.9,0.1-1.5
		c0.1,0.1,0.2,0.7,0.2,1.6C246.1,80.4,245.9,79.9,245.8,79.4z"/>
</g>
<g id="Слой_2">
	<circle class="st0" cx="16" cy="19.3" r="1.5"/>
	<circle class="st0" cx="16" cy="80.9" r="1.5"/>
	<circle class="st0" cx="229.8" cy="19.3" r="1.5"/>
	<circle class="st0" cx="229.8" cy="80.9" r="1.5"/>
</g>
</svg>
