<svg id="Flat" xmlns="http://www.w3.org/2000/svg" viewBox="0 0 25 28">
<style type="text/css">
	.st0{fill:#592800;}
</style>
<path d="M0,16.2c0.2,0.3,0.5,0.5,0.7,0.8c0,0,0,0,0,0c0-0.3-0.2-0.6-0.2-0.9c0.2,0,0.3,0,0.4,0c0.1,0,0.1-0.1,0.2-0.1
	c0.3-0.6,1.2-0.9,1.7-0.5c0.2,0.1,0.4,0.3,0.5,0.6c1.1,1.9,2.2,3.8,3.3,5.7c0.1,0.1,0.1,0.2,0.2,0.3C7,21.9,7,21.7,7,21.6
	c0.7-2.5,1.4-4.9,2.4-7.3c1.1-2.7,2.5-5.2,4.2-7.5C14.8,5.4,16,4,17.3,2.8c1.1-1,2.3-1.7,3.5-2.4c0.3-0.2,0.7-0.3,1-0.4
	c0.1,0,0.1,0,0.3,0c-0.2,0.1-0.4,0.2-0.6,0.4c0,0,0,0,0,0c0.2-0.1,0.4-0.2,0.6-0.3c0,0,0,0,0,0c-0.1,0.1-0.3,0.2-0.4,0.3
	c0,0,0,0,0,0.1c0.3-0.1,0.5-0.2,0.8-0.3c0,0,0,0.1,0,0.1c0.2-0.1,0.5-0.1,0.7-0.2c0,0,0,0.1,0,0.1c-0.3,0.3-0.7,0.5-1,0.8
	c0,0,0,0,0,0.1c0.1,0,0.2,0,0.3-0.1c0.5-0.2,1.1-0.4,1.6-0.6c0.2-0.1,0.5-0.1,0.7,0c0,0,0,0,0,0.1c-0.1,0.1-0.2,0.2-0.3,0.2
	c-0.6,0.3-1.1,0.6-1.7,0.9c-2,1.2-3.8,2.8-5.2,4.7c-1.1,1.4-1.9,2.9-2.7,4.4c-1.2,2.2-2.2,4.4-3,6.7c-0.7,1.9-1.2,3.8-1.8,5.8
	c-0.3,1.1-0.6,2.3-1,3.4c-0.1,0.4-0.4,0.7-0.7,1c-0.8,0.6-1.7,0.8-2.7,0.4c-0.3-0.1-0.4-0.3-0.5-0.6c-0.2-0.7-0.4-1.4-0.8-2
	c-0.7-1.4-1.5-2.7-2.2-4.1c-0.7-1.2-1.3-2.4-1.9-3.6c-0.2-0.3-0.3-0.7-0.4-1.1C0,16.4,0,16.3,0,16.2C0,16.2,0,16.2,0,16.2z"/>
</svg>
