<?xml version="1.0" encoding="utf-8"?>
<!-- Generator: Adobe Illustrator 23.0.1, SVG Export Plug-In . SVG Version: 6.00 Build 0)  -->
<svg version="1.1" id="Flat" xmlns="http://www.w3.org/2000/svg" xmlns:xlink="http://www.w3.org/1999/xlink" x="0px" y="0px"
	 width="256px" height="256px" viewBox="0 0 256 256" style="enable-background:new 0 0 256 256;" xml:space="preserve">
<style type="text/css">
	.st0{fill:#AAAAAA;}
</style>
<path class="st0" d="M128,255c-1.6,0-3.1-0.6-4.2-1.8l-80-80c-2.3-2.3-2.3-6.1,0-8.5c2.3-2.3,6.1-2.3,8.5,0l75.8,75.8l75.8-75.8
	c2.3-2.3,6.1-2.3,8.5,0c2.3,2.3,2.3,6.1,0,8.5l-80,80C131.1,254.4,129.6,255,128,255z"/>
<polygon class="st0" points="187,70.6 187,48.1 137.1,54.7 137.1,54 168.5,12.6 148.6,1.5 128.4,47.8 127.9,47.8 107.3,1.8 
	87.1,13.4 118.3,53.7 118.3,54.4 69.6,48.1 69.6,70.6 118.6,64.3 118.6,64.9 87.1,105.3 105.9,117.2 127.6,70.6 128.2,70.6 
	148,116.8 168.9,105 137.1,65.3 137.1,64.6 "/>
</svg>
