<?xml version="1.0" encoding="utf-8"?>
<!-- Generator: Adobe Illustrator 23.0.1, SVG Export Plug-In . SVG Version: 6.00 Build 0)  -->
<svg version="1.1" xmlns="http://www.w3.org/2000/svg" xmlns:xlink="http://www.w3.org/1999/xlink" x="0px" y="0px" width="80px"
	 height="536.1px" viewBox="0 0 80 536.1" style="enable-background:new 0 0 80 536.1;" xml:space="preserve">
<style type="text/css">
	.st0{fill:#F2EFE6;}
</style>
<g id="Слой_1__x28_копия_x29_">
</g>
<g id="Слой_1">
	<path class="st0" d="M79,524.6c-0.5-0.9-0.6-2.6-0.8-2.8c-0.3-0.9-1.8-2-2.3-3c-2.1-3.8-4.5-7-6-8.7c-0.5-0.5-0.6-1.8-0.7-1.9
		c-1-1.2,0.7-2.1,1.6-4.3c0.8-1.8,0.8-4.9,0.8-4.9l2-12.5c0,0,1.5-0.7,1.5-1.8c0-0.5,0-1.1,0.2-1.8c0-0.3,0-0.6,0.1-0.9
		c0.3-1.9,0.8-4.1,1.1-6.7l0-0.1c0.2-1.3,0.3-2.6,0.3-4c-0.1-2.8-0.3-5.6-0.4-8.3c0-0.3-0.1-0.5,0-0.7c-0.5-6.5-1.3-11.7-1.3-11.7
		l-2.1-8.7l-0.1-0.7l-0.3-1.3l-0.4-7.4l-1.5-3.4l-0.2-8l0-0.7l-0.1-4c0,0,1.2-2.9,0.7-5.3c-0.4-2.3-2.8-7.9-3.7-10.8
		c-0.1-0.3-0.2-0.6-0.2-0.8c-0.8-3.2-4.3-7.7-5.1-10.9c-0.8-2.5,0-3.4,0.4-6.1c0.1-1.3-0.2-2.6-0.8-3.9c-0.1-0.3-0.2-0.6-0.3-0.8
		c-0.6-1.1-1.1-2.2-1.5-3.3c-1.2-3.5-2-14.7-3.8-11.1c-1,2.1-0.2-0.9-0.4-1.3c-0.5-1.5-0.4-3.6-0.8-5.3c-0.1-0.3-0.2-0.6-0.2-0.8
		c-1.2-3,4.4-3.8,3.3-7.1c-0.3-0.9-0.5-7-0.8-7.9c-0.6-1.7-1.3-3.2-2-4.4c-0.1-0.3-0.3-0.6-0.4-0.8c-1.1-1.9-2.1-3.2-2.8-3.7
		c-0.8-0.5,0-3.1,0-3.1l-2-2.6l-0.8-3.6l-0.4-3.3l2.8-4.5c0,0,2.4-13.9,1.2-16.5c-1.1-2.3,6.7-8.3,6.6-8.6c0-0.1-0.1-0.2-0.1-0.2
		c-1.4-3.6,4.2-13.1,3.6-15.4c-0.2-0.9-0.3-2-0.2-3.2l0.1-0.7c0-0.8,0-1.6-0.1-2.2c0.1-0.7,0.1-1.4,0.1-2.2l-0.1-0.7
		c-0.1-1.2,0-2.4,0.2-3.2c0.6-2.3-5-11.8-3.6-15.4c0,0,0.1-0.1,0.1-0.2c0.1-0.2-7.8-6.2-6.6-8.6c1.3-2.6-1.2-16.5-1.2-16.5l-2.8-4.5
		l0.4-3.3l0.8-3.6l2-2.6c0,0-0.8-2.6,0-3.1c0.6-0.4,1.6-1.8,2.8-3.7c0.2-0.2,0.3-0.5,0.4-0.8c0.6-1.3,1.3-2.8,2-4.4
		c0.3-0.9,0.5-7,0.8-7.9c1.1-3.3-4.5-4.1-3.3-7.1c0.1-0.2,0.1-0.4,0.2-0.8c0.3-1.7,0.3-3.8,0.8-5.3c0.2-0.5-0.6-3.5,0.4-1.3
		c1.7,3.6,2.6-7.6,3.8-11.1c0.4-1.1,0.9-2.3,1.5-3.3c0.2-0.2,0.2-0.5,0.3-0.8c0.5-1.2,0.9-2.6,0.8-3.9c-0.4-2.7-1.2-3.5-0.4-6.1
		c0.8-3.2,4.3-7.7,5.1-10.9c0.1-0.2,0.1-0.4,0.2-0.8c0.9-2.9,3.3-8.4,3.7-10.8c0.5-2.4-0.7-5.3-0.7-5.3l0.1-4l0-0.7l0.2-8l1.5-3.4
		l0.4-7.4l0.3-1.3l0.1-0.7l2.1-8.7c0,0,0.8-5.2,1.3-11.7c0-0.2,0-0.4,0-0.7c0.1-2.7,0.3-5.5,0.4-8.3c0-1.4-0.1-2.7-0.3-4l0-0.1
		c-0.3-2.6-0.8-4.8-1.1-6.7c-0.1-0.3-0.1-0.6-0.1-0.9c-0.2-0.7-0.2-1.3-0.2-1.8c0-1.1-1.5-1.8-1.5-1.8l-2-12.5c0,0,0-3.2-0.8-4.9
		c-0.9-2.2-2.5-3-1.6-4.3c0.1-0.1,0.2-1.4,0.7-1.9c1.5-1.8,3.9-5,6-8.7c0.5-0.9,2-2.1,2.3-3c0.2-0.2,0.3-1.9,0.8-2.8
		c0.4-0.7,1-0.6,1-0.6l0-2l-3.1-3.5c0,0-0.1-0.2-1.2-0.5c-2.7-0.8-3.8-1.6-5.1-2.6C70.2,2,70,1.1,69.8,1c-0.7-0.4-1.3-1-1.3-1H0
		v264.4v7.3v264.4h68.5c0,0,0.6-0.7,1.3-1c0.2-0.1,0.4-0.9,0.7-1.1c1.3-1,2.4-1.8,5.1-2.6c1.1-0.4,1.2-0.5,1.2-0.5l3.1-3.5l0-2
		C80,525.2,79.4,525.3,79,524.6z"/>
</g>
</svg>
