<?xml version="1.0" encoding="utf-8"?>
<!-- Generator: Adobe Illustrator 23.0.1, SVG Export Plug-In . SVG Version: 6.00 Build 0)  -->
<svg version="1.1" id="Слой_1" xmlns="http://www.w3.org/2000/svg" xmlns:xlink="http://www.w3.org/1999/xlink" x="0px" y="0px"
	 width="80px" height="271.5px" viewBox="0 0 80 271.5" style="enable-background:new 0 0 80 271.5;" xml:space="preserve">
<style type="text/css">
	.st0{fill:#F2EFE6;}
	.st1{opacity:0.2;fill:#AD886C;enable-background:new    ;}
</style>
<path class="st0" d="M0,0v271.5c0,0,64.1,0,80,0V0H0z M22.1,239.7H11.5v-10.6h10.6V239.7z M22.1,186.6H11.5V176h10.6V186.6z
	 M22.1,133.5H11.5v-10.6h10.6V133.5z M22.1,80.4H11.5V69.8h10.6V80.4z"/>
<path class="st1" d="M20.6,32.4c-0.5-0.9-0.9-1.6-1.4-2.3c-0.6-0.8-1.1-1.7-1.9-2.2c-1.2-0.7-2.7-1.1-4.1-1.7
	c0.3-0.5,0.5-0.8,0.6-1.2c0.1-0.2-0.1-0.5-0.2-0.8c-0.2,0.2-0.4,0.3-0.6,0.5c-0.4,0.5-0.8,1-1.2,1.4c-0.5-0.5-1-1-1.6-1.3
	s-1.3-0.5-1.9-0.4c-0.5,0.1-1.2,0.9-1.4,0.8c-0.6-0.4-1-1.2-1.6-1.7c-0.3-0.3-0.6-0.6-1-1c-0.2,0.4-0.4,0.8-0.6,1.2
	c-0.4,0.8-0.5,1.9-1.1,2.5c-0.8,0.7-1.6,1.4-2.4,2.1v18.4c0.5,0.3,0.9,0.6,1.4,0.9c0.7,0.4,1.5,0.8,2.3,1.1c0.2,0.1,0.5-0.1,0.7-0.2
	C7,47.1,7.3,47.3,7.9,50c0.1,0.6,0.7,1,1,1.5c0.2-0.5,0.5-1.1,0.5-1.6c0.1-2.2,0.9-2.9,3.2-2.3c0.9,0.2,1.8,0.5,2.8,0.8
	c0-0.8,0-1.4,0-2c0.3,0.1,0.5,0.2,0.8,0.3c0.3-0.5,0.4-1,0.8-1.5c0.6-0.9,1.3-1.7,1.9-2.5c0.2-0.2,0.5-0.5,0.6-0.7
	c0.4-0.9,0.7-1.9,1-2.8c0.1-0.2,0-0.5,0-0.8c0.1-0.8,0-1.7,0.3-2.4c0.2-0.6,0.9-1,1.6-1.8C20.1,34.4,19.9,33.4,20.6,32.4z"/>
</svg>
