<?xml version="1.0" encoding="utf-8"?>
<!-- Generator: Adobe Illustrator 23.0.1, SVG Export Plug-In . SVG Version: 6.00 Build 0)  -->
<svg version="1.1" id="Слой_1" xmlns="http://www.w3.org/2000/svg" xmlns:xlink="http://www.w3.org/1999/xlink" x="0px" y="0px"
	 width="266.7px" height="298.2px" viewBox="0 0 266.7 298.2" style="enable-background:new 0 0 266.7 298.2;" xml:space="preserve"
	>
<style type="text/css">
	.st0{fill:#F2E2C2;}
</style>
<path class="st0" d="M264.3,28.8c-2,0.4-4.1-0.3-5.9,0.7c0,0.8,0.2,1.6,0,1.9c-0.6,0.8-1.3,1.7-2.4,1.7c-1.3-2-3.4-2.6-5.5-3.2
	c-0.1-0.5-0.1-1-0.2-1.5c-1.1,0.2-1.3-0.6-1.5-1.5c-0.1-0.7-0.3-1.4-0.5-2.3c-0.5-0.1-1-0.1-1.7-0.2c-0.1,1-0.1,1.9-0.2,2.9
	c-1.2-1-2.3-2.2-4-2c-0.3,0.6,0.1,1,0.5,1.4c0.6,0.6,1.2,1.2,0.8,2.3c-0.5-0.3-0.9-0.6-1.5-1.1c0,0.9,0,1.4,0,2.1
	c0.4-0.1,0.6-0.2,0.9-0.3c0,0.1,0.1,0.3,0.1,0.4c0,0.1-0.1,0.3-0.1,0.4c-0.2,0.9,0,1.5,0.6,1.5c0.5,0.1,1.1-0.7,1.1-1.4
	c0-0.5-0.2-0.9-0.3-1.4c1.5,0.3,2.7,2.1,2.4,3.7c-0.2,0.9-0.7,1.1-1.5,0.6c-0.2-0.1-0.5-0.3-0.7-0.4c-0.5-0.2-0.9-0.1-1.1,0.5
	c-0.1,0.3-0.4,0.6-0.6,0.9c-0.7-0.4-0.8-0.8-0.7-1.5c0.1-0.5,0-1.1-0.1-1.7c-0.2-0.5-0.5-0.4-0.9,0c-0.2-0.6-0.4-1.1-0.7-1.6
	c-0.2-0.5-0.5-0.9-0.7-1.3c-0.2,0.1-0.3,0.1-0.3,0.1c-1,0.9-1.1,0.9-1.5-0.4c-0.2-0.6-0.2-1.3-0.8-1.7c-0.2-0.1-0.2-0.6-0.2-0.9
	c0.5-0.1,0.9,0,1.2-0.2c0.5-0.4,0.9-0.9,1.3-1.4c0.2-0.3,0-0.7,0-1.2c-0.9,0.1-1.7,0.2-2.7,0.2c-0.3-0.4-0.7-0.9-1.2-1.4
	c-1-1.1-1.9-2.2-2.9-3.3c-0.8-0.9-0.7-1.1,0.2-1.8c1.5-1,3-2.1,4.4-3.1c-0.5-1.3-1.1-2.6-1.8-4.2c-0.9-0.1-1.6,0.8-2.7,1.3
	c1.1,1.3,0,2-0.5,3c-0.7-0.6-0.6-1.4-0.4-2c0.4-1.6,0.8-3.2,1.2-5c0.5-0.1,1-0.1,1.7-0.2c0,0.5,0,0.8,0.1,1.4
	c0.8,0.2,1.7,0.2,2.5,0.6c0.7,0.4,1.2,1.2,1.9,1.9c1.2-1.3,1.5-2.9,1.3-4.8c-0.5-0.2-0.8-0.3-1.2-0.4c-0.1-1.2,0.1-2.3,0.8-3.8
	c0.6,0.5,0.6,0.5,1.1,2.1c-0.9,0.5-0.8,1.3-0.5,2.1c0.3,0.8,0.6,1.6,0.9,2.4c0.2,0.4,0.3,0.9-0.1,1.3c-0.2,0.2-0.2,0.5-0.2,0.8
	c0.3,1.8,0.7,3.6,1.1,5.4c0.1,0.4,0.5,0.7,0.9,1.3c-0.1,0.5-0.3,1.3,0.1,2.1c0.1,0.3-0.1,0.8-0.3,1.2c-0.1,0.4-0.3,0.9-0.6,1.5
	c0.5,0.1,0.9,0.2,1.2,0.3c0.4-0.8,0.7-1.4,1.1-2.3c0.6,1.4,1,2.5,1.5,3.7c0.7,0,1.3-0.9,2-0.2c0.5,0.5,1,1.1,1.6,1.8
	c-0.1-0.6-0.3-1-0.3-1.3c0.1-2,0.3-4,0.5-5.9c0.2-1.4,1.3-1.7,2.3-0.9c1.1,0.9,2.1,1.8,3,2.9c0.8,0.9,1.7,1.4,2.9,1.3
	c0.4,0,0.9,0.1,1.4,0.1c-0.1,0.3,0,0.5-0.1,0.6c-0.4,0.5-0.3,1,0.1,1.4c0.9,0.9,1.7,1.7,2.6,2.6c0.5,0.5,1,0.9,1.4,1.4
	C264.4,27.3,264.8,27.9,264.3,28.8z M242.6,18c-0.7-0.1-1.3,0.4-1.8-0.3c-0.2-0.4-0.6-0.7-0.8-1c-0.3,0.3-0.5,0.7-0.8,1
	c0,0-0.1,0-0.1,0.1c-0.5,0.6-0.5,1,0.2,1.2c0.6,0.1,0.9,0.4,1,1c0.1,0.2,0.3,0.4,0.4,0.5c0.1,0.1,0.3,0,0.5-0.1c0-0.4,0-0.8,0-1.1
	C241.7,18.9,242.7,19.2,242.6,18z"/>
<path class="st0" d="M163.1,39.1c0.2,0.2,0.3,0.3,0.5,0.5c0.2-1.1,0.5-2.2,0.7-3.3c0.1-0.4,0.3-0.8,0.7-0.6c0.2,0.1,0.4,0.6,0.5,0.9
	c0.1,0.6-0.4,1.2,0.1,1.9c0.2-0.5,0.3-0.9,0.5-1.5c1.9,0.4,3.5,1.6,5,2.8c1.5,1.1,2.9,2.5,4.4,3.9c-0.2,0.6-0.7,1.2-0.2,2
	c0.8,0.1,1.6,0.4,2.4-0.4c1.7,1.7,1.7,2.5,0.2,4.5c-1.1-0.4-1.1-1.8-1.9-2.7c-0.3,0.4-0.5,0.8-0.7,1.1c-1.4,0.2-1.4,0.2-2.5-0.6
	c-1,1.7-1,3.7-1.5,5.7c-0.4-0.3-0.7-0.5-1-0.7c-0.8-0.6-1.8-0.7-2.1-0.2c-0.4,0.6-0.2,1.5,0.5,2.3c0.6,0.6,1.2,1.1,1.9,1.7
	c0.3,0.3,0.6,0.5,1,0.8c-0.1,0.1-0.1,0.2-0.2,0.3c-0.6,0-1.1,0-1.7,0c-0.1-0.5-0.2-1-0.5-1.9c-0.5,0.6-0.7,0.9-1,1.2
	c-0.9-0.4-1.9-0.9-3.1-1.4c0.1,1.1,0.2,1.8,0.3,2.7c0.7,0.2,1.4,0.5,2.1,0.8c0,0,0.1,0,0.1,0c0.5,1.1,1.6,0.8,2.5,1.1
	c0.5,0.2,0.8,0.5,0.6,1.1c-0.1,0.4-0.2,0.8-0.3,1.2c-1,0-2,0-3,0c0-1-0.4-1.8-1.3-2.1c-0.4-0.2-0.7-0.4-0.7-1c0-0.3-0.3-0.6-0.4-0.8
	c-0.7-0.9-0.9-2.5-0.4-3.7c0.2,0.1,0.4,0.3,0.6,0.3c0.6,0.1,1-0.2,1-0.8c0-0.5-0.1-1.1-0.2-1.6c-0.2-0.8-0.3-1.4,0.2-2.2
	c0.2-0.4-0.1-1.1-0.2-1.7c-0.1-0.4-0.2-0.7-0.2-1.1c0.9,0.9,1.9,1.7,2.1,3.5c0.8-1.6,1.4-2.9,0.2-4.2c0.4-0.8,1.5-1.2,0.8-2.3
	c-0.4-0.6-0.2-1.7-1.3-1.8c-0.1,0.5-0.2,1-0.4,1.6c-1.3,0.3-1.8-1.6-3.2-1.1c-0.3,1.3,0.5,2.4,1.2,3.6c-0.9,0.4-1.8,0.6-2.7,0.1
	c0.3-1.4-0.5-2.2-1.5-2.7c-0.8,0.3-0.3,1.1-0.5,1.5c-1.7,0.3-2.2-0.1-2.4-1.9c-0.3-0.2-0.6-0.4-0.9-0.6c-0.7-0.7-1.2-1.5-1.2-2.6
	c0.1-2.2,0-4.5,0.1-6.7c0-0.9,0.2-1.9,0.3-3c0.6,0.4,1,0.7,1.4,1c0.9-0.3,1-1.2,1.4-1.9c0.2-0.4,0.3-0.8,0.4-1.2
	c0.2-0.4,0.4-0.8,0.9-0.8c0.4,0,1.5,0.7,1.6,1.2c0,0.4-0.1,0.9-0.3,1.2c-0.7,1-0.7,0.9,0.1,2.1c-0.7,1.6-1.4,3.3-2.2,5.2
	c0.8,0,1.5,0,2.3,0c0.3-1.5,0.7-2.9,1-4.3c0.1,0,0.2,0,0.2,0C163.1,35.5,163.1,37.3,163.1,39.1c-0.9,0.8-1.4,2-0.9,2.6
	c0.5,0.6,0.4,1,0.2,1.5c-0.1,0.5-0.2,0.9,0.6,1.2c0.1-0.6,0.3-1.1,0.3-1.7C163.3,41.6,163.2,40.4,163.1,39.1z M169.7,45.8
	c-0.4,0.9-0.2,1.4-0.1,2.1c0.1,0.5,0,1.1,0,1.7c0.6-0.4,1.1-0.8,1.6-1.2c0.7-0.5,1-1.5,0.6-2.4c-0.3,0.4-0.5,0.7-0.8,1.1
	c-0.3-0.2-0.5-0.4-0.7-0.6C170.1,46.4,170,46.1,169.7,45.8z M172.9,46.1c0.1-0.4,0.2-0.8,0.4-1c0.3-0.2,0.6-0.2,1-0.3
	c-0.1-1.2-0.5-1.8-1.3-1.9c-0.3,0-0.7,0.2-0.9,0.4C171.6,44.1,172,45.4,172.9,46.1z"/>
<path class="st0" d="M82.2,78.2c-0.3-0.3-0.6-0.7-0.9-1c-0.6-0.5-0.7-1-0.3-1.6c0.4-0.8,0.7-1.7,1-2.6c0.2-0.1,0.5-0.2,0.8-0.3
	c0.9-0.2,1.2-0.4,1.2-1.4c0-0.3-0.1-0.6-0.2-0.7c-0.2-0.1-0.5,0-0.8,0.1c-0.1,0-0.2,0.2-0.3,0.3c-0.4,0.6-0.9,0.8-1.5,0.6
	c-0.5-0.1-1.2-0.1-1.4-1c-0.5,0.4-0.8,0.7-1.2,0.9c-0.6,0.4-1,0.2-1.1-0.6c0-0.4,0-0.8,0-1.2c0-0.5,0.3-0.8,0.8-0.8
	c0.7,0,1.5,0.1,2.2,0.2c1.4,0.3,2.9,0.6,4.4,0.2c0.4,0.8,0.7,1.6,1,2.4c0.2,0.5,0.5,0.9,0.8,1.3c0.4,0.5,0.4,0.5,1.4,0.5
	c-0.8,0.7-1.5,1.2-2.1,1.7c0.6,1.8,2.5,1.2,2.9,3c-0.3,0.3-0.6,0.7-1.1,1.2c0.1,0.2,0.1,0.6,0.3,0.8c0.2,0.2,0.7,0.4,1,0.3
	c0.2,0,0.5-0.4,0.6-0.7c0.2-0.6,0.2-1.2,0.3-2c0.7,0.9,0.6,2.1,1.6,2.8c0.6-1.5,1.7-1,2.7-0.9c2.8,0.3,5.6,0.5,8.4,0.7
	c1.9,0.1,3.8,0.2,5.7,0.3c0.3,0,0.5,0.1,0.9,0.2c0,1.6-0.3,3-0.9,4.8c-0.2-1.1-0.4-1.9-0.6-2.9c-1.2,1.2-2.3,1.9-2.8,3.4
	c-0.2,0.6-0.7,1.1-1.1,1.6c-0.3,0.4-1.1,0.6-0.6,1.5c0.2,0.4-1.2,1.7-1.7,1.6c-0.3,0-0.8-0.3-0.8-0.5c-0.1-1.2-1-1.6-1.7-2.3
	c-0.5-0.5-1-1-1.5-1.5c-0.3-0.4-0.6-0.8-0.6-1.4c-0.1-1.1-0.5-1.5-1.5-1.7c-0.2,0.8-0.2,1.7,0.3,2.2c0.7,0.8,0.7,1.6,0.6,2.4
	c0.3,0.6,1.2,0.3,1.1,1.1c-0.2,0.8-0.8,0-1.2,0.2c-0.1,0.4-0.1,0.9-0.2,1.5c-0.5,0.1-1.1,0.3-0.9,1.1c-0.3,0-0.5,0.1-0.5,0
	c-0.8-1.2-1.6-2.2-1.7-3.8c-0.1-1.6-0.6-3.2-0.9-4.8c0-0.2-0.2-0.3-0.4-0.6c-0.2,0.4-0.4,0.6-0.4,0.8c0,0.7,0.1,1.4,0.2,2.2
	c0.1,0.9,0.2,1.8-0.1,2.8c-1-0.6-0.4-1.8-1-2.5c-0.2,0-0.6,0-1,0c0-0.7-0.1-1.4-0.1-2c-0.1-0.6-0.2-1.2-0.4-2.1
	c-0.4,0.6-0.7,1-0.9,1.4C86.5,83,86,81.8,85.3,81c-0.8-0.8-1.5-1.7-2.2-2.5C82.9,78.3,82.5,78.3,82.2,78.2L82.2,78.2z"/>
<path class="st0" d="M7.5,225.9c0.6,0.9,1.1,1.7,1.6,2.5c-1,0.6-1.9,0.3-2.8,0.3c-1.1-2.5-0.9-2.6,0.7-3.5c-0.3-0.2-0.6-0.4-0.8-0.6
	c-0.4,0.3-0.7,0.5-1.1,0.8c-0.2-0.3-0.4-0.5-0.6-0.8c-0.1,0.9-1.4,1.1-0.8,2.2c-0.9,0.5-1.6,1.1-2.7,0.6c0-0.6,0-1.3,0-2.1
	c0.4-0.1,0.9-0.2,1.3-0.4c0.4-0.6,0.2-1.2,0-1.8c-0.3-1-0.7-1.9-1-2.8c-0.2-0.7-0.5-1.4-0.6-2.1c-0.2-1.3-0.2-2.6,0.7-3.7
	c0.5,0.8,1.1,1.5,1.7,2.4c0.7-1-0.5-1.8,0.1-2.8c0.5-0.7-0.5-1.8,0.6-2.5c-0.6-0.6-1-1.1-1.5-1.3c-0.8-0.5-1.2-1.2-1.4-2.1
	c-0.7-3-0.9-6-0.8-9.1c0.1-2.2,0.3-4.3,0.5-6.5c0-0.1,0.1-0.3,0.2-0.7c0.6,1.3,1.1,2.3,1.5,3.4c0.5,1.2,0.9,2.4,1.4,3.6
	c0.1,0.2,0.1,0.4,0.2,0.5c1.1,0.7,1.1,2,1.4,3c1.3,4.7,2.6,9.5,3.8,14.2c0.5,1.8,0.9,3.6,1.3,5.4c0.1,0.3,0.1,0.8,0,1
	C9.5,224,9.1,225.5,7.5,225.9z"/>
<path class="st0" d="M259.1,50.9c1.3,0.9,2.5,1.7,3.8,2.6c0.2-0.8,0.4-1.5,0.5-2.2c0.9,0.5,0.9,0.9,0.3,2.5c0.3,0.3,0.6,0.7,1,0.9
	c0.8,0.4,1,1.1,1.1,1.9c0.4,3.4,0.9,6.7,0.9,10.1c0,1.9-0.4,3.7-1,5.5c-0.5,0.2-0.8,0.2-1.2-0.2c-0.6-0.7-1.4-1.3-1.9-2
	c-0.5-0.8-1.2-1-2.1-1c0-0.7,0-1.3,0-2c0-0.3,0-0.6,0-0.9c0-0.4-0.1-0.9-0.6-0.8c-0.6,0-0.6,0.6-0.5,1c0,0.4,0.1,0.8,0.2,1.3
	c-1.1-0.1-1.1-0.1-2.1,1.5c0.3,1.1,0.7,2.3,1.1,3.4c-1.2-1-2.3-2.1-3-3.5c-0.1-0.3-0.1-0.6-0.1-1c0.1-0.4,0.2-0.7,0.3-1
	c-0.4-0.7-1-0.7-1.6-0.8c-1.4-0.2-1.9-0.6-1.9-2.1c-0.1-2,0.4-3.8,1.2-5.7c0.8-1.9,2.3-3,3.4-4.7C257.4,52.8,258.3,51.9,259.1,50.9z
	 M254,59.8c-0.8-0.1-1.2,0.1-1,0.7c0.3,0.9-0.1,1.5-0.5,2.1c0.3,0.3,0.6,0.5,0.6,0.5c0.4-0.2,0.7-0.4,0.9-0.6c0.2-0.3,0.3-0.6,0.5-1
	c0.3,0,0.6,0,1.1-0.1c0-0.4,0.1-0.7,0-1c-0.2-1.8-0.2-1.8,1.5-2.6c0.2,0.9,0.9,0.9,1.6,0.9c0.3,0,0.6,0,1-0.1c0.7-0.1,1.2,0,1.7,0.7
	c0.3-0.7,0.6-1.2,0.8-1.8c0.3-0.9,0-1.6-0.9-1.8c-0.4-0.1-0.8,0-1.2,0c0.1,0.9-0.2,1.7-1,1.6c-1.1,0-2.5,0.8-3.2-1.4
	c-0.1,0.7-0.1,1-0.1,1.3c-0.4,0.1-0.9,0.2-1.3,0.2C254.3,58.4,254.2,59.1,254,59.8z"/>
<path class="st0" d="M147,130.1c-0.2-0.2-0.3-0.4-0.6-0.7c-0.3,0.2-0.5,0.4-0.9,0.7c-0.3-0.6-0.7-1.2-1-1.8
	c-0.3-0.6-0.7-0.7-1.2-0.3c-0.9-2-1.7-3.9-2.5-5.8c-0.2-0.6-0.5-1.1-1.4-0.6c0.4-0.9,0.7-1.7,1-2.5c0.2-0.5,0.4-1.1-0.3-1.5
	c-0.2-0.1-0.3-0.4-0.3-0.6c-0.3-1.4-0.6-2.7-0.5-4.2c1.2,0.3,2,1.5,2.1,2.8c0,0.7-0.2,1.6,0.4,2.3c0.3-0.1,0.6-0.2,0.7-0.4
	c0.5-1,1.3-2,0.9-3.4c-0.3-0.9-0.4-1.8-0.5-2.7c-0.1-0.5-0.1-1.1,0-1.6c0.1-0.5,0.3-0.9,1-0.8c0.4,0.7,0.5,1.5,0.4,2.3
	c-0.1,0.9-0.1,1.7,0,2.6c0,0.3,0.4,0.7,0.7,0.7c0.5,0.1,0.6-0.4,0.6-0.8c0.1-0.8,0.2-1.6,0.1-2.3c-0.3-1.6,0.5-2.4,1.4-3.1
	c1.3,1.4,2.5,2.7,3.8,4c-0.2,0.4-0.4,0.7-0.6,1.1c0.7,0,1.4-0.1,2.1-0.1c1.4,0,1.4,0,1.9,1.5c0.3-0.5,0.5-0.9,0.7-1.3
	c0.3,0.2,0.7,0,0.7,0.7c0,0.7,0.4,1.3,0.7,2.1c-0.1,0.2-0.3,0.4-0.5,0.6c-0.4-0.2-0.7-0.9-1.3-0.4c-0.3,0.3-0.5,0.8-0.8,1.2
	c-0.4-0.5-0.4-1.3-1.1-1.2c-0.8,0.1-1.3,0.6-1.8,1.2c-0.2,0.2,0,0.7,0.1,1.1c0.1,0.4,0.5,0.7,0,1.2c-0.2-0.2-0.4-0.3-0.6-0.4
	c-0.4,0.2-0.9,0.5-1.3,0.7c-0.5,0.2-0.7,0.6-0.7,1.1c0.1,0.5,0.3,1,0.9,1.1c1.1,0.1,2.3,0.2,3.4,0.2c0.3,0,0.6,0.1,0.9,0.1
	c0.3,1.2-0.5,0.9-1,0.8c0.1,0.8,0.2,1.6,0.3,2.4c1.4-0.7,1.5-2.8,3.5-3.1c-1.2,2.4-2.5,4.3-4.6,5.3c-0.3-0.2-0.6-0.4-0.9-0.4
	c-1.1,0-1.6-0.3-1.8-1.4c-0.1-0.4-0.1-0.7-0.2-1.4c-0.7,1.3-0.3,2.1,0.3,2.9c0.4,0.6,0.8,1.3,0.7,2.1l0,0c-0.5,0.1-1,0.1-1.4,0.2
	c-0.9-1-1.7-1.9-1.2-3.6c-0.5,0.6-1.1,0.7-1.7,0.4c0.4,0.6,0.3,1.4,1,1.8C146.8,129.1,146.8,129.7,147,130.1L147,130.1z
	 M144.5,122.6c-0.5,1.2-0.4,1.3,0.5,1.4c0.6,0.1,1.3,0.1,1.9,0.1c0.5,0,1,0.2,1.3-0.4c0.3-0.7-0.1-1.1-0.4-1.6
	c-0.3-0.6-0.9-0.5-1.6,0.2C145.6,122.9,145.1,123.3,144.5,122.6z"/>
<path class="st0" d="M236.9,99c-0.3,0.2-0.6,0.4-1,0.5c-0.5,0.1-1,0.3-1.3-0.5c-0.1-0.2-0.5-0.3-0.9-0.6c0.1,1,0,1.7-0.7,2.2
	c-0.3,0.2-0.2,0.8-0.3,1.2c-0.1,0.4-0.2,0.9-0.2,1.5c-0.4-0.2-0.7-0.3-1-0.4c-0.2,0.2-0.4,0.5-0.6,0.8c-0.1-0.1-0.3-0.2-0.3-0.3
	c-0.2-0.7-0.4-1.4-0.6-2.5c-0.5,0.8-0.9,1.4-1.3,2c-0.2-1.7,0.2-3.5,1.1-4.6c0.6,0.5,0.6,0.5,1.2,1.9c0.8-1.3,0.5-2.6,0.7-4
	c0.5,0.2,1,0.4,1.5,0.5c0.4,0.1,0.9,0.3,1.3,0.3c0.9,0,0.9,0,1.1-1.2c-0.6-0.8-1.5-0.9-2.5-1c-0.1-0.5-0.2-0.9-0.3-1.7
	c-0.1,0.4-0.2,0.6-0.2,0.7c0,0.1,0,0.3-0.3,0.6c-0.1-0.3-0.2-0.7-0.3-1.1c0,0,0.1-0.2,0.4-0.4c-0.9-0.6-2.1,0.3-2.7-0.8
	c-0.1-0.2-0.1-0.6,0-0.9c0.3,0.4,0.7,0.9,1.1,1.5c0.3-0.8,0.6-1.3,0.9-2c0.5,0.8,0.8,1.4,1.3,2.1c0.8-1.6,1.1-3.4,2.7-4.1
	c0.5,0.5,0.3,1.1,0.3,1.6c0.1,0.5,0.1,1.1,0.1,1.7c-0.9,0.2-1,1.1-1.1,1.9c-0.1,0.2,0.2,0.8,0.3,0.8c0.3,0,0.9-0.2,0.9-0.3
	c0-1,1.1-0.9,1.3-1.6c0.1-0.2,0.8-0.2,1.3-0.3c-0.2-1.1-0.8-0.6-1.4-0.5c0-0.2-0.1-0.4-0.1-0.6c0.1-1.2-0.3-2.2-1-3.2
	c-0.9-1.1-1.6-2.4-2.1-4c0.5,0.1,0.8,0.1,1.2,0.2c0.6-0.5,0.5-1.7,1.5-1.6c-0.4,0.8-0.7,1.5-1.1,2.2c0.4,0.7,0.8,1.3,1.2,1.8
	c0.1,0.2,0.4,0.2,0.6,0.3c0.5,0.2,1,0.4,1.4,0.6c0,0.1,0,0.2,0,0.3c-0.2,0.1-0.5,0-0.6,0.2c-0.2,0.2-0.5,0.5-0.5,0.7
	c0,0.4,0.2,0.9,0.5,1.1c0.3,0.3,0.8,0.1,1-0.4c0.1-0.4,0.1-0.9,0.2-1.3c1.2,0.1,1.9,1.7,3.4,1.1c0-0.5-0.1-1-0.1-1.8
	c0.4-0.1,0.8-0.2,1.2-0.3c0.1,1.7-2.7,12.4-3.7,14.5c-0.2-0.1-0.3-0.1-0.7-0.2c-0.5,2.1-0.9,4.1-1.4,6.1c-0.3,0.1-0.9,0-1.1,0.3
	c-0.3,0.4-0.4,1.1-0.5,1.6c-0.1,0.7,0,1.3-0.2,2.1c-0.1-0.5-0.2-1-0.3-1.5c-0.2-0.7-0.3-1.3-0.5-1.9c-0.1-0.2-0.5-0.5-0.7-0.5
	c-0.2,0-0.5,0.4-0.6,0.6c-0.2,0.5-0.3,1-0.2,1.6c0,0.7,0,1.2-0.3,1.9c-0.2,0.5,0.1,1.2,0.3,1.9c-0.5,0.1-0.7-0.1-0.8-0.6
	c-0.2-0.5-0.3-1-0.6-1.5c-0.7-1.2-0.7-1.2-2-1.7c-0.2,0.4-0.4,0.8-0.8,1.4c-0.1-0.4-0.2-0.7-0.2-0.9c0-0.5,0.1-1,0.2-1.4
	c0.1-0.8,0-1.5-1-1.6c0.3-1.1,0.6-2.1,0.9-3.4c0.5,1.6,0.8,2.9,1.2,4.3c1.1-0.5,1.3-1.4,1.7-2.2c0.4-1,0.8-1.9,1.7-2.3
	c0.2-0.1,0.4-0.3,0.4-0.5c0.1-1.1,0.9-1.5,1.6-2C236.7,100.5,237.3,100,236.9,99c0.2,0.2,0.5,0.4,0.5,0.6c0,0.6-0.3,1.1-0.4,1.8
	c0.3,0.5,1,0.7,1.6,0.4c1-0.6,0.6-1.8,0.6-2.7c1.3-0.4,0.8-1.5,0.7-2.3c0-0.8-0.4-1.7-1-2.4c-0.9,0.4-0.9,1.1-1,1.9
	c0.5,0,0.9-0.1,1.3-0.1c-0.1,0.3-0.2,0.7-0.3,0.7c-0.8,0.2-1,1.3-1.8,1.3C237,98.2,237,98.7,236.9,99z"/>
<path class="st0" d="M139.1,293.2c-0.7-0.3-1.2-1.2-2.2-0.9c-0.3,0.1-0.7,0.2-0.8,0.4c-0.3,0.4-0.5,0.9-1.1,0.9
	c-0.1,0-0.2,0.1-0.2,0.2c-0.1,1.4-1.1,1.1-2,1.1c-0.8-1.9-2.1-3.7-2.2-6.1c0.8,0.8,1.6,1.5,2.4,2.4c0.5-1.2-0.1-2-0.2-2.9
	c-0.2-0.8-0.5-1.7-0.7-2.5c0.3-0.2,0.7-0.4,1-0.6c-0.9-1-1.3-1.2-2.4-1c-0.9-1.9-1.7-3.7-2.6-5.6c-0.8,1.5,0.4,2.6,0.3,4.3
	c-0.6-1-1.2-1.8-1.7-2.7c-0.3-0.5-0.5-1.2-1.3-1c-0.9-0.9-2.2-1.5-2.6-3.2c0.6,0,1-0.1,1.5-0.1c0.4,0,0.8,0.1,1.2,0
	c0.2,0,0.5-0.4,0.5-0.5c0-0.2-0.3-0.5-0.5-0.6c-0.5-0.1-1.1,0-1.7,0c0.1-1.6,0.3-3.1,0.9-4.5c0.7-1.5,2-1.7,3.1-0.6
	c1.1,1.1,2.1,2.7,2.7,4.4c-0.8,1.1-0.8,1.1-0.2,2.3c0.2,0,0.3-0.1,0.5-0.1c0.1-0.1,0.2-0.2,0.3-0.3c0.1,0.1,0.2,0.2,0.2,0.4
	c0.4,1.1,0.6,2.3,1.4,3.3c0.4,0.4,0.7,0.7,1.3,0.7c0.4,0,0.7,0.1,1.1,0.2c0.8,0,1.2,0.4,1.6,1.1c0.9,1.7,2,3.4,2.8,5.1
	c1.3,2.9,1.3,2.8-1.6,3.8C138.3,291.4,138.7,292.3,139.1,293.2L139.1,293.2z"/>
<path class="st0" d="M14.5,124.6c-0.6-0.4-1.1-0.9-1.7-1.3c-0.5,0.2-1.1,0.4-1.6,0.6c-0.3-0.9-0.6-1.7-0.9-2.5
	c-0.3-0.8-0.6-1.6-1-2.2c-0.4-0.6-0.5-1.8-1.6-1.7c-0.2-0.9-0.9-1.2-1.6-1.5c-0.8-0.3-1.5-0.6-2.4-0.9c1.6-2.2,3.7-3.7,5.4-5.8
	c0.5,0.2,1,0.3,1.4-0.2c0.5-0.5,0.6-1.1,0.2-1.5c-0.4-0.5-1.2-0.5-1.6,0c-1.4,2.2-3.7,3.2-5.3,5c-0.2,0.2-0.4,0.4-0.5,0.6
	c-0.4,0.9-1.1,0.9-1.8,0.9c-0.5,0-0.8-0.3-1-0.9c-0.2-0.8-0.3-1.5,0.5-2.1c0.5-0.3,1-0.7,1.5-0.9c1.7-0.6,1.9-1,1-2.7
	c-0.1-0.2-0.1-0.3-0.2-0.7c2.6-2.1,5.5-3.6,8.6-5c-0.1,0.7-0.2,1.1-0.3,1.6c1,0.3,2.3,0.1,3.8-0.6c0,0.4,0.2,0.8,0.1,1.1
	c-0.4,1.7-0.2,3.3,0.8,4.7c-2,1.7-3.9,3.3-5.8,4.9c-0.4,0.4-0.7,0.7-0.6,1.3c0,0.5-0.1,0.9-0.1,1.4c0.3,0.2,0.7,0.2,0.8,0.5
	C11.9,119.3,13.2,122,14.5,124.6L14.5,124.6z M5.4,107.3c0.4-0.3,0.6-0.5,0.8-0.7c0.6-0.3,1.1-0.5,1.5,0.3c0.1,0.2,0.6,0.5,0.7,0.4
	c0.4-0.2,0.2-0.7,0-1c0,0,0-0.1-0.1-0.1c-0.3-0.6-0.5-1.1-1.3-1.1c-0.8,0.1-1.6,0.4-2,1.2C5,106.5,5.2,106.8,5.4,107.3z"/>
<path class="st0" d="M64.9,253.8c0.8,1.3-0.2,1.8-0.9,2.5c0,0.9,0.6,0.8,1,0.9c0.4,0.1,0.8,0.2,1.2,0.4c-1.9,0.3-3-0.2-3.6-1.6
	c-0.8,1.5-1.4,3-1.7,4.6c-0.1,0.5,0.2,0.8,0.6,1c0.9,0.4,1.8,0.8,2.8,1.1c0.5,0.2,1,0.3,1.8,0.5c-0.3,0.2-0.4,0.3-0.5,0.3
	c-0.8,0-1.3,0.6-1.7,1.3c-0.4,0.8-0.8,1.6-1.2,2.5c-0.5-0.4-0.9-0.7-1.6-1.2c-0.4,1.6-0.7,3-1,4.7c-0.7-1.3-0.6-2.5-0.9-3.6
	c-0.2-1.1-0.4-2.1-0.8-3.2c-0.5,1.2-1.2,2-2,2.9c-0.6,0.7-1.2,1.2-2.1,1.4c-0.3,0-0.6,0.5-1,0.8c-0.1-0.2-0.3-0.4-0.3-0.6
	c0.4-1,0.9-2.1,1.4-3.2c0.3,0.1,0.7,0.2,1.2,0.3c0-0.8,0-1.6,0-2.5c-0.3,0.1-0.6,0.2-0.8,0.3c-1.5-1.8-2.7-3.7-3.7-5.9
	c-0.2-0.5-0.3-1-0.3-1.5c-0.1-0.6,0.2-1,0.7-1.3c1-0.4,1.9-1,3-1.3c0.5-0.2,1.1,0.1,1.8,0.1c-0.2,1.2,0.4,1.6,1.3,1.7
	c1.2,0.2,2.3,0.9,3.5,0.8c0.5,0,1,0.2,1.2-0.6c0-0.1,0.2-0.1,0.3-0.2C63.4,254.8,64.1,254.3,64.9,253.8z"/>
<path class="st0" d="M254.4,253.6c-0.6,0.1-1,0.1-1.4,0.2c0-0.3-0.1-0.6-0.1-1c0.3,0.1,0.6,0.2,0.8,0.3c0-0.1,0.1-0.3,0.1-0.4
	c-0.2-1.3-0.5-2.7-0.7-4c0-0.2-0.1-0.4-0.1-0.6c0-0.8,0.2-1.7,0.8-2c0.4-0.2,1,0.2,1.7,0.4c0.1-0.1,0.2-0.5,0.4-0.7
	c0.9-0.3,1.7-0.5,2.6-0.8c0.7-0.3,0.8-0.4,0.6-1.8c1-0.3,2-1,3-0.7c0.4,0.6,0.7,1.1,1.2,1.9c0.4-0.7,0.6-1.2,0.9-1.7
	c0.2,0.1,0.4,0.3,0.7,0.4c1.4,0.4,1.7,1.5,1.6,2.8c0,0.8-0.2,1.5-0.4,2.3c-0.2,0.6-0.7,0.8-1.2,0.4c-0.8-0.5-1.5-1.1-1.7-2.3
	c-0.2-1-0.8-1.8-1.4-3c-0.7,0.9-1.1,1.6-1.7,2.3c-0.2-0.1-0.4-0.1-0.6-0.3c0,0.5,0,0.9,0,1.4c0.7-0.2,1.3-0.4,1.9-0.6
	c0.1,0.9-0.6,1.9,0.6,2.3c-1.6,0.7-1.9,0.6-2.7-0.5c-1,0.6-2,0.5-3.1,0.3c-1.2-0.2-2.1,0.7-2,1.9c0,0.2,0.2,0.5,0.5,1
	c0.2-0.6,0.3-1,0.4-1.3c0.1-0.3,0.3-0.7,0.5-1.1c0.6,0.5,1.3,0.6,1.3,1.7c-0.5-0.3-0.9-0.5-1.5-0.9c0,1.1,0,2,0,2.9
	c2-0.1,2-0.1,2-2.6c0.6-0.2,1.2-0.3,1.7,0.5c-0.5,0.2-0.9,0.3-1.2,0.4c0.1,0.7,0.2,1.3,0.3,2c0,0.4,0,0.8,0.5,0.9
	c0.4,0,0.6-0.3,0.7-0.7c0-0.2,0.1-0.5,0.1-0.7c0.5,0,0.9,0.1,1.4,0.1c0.1-0.5,0.2-1,0.3-1.5c0.5,0,0.9,0,1.6,0
	c-0.1,0.6-0.3,1.1-0.3,1.6c0,0.3,0.1,0.7,0.3,0.8c0.4,0.2,0.6-0.1,0.8-0.5c0.5-0.6,0-1.2-0.1-1.9c0.3-0.2,0.6-0.4,0.9-0.6
	c0.5,0.2,1,0.4,1.5,0.7c-0.9,0.5-1.1,1.4-0.6,2.2c0.8,1.2,0.8,1.2-0.4,1.9c-0.5,0.3-0.9,0.6-1.6,1c0.1-0.7,0.2-1.2,0.2-1.6
	c0-0.3-0.3-0.8-0.5-0.9c-0.3-0.1-0.7,0.1-0.9,0.3c-0.6,0.6-0.5,1.4,0.3,2.5c-0.5,0.3-0.9,0.6-1.4,0.8c-0.9,0.4-1.9,0.5-2.7,1.4
	c-0.2,0.2-0.8,0.2-1.2,0.2c-1.2,0.1-2.3-0.4-3.5,0.2c0.7-0.8,0.7-0.8,0.7-2C254.4,255.9,254.4,254.9,254.4,253.6z"/>
<path class="st0" d="M197.3,27.9c-0.2-0.2-0.3-0.5-0.6-0.6c-0.3-0.1-0.7-0.3-1-0.2c-1.1,0.2-2.1,0.4-3.2,0.6c-0.1,0-0.2-0.1-0.5-0.2
	c0.4-1.3,0.9-2.7,1.3-3.8c-0.6-0.8-1.1-1.5-1.6-2.2c0.8-1.3,2-2.2,2.1-3.9c-0.5,0.2-1,0.4-1.5,0.7c-0.5-0.7-0.9-1.4-1.5-2.3
	c0.4,0.1,0.5,0.1,0.5,0.2c0.4,0.3,0.8,0.6,1.3,0.3c0.6-0.4,0.9-1.4,0.8-2c-0.2-0.6-0.6-0.8-1.1-0.4c-0.3,0.3-0.6,0.6-1,1.1
	c0-1.1-0.4-1.2-1.2-0.9c0.2-0.3,0.4-0.6,0.7-0.9c0.6-0.8,0.7-1.2,0.1-1.9c-0.6-0.7-1-1.3-0.2-2.3c0.3-0.3,0.2-0.8-0.2-1.1
	c-0.3-0.2-0.4-0.6-0.7-0.9c-0.3,0.1-0.6,0.3-1,0.5c-0.9-1.6-1.1-2.9-0.7-4.2c0.1,0.8,0.1,1.3,0.2,1.9c0.4,0,0.7,0.1,1.1,0.1
	c0.3,0,0.6,0,0.9,0c0.3,0.7,0.7,1.5,1,2.1c-0.6,2.1,0.3,3.7,1.1,5.5c1.2-1.6,0.4-3.4,1.3-5c1,0.9,1.7,2,2.1,3.3
	c0.8,0.3,1.6,0.5,2.3,0.9c0.4,0.2,0.7,0.7,0.8,1.1c0,0.3-0.4,0.6-0.7,0.9c-1,0.8-2.1,1.6-3.2,2.5c-0.2,0.1-0.4,0.3-0.5,0.5
	c-0.1,0.3,0,0.7,0.1,0.9c0.1,0.2,0.5,0.3,0.7,0.2c0.4-0.1,0.7-0.4,1.1-0.6c0.5-0.5,1-1,1.8-1.7c-0.4,1.6,0.3,2,1.2,2.4
	c1.1,0.4,2.1,0.9,2.9,1.3c0.1,0.8,0.2,1.5,0.3,2.5c-0.1,0.3-0.3,0.8-1,0.8c-0.3,0-0.5,0.2-0.7,0.3c-0.5,0.4-0.5,0.8-0.1,1.3
	c0.1,0.2,0.3,0.3,0.6,0.6c-0.4,0.9-0.8,1.8-1.3,2.6c-0.3,0.6-0.8,0.6-1.1,0c-0.8-1.6-1.5-3.3-1.7-5.2c1.1-0.9,2.7-0.6,3.6-1.8
	c-1.3-1.1-2.9-1.5-4.5-1.6c-1.2-0.1-1.6,0.5-1.2,1.7c0.6,1.7,1.4,3.3,2.1,4.9c0.2,0.4,0.4,0.9,0.6,1.3
	C197.9,27.1,197.8,27.5,197.3,27.9z"/>
<path class="st0" d="M37.8,163.8c-0.4,0.3-0.6,0.3-0.7,0.4c-0.6,1.3-0.6,1.3-2.1,1c-0.1-0.7,0.4-1.1,0.9-1.4
	c1.3-0.8,1.5-1.4,0.6-2.6c-0.4-0.5-0.4-1,0-1.4c0.3-0.3,0.5-0.7,0.9-0.9c1-0.7,1.2-1.7,0.9-2.9c-0.1-0.4-0.1-0.7-0.2-1.3
	c2.5,1,3.8,3.1,5.2,5.1c0.3-0.2,0.7-0.7,0.9-0.6c0.3,0.2,0.6,0.6,0.9,1.1c-0.5,0.2-0.9,0.3-1.3,0.5c0.4,2,0.9,4.1-0.1,6.2
	c-0.4-0.2-0.7-0.3-1-0.5c-1-0.5-1.3-0.5-1.6,0.6c-0.4,1.6-0.8,3.3-1.1,4.9c-0.2,1.1-0.3,2.2-0.4,3.3c-1.5,0-1.6-0.1-2.1-1.5
	c-0.6,0.5-1.7,0.6-2.3,0.1c-0.5-0.4-0.6-1-0.5-1.5c0.1-0.7,0.3-1.3,0.5-1.9c0.8-1.9,1.6-3.8,2.4-5.7
	C37.8,164.5,37.8,164.3,37.8,163.8z"/>
<path class="st0" d="M147.7,102.9c-0.5,1.4-0.9,2.7-1.3,4.1c-0.3,0-0.8,0.1-1.2,0c-1.9-0.8-3.8-0.7-5.8-0.7c-1.3,0-1.3,0-1.8,1.5
	c-1,0-2.1,0-3.2,0c-0.6,0-1.2,0.3-1.8,0.3c-0.6,0-1.2,0-1.8-0.2c-0.6-0.1-1.2-0.4-1.8-0.7c0.5-0.8,0.5-0.8,1.5-0.2
	c1.2-1.2,2.6-1.9,4.3-2.3c1.9-0.4,3.9-1,5.8-1.2c1-0.1,1.9-0.6,2.8-1c-0.8-2.3-1.6-4.5-2.4-6.8c-0.8,0.9-1,2.6-0.5,4.8
	c0.3-0.1,0.6-0.3,1-0.4c0.3,0.8-0.1,1.3-0.5,2.1c-0.6-1.1-1.1-2-1.6-3c-0.1,0.2-0.2,0.4-0.3,0.8c-0.8-0.8-1.5-1.6-2.3-2.4
	c-0.9,0.8-1.7-0.2-2.6-0.1c0.4-1.2,0.9-1.4,2.7-1.3c0.1,0.2,0.1,0.4,0.2,0.6c0.2,0.6,0.7,0.5,1.2,0.4c0.5-0.1,0.7-0.5,0.7-0.9
	c-0.1-0.6-0.2-1.2-0.3-1.9c-0.1-0.4-0.1-0.7-0.1-1.2c2.6,0,4.7,1.3,7.1,1.7c0,1.1,0.3,2.1,0.3,3.2c-0.1,0-0.2,0.1-0.3,0.1
	c-0.5-0.6-1-1.3-1.5-1.9c-1.3,1-1.3,1.3-0.5,2.6C144.8,100.5,146.2,101.8,147.7,102.9z"/>
<path class="st0" d="M189.4,241.2c1.1-0.9,0.7-1.9,0.8-2.8c0.2-0.9,0.2-1.8,0.3-2.7c0.2,0,0.4-0.1,0.4-0.1c0.7,0.8,1.7,1.5,2,2.7
	c0.1,0.4,0.4,0.7,0.6,1c0.5,0.7,0.5,1.3-0.3,1.7c-0.5,0.2-0.5,0.6-0.6,1c0,0.4-0.1,0.9-0.1,1.3c0,0-0.1,0.1,0,0c-1.7,0-3.3,0-4.8,0
	c-2.4,0-4.8,0-7.1,0c0-1.6,0-3.1,0-4.8c0.6,0,1.1,0,1.6,0c0.2,0,0.4,0.1,0.7,0.1c2.1,0.3,2.5,0.1,3.2-2.4c-0.3,0.2-0.4,0.3-0.7,0.5
	c-0.1-1-0.2-1.9,0.3-2.8c0.5-0.9,0.7-2,0.2-3.3c-0.8,0.1-1.6,0.2-2.4,0.4c0,0-0.1-0.2-0.1-0.4c0-0.9,0-1.8,0-2.9
	c0.4,0.1,0.6,0.1,0.9,0.1c0,0.5,0,0.9,0,1.5c1.7,0.6,3.2-0.5,5-0.3c-0.2,0.9-0.3,1.7-0.5,2.6c-0.1,0.8-0.2,1.5-0.3,2.3
	c0,0.5,0,0.9,0.5,1.3c0.3,0.3,0.3,0.9,0.3,1.4c0,1.1-0.1,2.1-0.2,3.2C189.3,240.2,189.4,240.6,189.4,241.2z"/>
<path class="st0" d="M20.9,20.2c-0.2,0.1-0.6,0.2-1.1,0.4c0.1,0.3,0.1,0.7,0.3,1c0.5,0.9,1,1.8,1.5,2.7c0.1,0.3,0.2,0.9,0,1.2
	c-0.6,0.7-1.2,1.4-1.9,2.1c-0.4,0.3-0.8,0.4-1.2-0.1c-0.1-0.1-0.3-0.1-0.7-0.1c0.3,0.6,0.6,1,0.8,1.5c-0.1,0.1-0.2,0.1-0.3,0.2
	c-1.3-1.9-2-4.2-3.6-5.9c-0.7,0.5-0.7,1.3-0.6,2c0.2,0.8,0.9,0.5,1.4,0.5c0.7,2.1,1.4,4.1,2.1,6.1c-1.1,0.1-1.7-0.8-2.6-1
	c0-0.3,0-0.4,0.1-0.6c0.3-1.1,0.3-2-0.6-2.8c-1-1-1.9-2.1-2.8-3.1c-0.4-0.5-0.9-0.9-1.4-1.4c0.5-0.8,1-1.5,1.5-2.3
	c0.3,0.5,0.6,0.8,1.1,1.5c0.2-1.1,0.4-1.8,0.5-2.5c0.2-1.3,0.3-2.4,1.6-3.2c0.6-0.3,0.9-1.3,1.2-2c0.3-0.5,0.4-1,0.7-1.7
	c0.8,0.7,1.4,1.5,1.7,2.4c0.4,1.2,0.8,2.4,1.3,3.5C20.1,19.1,20.5,19.6,20.9,20.2z"/>
<path class="st0" d="M35.7,132.3c-0.1-0.8,0.6-0.7,1.2-0.7c0.4-0.9,0-1.5-0.2-2.2c-0.6-1.7-0.4-2.2,1.1-3c0.4-0.2,0.8-0.4,1.3-0.7
	c0.3,1-0.5,1.6-0.6,2.4c-1.3,0-1.5,0.2-0.9,1.5c0.1,0.3,0.3,0.5,0.4,0.7c0.1,0.1,0.3,0.2,0.4,0.3c0.1,0.1,0.3,0,0.5,0.1
	c0.1-0.3,0.3-0.7,0.2-0.9c-0.2-0.7,0.1-1.2,0.6-1.4c1.2-0.5,2-1.6,3-2.4c0.2-0.2,0.4-0.3,0.7-0.5c0.8,1.9,0.7,4.1,1.9,5.9
	c0.7-1,1.6-1.2,2.6-0.8c0.2,1.3-0.6,2.3-1.2,3.3c-0.1,0.2-0.6,0.2-0.8,0c-0.2-0.2-0.4-0.5-0.5-0.8c-0.4-1.2-0.4-1.3-1.7-1.1
	c-1.1,0.2-2.3,0.6-3.4,0.9c-0.5,0.1-0.4,0.2-0.3,1.2c1,0.2,1.8-0.2,2.8-0.6c-0.2,0.2-0.3,0.5-0.5,0.7c-1.2,1.1-2.4,2.2-3.5,3.4
	c-0.3,0.3-0.4,0.8-0.7,1.4c-0.6,0.1-1.5,0.3-2.3,0.6c-0.7,0.2-2,0.2-2.7,0c-0.6-0.2-1.2-0.4-2-0.7c0.4-1,0.8-1.9,1.2-2.8
	c0.6-1.5,1.6-2.5,2.6-3.7C34.9,132.3,35.3,132.4,35.7,132.3z M40.9,128.3c-0.5,0.5-0.8,0.8-1.2,1.1c-0.6,0.6-0.6,1.8,0.1,2.4
	c0.1,0.1,0.3,0,0.5,0c0-0.5-0.1-0.8-0.1-1.2c0.4-0.2,0.8-0.4,1.1-0.6c0.2,0.5,0.4,0.9,0.6,1.4c0.6-0.3,1-0.5,1.4-0.7
	C43,129.1,41.4,129.4,40.9,128.3z"/>
<path class="st0" d="M218.4,15.7c0.5-0.1,0.8-0.2,1.1-0.3c0.3-1.5-0.1-2.5-1.1-2.9c-0.9-0.4-1.3-0.3-2,0.9c-1.7-1.9-2.9-4.1-3.8-6.6
	c-0.2-0.6-0.1-1.1,0.3-1.5c0.8-0.9,0.7-1.4-0.5-1.6c-0.4-0.1-0.8-0.1-1.3-0.2c0.5-1.4,1.6-1.1,2.5-1.4c0,0.5,0,0.9,0.1,1.2
	c0.2,0.5,0.6,0.7,1,0.4c0.4-0.2,0.3-0.7,0.1-1c-0.2-0.3-0.4-0.5-0.6-0.7c0.3-0.4,0.5-0.8,0.8-1.3c0.6,0,1.2-0.1,1.8-0.1
	c0.9,0,1.6,0.3,2.1,1.2c0.1,0.3,0.5,0.5,0.9,0.8c0.2-0.7,0.4-1.1,0.5-1.7c2.4-0.1,4.7-0.2,7.1-0.2c0.5,1.3-0.2,2.4-0.1,3.8
	c-0.8-0.6-1.4-1.1-2-1.6c-1-0.8-1.6-0.6-2,0.8c-1.2,0.3-2.4-0.1-3.5-0.7c-1-0.5-1.9-0.7-3.1-0.8c0,0.6,0.3,1.3-0.5,1.6
	c-0.1,0,0,0.6,0,0.9c0.3,1.7,1.5,2.8,2.7,3.9c1,0.9,2.2,1.7,3.2,2.6c0.5,0.5,1,1.1,1.4,1.6c-0.4,0.7-0.8,1.2-1.1,1.7
	c-0.1,0.2-0.2,0.3-0.4,0.4c-0.8,0.5-1.7,0.9-2.6,1.3C219.1,16.4,218.6,16.6,218.4,15.7z"/>
<path class="st0" d="M100.3,211.4c-1.4-1.8-2.8-3.4-4.1-5c0.3-0.5,0.5-0.8,0.7-1.1c0.2-0.2,0.5-0.3,0.7-0.3c0.2,0,0.3,0.4,0.3,0.7
	c0,0.2,0,0.5,0,0.9c0.3-0.2,0.4-0.3,0.5-0.4c0.8-1,0.9-1.4,0.5-1.9c-0.4-0.5-1.3-0.7-2.1-0.3c-1.3,0.6-1.4,0.6-2.6,0.3
	c0-0.2,0-0.5,0.1-0.7c0.5-0.9,0.6-1.7-0.1-2.5c-0.2-0.2-0.2-0.7-0.1-1c0.6-1.7,1.1-3.4,2.3-4.7c0.3-0.4,0.5-0.9,0.7-1.4
	c0.1-0.2,0.2-0.4,0.3-0.4c0.8,0.1,0.8-0.7,1.1-1.2c0.1,0.1,0.2,0.1,0.3,0.2c-0.2,0.6-0.4,1.3-0.7,2c0.6,0.6,1.3,1.2,1,2.3
	c0,0.1,0.4,0.4,0.6,0.6c0.1-0.2,0.4-0.4,0.4-0.7c0-0.9-0.1-1.8-0.1-2.7c0-0.5-0.1-1-0.1-1.7c0.9,0.9,1.5,2.4,2.1,5.6
	c-0.3-0.1-0.6-0.2-0.9-0.3c-0.6,1-0.9,1.8,0.1,2.8c0.3,0.3,0.4,0.9,0.5,1.3c0.4,1.5,0.8,3,1.1,4.5c0.2,0.7,0.4,1.4,1.3,1.7
	C102.7,209.2,101.5,210.3,100.3,211.4z M98.8,201.9c-0.1,0.2-0.4,0.4-0.3,0.7c0.1,1,0.8,1.5,1.3,2.2c0.2,0.3,0.7,0.1,0.9-0.3
	C101,203.6,99.9,201.9,98.8,201.9z"/>
<path class="st0" d="M129.9,164.5c0.4,0.5,0.9,0.9,1.3,1.4c0.2,0.2,0.5,0.4,0.8,0.6c0.8,0.4,1.4,0,1.6-0.9c0.1-0.9-0.6-2.7-1.4-3.2
	c-0.4-0.3-0.8-0.2-1.1,0.2c-0.2,0.2-0.3,0.5-0.6,0.8c-0.4-1.2-0.8-2.3-1.2-3.6c0.7-0.7,1.5-1.5,2.4-2.5c0.2,0.8,0.3,1.5,0.5,2.3
	c0.6,0,1.1,0,1.6,0c0.8-0.1,1.3,0.3,1.5,1.1c0.5,1.6,1.1,3.1,1.6,4.6c0.3,0.9,0.7,1.7,1.1,2.5c0.2,0.4,0.7,0.7,1.1,1.1
	c-0.9,0.8-2,1.6-3,2.5c-0.3,0.3-0.6,0.6-0.9,0.9c-0.5,0.5-0.5,1.1-0.2,1.7c0.2,0.4,0.3,0.9,0.6,1.5c-0.9-0.1-1.6-0.2-2.2-0.3
	c-0.3-0.5-0.5-0.9-0.8-1.3c-0.6-0.8-1.1-1.7-1.7-2.4c-0.9-1.2-1-1.2-2.2-0.2c-0.2-0.6-0.3-1.2-0.5-1.8c0.4,0.1,0.8,0.3,1,0.2
	c0.2-0.2,0.3-0.6,0.4-1c0-0.8-0.4-1.6-1.3-2.4c0.1-0.3,0.3-0.7,0.5-1.2c0.2,0.1,0.4,0.2,0.4,0.3c0.2,1,0.5,2.1,0.7,3.1
	c0.1,0.5,0.1,0.9,0.2,1.5c0.6,0,1.1-0.1,1.7-0.1c0.2-1.2-0.6-1.9-0.9-2.8c-0.4-0.9-0.8-1.7-1.2-2.6
	C129.8,164.7,129.9,164.6,129.9,164.5z"/>
<path class="st0" d="M233.9,149c0,0.6,0.1,1.3,0.1,2.1c0.5-0.2,1-0.5,1.5-0.7c-0.2-0.6-0.3-1-0.5-1.5c1-1.4,2.6-1.4,4-1.9
	c0.2-0.5,0.4-1,0.6-1.6c0.7,1.2,0.6,1.3-0.1,1.9c-0.4,0.4-0.8,0.9-1.1,1.5c-0.3,0.7,0.2,1.2,0.9,1.1c0.6-0.1,1.1-0.3,1.7-0.4
	c-0.1,1.2-0.5,1.8-2.8,4.2c0.2,1,0.4,2.1,0.8,3.1c0.1,0.4,0.6,0.7,1,0.8c0.8,0.3,1.5,0.8,2,1.7c-1.7,0.8-3-0.7-4.5-0.5
	c0-0.9,0-1.7,0-2.5c1-0.9,1-1.2-0.1-2.1c-1.1,0.3-0.3,1.4-0.8,2c-0.5,0.5-0.4,1.6-0.5,2.5c-0.1,0.8-0.1,1.6-0.2,2.5
	c0.4,0,0.7-0.1,1.1-0.1c-0.5,1.2-0.6,1.3-1.3,1c-0.7-0.3-1-1-0.7-1.8c0.4-1,0.3-1.3-0.7-1.5c-0.7-0.2-1.3-0.3-2-0.3
	c-1.5-0.2-2.6-1.4-1.7-3.3c0.5-1,1.1-1.9,1.8-2.7c0.5-0.7,1-1.3,0.8-2.3c-0.1-0.3,0.2-0.8,0.3-1.2C233.6,149,233.8,149,233.9,149z"
	/>
<path class="st0" d="M186.9,221.7c-0.6,0.5-1.1,1-1.6,1.4c-0.1-0.3-0.2-0.8-0.3-1.4c-0.1,0-0.2,0-0.3,0c-0.7,1.2-1.4,2.4-2.2,3.6
	c-0.1,0-0.1,0-0.2,0c0-0.5,0-1-0.1-1.5c-0.1-1.6-0.4-2-1.9-2.3c0,0-0.1,0-0.1,0c-0.5-0.1-1.1,0-1.2-0.6c-0.2-0.7,0.2-1.2,0.7-1.6
	c1.9-1.6,3.7-3.2,5.7-5c0.1,0.7,0.1,1.2,0.2,1.5c2.9,0,5.7-0.7,8.6,0.7c0.1-0.6,0.2-1,0.3-1.7c-0.5,0.2-0.8,0.4-1.1,0.5
	c0.1-1.9,0.9-2.2,2.5-1l0,0c-0.1,0.4-0.2,0.8-0.2,1.1c-0.1,1-0.4,1.6-1.6,1.3c-0.1,1.6-0.9,2.3-2.2,2.5c-0.4,0.1-0.7,0.4-1.1,0.8
	c-0.5,0.5-1.2,0.9-1.8,1.2C188.4,221.4,187.6,221.6,186.9,221.7c0.8-1,0.6-2.1,0.4-3.3c-0.1-0.3-0.4-0.5-0.5-0.7
	c-0.2,0.3-0.5,0.5-0.6,0.8c-0.1,0.7-0.2,1.4-0.2,2.2C185.9,221.5,186.2,221.8,186.9,221.7z"/>
<path class="st0" d="M115.2,94.6c-0.1-0.4-0.2-0.6-0.3-0.8c0-0.2,0-0.4-0.1-0.9c-0.4,0.6-0.6,0.9-0.7,1.1c-1.3-0.1-2.5-0.3-3.6-0.4
	c-0.8-0.1-1.4,0.1-1.6,1.3c-1-1.6-1.5-3.1-2-4.8c1.5-0.2,1.5-1.6,2-2.6c0.3-0.6,0.5-1.3,0.7-2.1c0.8,0.6,1.5,0.3,1.9-0.2
	c1-1.1,1.9-0.9,2.9,0c0.7,0.7,1.7,1,2.4,1.6c1.5,1.2,1.7,2.7,0.5,4.1c-0.5,0.6-1,1.2-1.4,1.9C115.5,93.4,115.4,93.9,115.2,94.6z"/>
<path class="st0" d="M210.3,14.7c0.4,1.5,0.7,1.9,1.5,2c0.6,0.1,0.8-0.1,1.4-1.6c0.5,0.9,0.4,1.8,0.6,2.8c0.9-0.7,0.2-1.8,0.8-2.5
	c1,0.8,1.9,1.6,2.9,2.5c0.4,0.4,0.4,0.8,0.1,2.1c-1,0.1-1.2-1.2-2.1-1.5c-0.3,1.2-1.3,1.7-2.7,1.8c0.3,0.6,0.5,0.9,0.7,1.4
	c-0.4,0.2-1.1,0-1.2,0.8c-0.1,0.7,0.2,1.3,0.7,1.8c0.7,0.7,0.9,1.2,0.5,2.2c-0.3,0.7-0.4,1.1,0.2,1.9c0.8,0.9,1.6,2.2,0.7,3.7
	c-0.3-0.1-0.7-0.2-1-0.3c-0.7,1,0,1.9,0.2,2.9c-0.6-0.1-1.2-0.1-1.8-0.2c-0.1-0.3-0.1-0.6-0.3-1c-0.5-1.3-0.8-1.4-2.1-0.9
	c-0.1-0.7-0.3-1.4,0.4-2c0.4-0.3,0.4-0.8-0.1-1c-0.5-0.3-0.5-0.8-0.3-1.1c0.1-0.3,0.5-0.5,0.8-0.5c0.5,0,0.9,0.2,1.4,0.3
	c0.2,0.1,0.5,0.1,1,0.1c-1.2-1.4,0.2-2.3,0.2-3.6c-0.9-0.2-1.4-0.8-1.5-1.9c-0.6,0.3-1.1,0.5-1.5,0.7c-0.5-0.3-1-0.6-1.5-1
	c-0.3-0.2-0.5-0.6-0.6-1c0-0.2,0.2-0.5,0.4-0.7c0.4-0.3,0.7-0.1,0.9,0.3c0.1,0.1,0.2,0.2,0.3,0.3c0.6-0.9-0.6-1.1-0.5-1.8
	c0.3-0.1,0.6-0.2,0.9-0.2C210,17.7,210.2,16.2,210.3,14.7z"/>
<path class="st0" d="M242.8,51.5c-0.1,0.3-0.2,0.4-0.3,0.7c-0.1-0.3-0.2-0.7-0.4-0.8c-0.3,0-0.6,0.1-0.8,0.3c-0.8,0.5-1.6,1-2.4,1.4
	c-0.4,0.2-0.9,0.4-1.7,0.7c0.3-1,0.6-1.8,0.8-2.5c1.2-0.4,1.4-0.7,1.3-2c-0.1-0.6-0.2-1.1-0.3-1.7c-0.1-0.4-0.1-0.8-0.1-1.3
	c1.2,1,0.8,2.9,2.1,4.1c0.1-0.5,0.2-0.8,0.2-1.1c-0.2-0.7-0.5-1.5-0.7-2.2c-0.3-1.1-0.9-2.2,0.4-3.1c0.1-0.1,0.3-0.4,0.2-0.5
	c-0.4-1.5,0.8-2.1,1.4-3.2c0.8,0.4,1.5,0.7,2.2,1c0.1-0.2,0.2-0.4,0.3-0.7c1,0.1,1.5,0.9,2.3,1.6c-0.5,1-0.4,2.5-2.1,2.8
	c0.6,1.1,1.1,2.1,1.6,3.1c-0.6,0.5-1.2,1-1.9,1.5c0.1,1.2,0,2.5-1.2,3.2C243.5,52.5,243.2,52.1,242.8,51.5z"/>
<path class="st0" d="M240.3,247.2c-0.6,0.2-0.9,0.3-1.4,0.4c0.1,0.4,0.1,0.8,0.2,1.5c1.2-1,2.4-0.7,3.5-0.7c0.4,0,0.9,0.2,0.8,0.7
	c-0.1,0.3-0.4,0.7-0.7,0.7c-0.9,0.2-1.9,0.5-2.7-0.3c-0.1-0.1-0.5,0-0.8,0c0.2,1,0.6,1.5,1.5,1.7c0.7,0.2,1.5,0.3,2.2,0.7
	c1.2,0.6,1.4,1.2,1.3,2.9c-2.4,1.1-4.9-0.2-7.6,0.1c0.9-0.6,1.6-1,2.2-1.4c0.1-0.6-0.1-0.9-0.6-0.9c-0.5,0-0.9,0-1.4,0
	c-0.5,0-1-0.1-1.5-0.2c0-0.6,0-1,0.1-1.6c-0.8-0.2-1.5-0.4-2.5-0.7c0.8-1.1,1.6-2.1,2.3-3.1c0.1-0.1,0.2-0.2,0.3-0.3
	c0.3-0.4,0.6-0.8,1-1.2c0.3-0.3,0.6-0.8,0.9-1c0.4-0.3,1-0.3,1.4-0.5c0.4-0.2,0.8-0.4,1.2-0.5c0.5-0.2,0.9-0.3,1.6-0.5
	c-0.5,0.5-0.9,0.9-1.4,1.4c1.4,0.4,2-0.9,3.3-1c-0.4,0.4-0.5,0.6-0.7,0.8c-0.7,0.5-1.3,1-2,1.4C240.3,246,240.1,246.5,240.3,247.2z"
	/>
<path class="st0" d="M103.6,199.6c0.3-4.2,0.7-8.4,1-12.7c0.7,0.9,1.4,1.8,2.2,2.7c0.3-0.6,0.6-1.1,1-1.7c-0.1-0.2-0.2-0.5-0.4-0.7
	c-0.4-0.5-0.4-0.9,0.1-1.4c0.3-0.3,0.5-0.6,0.8-1c1.4,1.1,2.6,2.6,3.2,4.4c0.2,0.6,0.3,1.2,0.3,1.8c0,1.3-0.3,1.7-1.5,2.1
	c-0.3,0.1-0.7,0.2-1.1,0.4c0,0.4,0,0.8,0,1.1c-1.3,1.2-2.7,1.6-4.5,1.3c0,1.1,0,2.1,0,3.1C104.6,199.6,104.4,199.9,103.6,199.6z"/>
<path class="st0" d="M96.6,219.5c-0.3,1.6-0.4,3.3,0.3,4.9c0.3,0.7,0.7,0.8,1.3,0.4c0.2-0.1,0.4-0.3,0.6-0.4
	c0.9,1.2,1.8,2.3,2.8,3.5c-1,0.1-1.2,0.9-1.3,1.7c-0.1,0.6-0.1,1.3,0.5,1.7c0.8-0.3,1.5-0.7,2.5-1.2c-0.2,0.8-0.2,1.3-0.4,1.8
	c-0.1,0.5-0.3,1-0.5,1.5c-0.2,0.6-0.4,1.1-1.1,1.1c0-0.5,0-0.9,0-1.5c-1.5-0.3-2.5-1.5-3.2-2.8c-0.5-0.8-0.7-1.9-1.1-2.8
	c-1.2-2.6-2.4-5.1-3.6-7.7c-0.3-0.7-0.6-1.2-1.4-0.5c-0.1-1.8,1.2-2,2.1-2.6c0.5-0.3,1.1-0.5,1.7-0.8c0.8,1.1,1.7,2.2,2.6,3.3
	c0.3,0.4,0.6,1,0.8,1.5c0.2,0.4,0.4,0.8-0.2,1.1c-0.5,0.3-1.2,0.1-1.4-0.4c-0.2-0.3-0.2-0.7-0.3-1.1c-0.1-0.3-0.2-0.7-0.3-1
	C96.9,219.5,96.7,219.5,96.6,219.5z"/>
<path class="st0" d="M211.6,282.8c0.6,0.6,1.3,1.1,1.9,1.8c1.1,1.2,2.1,2.4,3.1,3.6c0.6,0.8,0.5,0.9-0.2,1.8
	c-0.3-0.2-0.7-0.4-0.9-0.7c-0.6-1.1-1.5-1.1-2.5-1.1c-0.5,0-1.1-0.1-1.6,0c-1.9,0.4-3-0.8-4.2-2c-1.1-1.1-2.2-2.1-3.3-3.2
	c-0.1-0.1-0.3-0.3-0.4-0.4c-0.9-1-1-2.2-0.2-3.3c0.3-0.5,0.7-0.4,1.1-0.1c0.9,0.7,1.7,1.4,2.6,2.1c1.5,1.3,3,2.6,4.5,3.9
	c0.1,0.1,0.5,0.2,0.6,0.1c0.1-0.2,0.3-0.5,0.2-0.7c-0.2-0.6-0.5-1.1-0.8-1.6C211.5,282.9,211.5,282.9,211.6,282.8z"/>
<path class="st0" d="M179.2,258.1c-0.3-0.4-0.5-0.9-0.8-1.2c-1.4-1.2-1.1-2.7-0.9-4.3c1,0.1,0.5,1,1,1.5c0.2-0.6,0.3-1.1,0.5-1.7
	c0.6,0.3,1.3-0.4,2,0.2c0.6-0.4,1.3-0.7,1.8-1.1c0.3-0.3,0.5-0.9,0.7-1.5c0.3,0,0.7-0.1,1,0c0.7,0.1,0.9,0.5,0.8,1.2
	c-0.1,0.4-0.2,0.7-0.4,1.1c-0.1,0.2-0.2,0.3-0.3,0.5c-0.2,0.5-0.4,1,0.1,1.5c0.1,0.1,0.4,0.1,0.5,0.1c0.6-0.2,0.5-0.7,0.5-1.2
	c0-0.2,0-0.5,0-0.7c0-1,0-1,1.1-1.5c-0.2,0.5-0.3,0.9-0.5,1.3c0.3,0.2,0.6,0.4,0.8,0.6c0.9,0.8,0.8,1.7-0.1,2.4
	c-0.7,0.6-1.4,1.3-2.4,0.8c-0.4-0.2-0.7,0.3-0.6,0.7c0,0.2,0.3,0.4,0.3,0.6c0.2,0.6-0.1,1-0.6,1c-0.4,0-0.9-0.1-1.6-0.2
	c-0.1,0.1-0.2,0.5-0.5,0.9c-0.3-0.6-0.5-0.9-0.6-1.3c-0.1,0.2-0.3,0.3-0.4,0.5C179.8,257.6,179.8,257.6,179.2,258.1z"/>
<path class="st0" d="M113.8,25c0.2,0.5,0.4,1.2,0.6,1.8c0.2,0.7-0.1,1.8-0.6,2.1c-0.2,0.1-0.5,0.2-0.6,0.1c-0.2-0.1-0.3-0.4-0.3-0.6
	c0.1-1.6,0.1-1.6-0.9-2.6c-0.5,0.7-0.5,0.7-0.6,2.2c-0.9-0.1-0.9-0.1-0.9-1c0-0.8,0.1-1.7-0.6-2.6c-0.3,0.9-0.6,1.6-1,2.5
	c-1.2-1.2-0.3-2.6-0.8-3.8c-0.2,0.1-0.4,0.2-0.7,0.3c-1-0.9-1.2-2.2-1-3.5c0-0.3,0.3-0.8,0.5-0.9c0.3-0.1,0.7,0.1,0.9,0.3
	c0.3,0.4,0.6,0.8,1.1,0.7c0.2,0,0.5-0.2,0.6-0.4c0.1-0.1,0-0.5-0.1-0.6c-0.3-0.4-0.6-0.8-1-1.3c1.2-0.2,2.1-0.5,2.7,0.7
	c0.2,0.3,0.7,0.4,1.1,0.5c1.2,0.5,1.3,0.7,0.8,2c-0.3,0.6-0.3,0.7-0.1,1.6c0.5-0.4,0.9-0.8,1.5-1.3c0.4,1.1-0.2,1.8-0.6,2.5
	c-0.1,0.2-0.3,0.3-0.4,0.4c-0.3,0.2-0.5,0.5-0.2,0.8C113.2,25.1,113.5,25,113.8,25z"/>
<path class="st0" d="M205.1,40.5c-1.1-1.3-1.4-1.4-2.8-0.8c0,0.3,0.1,0.7,0.1,1.1c0.1,0.4,0.1,0.7,0.2,1.1c-0.2,0-0.3,0.1-0.5,0.1
	c-2.4-0.1-2.3-0.2-3.2-2.3c-0.6-1.5-1.1-3-1.7-4.6c0.8-0.6,0.8-0.6,2-0.5c-0.1,1.2,1,1.1,1.8,1.6c-0.4-1.3-0.7-2.5-1.1-3.7
	c-0.2-0.6-0.1-0.9,0.2-1.1c1.3,0.8,2.9,1.1,4.1,2.2c-0.8,1,0.5,1.7,0.3,2.7c0.5,0.1,0.9,0.2,1.4,0.3
	C205.7,37.9,205.4,39.2,205.1,40.5z"/>
<path class="st0" d="M59,91.3c-0.6-0.2-1.2-0.5-1.9-0.5c-0.9,0-0.6,1.2-1.3,1.6c-0.4,0-0.9,0-1.5,0C54,93.5,53.1,94,52,94.3
	c0.3-0.9,0.7-1.9,0.8-2.8c0.2-1,0.2-2,0.1-3c0-0.3-0.6-0.5-1.1-0.9c0.1,1.7,0.1,3.1,0.2,4.5c-0.7,0.6-1.4,1.2-2.2,1.9
	c-0.1-1.4-0.1-1.4,1-1.9c0.7-0.3,0.8-0.5,0.6-1.3c-0.1-0.4-0.3-0.9-0.5-1.3c-0.2-0.6,0-1.5,0.5-2c0.6-0.5,1.1-0.4,1.5,0.2
	c1.2-0.8,2.5-1.5,3-2.9c0.8-0.3,1.5-0.5,2.4-0.8c0.3,0.7,0.7,1.5,1.1,2.4c-0.5,0.5-0.4,1.1-0.1,1.7c0.3,0.5,0.2,0.9-0.1,1.5
	C59,90.1,59,90.8,59,91.3z"/>
<path class="st0" d="M60.9,199.9c0.4,0.3,0.7,0.5,0.9,0.7c0.7-0.4,0.8-0.9,0.8-1.7c-0.1-1,0.2-1.8,1.3-2.3c-0.1,0.3-0.2,0.6-0.2,0.9
	c0,0.3-0.1,0.8,0,0.8c1.1,0.3,0.5,1.4,1,2.2c0.3-0.2,0.6-0.5,0.9-0.7c-1-1.8-1-1.9-0.5-3.6c0.4,0.1,0.7,0.3,1.2,0.4
	c0-0.4,0.1-0.8,0.1-1.2c0.1,0,0.2,0,0.3,0.1c0.5,0.9,0.4,3.5-0.1,4.4c-0.2,0.4-0.4,1-0.3,1.3c0.3,0.9,0.2,2.2,1.6,2.4
	c0.4,0.1,0.7,0.9,1.2,1.5c-0.1,0.9,0,2-1.1,2.7c-0.7-1-0.2-2.2-0.6-3.5c-0.5,1.3-0.9,2.5-1.5,3.8c-0.6-1.1-1.4-1.5-2.5-0.9
	c0-1,0.1-1.8,0.1-2.7c0.3,0,0.5,0.1,0.8,0c0.2-0.1,0.4-0.3,0.4-0.5c0-0.2-0.2-0.5-0.3-0.5c-0.3-0.1-0.6-0.1-0.9-0.1
	c-1.4,0-2.1-0.5-2.4-2C60.9,201.2,60.9,200.7,60.9,199.9z"/>
<path class="st0" d="M207,80.4c0.1,1.1-1,1.8,0,2.9c-0.5-0.2-0.7-0.2-1-0.3c-0.2,0.3-0.3,0.6-0.4,0.9c-0.3,0.7-0.5,1.4-0.8,2.1
	c-0.4,1-0.1,2,0.9,2.6c-0.2,0.6-0.4,1.2-0.6,2c-1-1.4-1.8-2.7-1.5-4.3c0.4,0.1,0.9,0.1,0.9-0.4c0.1-1,0-2.1,0.5-3.1
	c0.1-0.3-0.4-1-0.6-1.7c0.1-0.1,0.3-0.3,0.5-0.6c0.3-0.3,0.5-0.7,0.1-1c-0.3-0.3-0.6,0-0.7,0.3c0,0.1-0.1,0.1-0.2,0.2
	c-1.1-0.8-1.2-2.7-2.9-2.5c0.9-2.6-0.7-3.3-2.6-3.8c0.7-1.1,0.4-1.8-0.4-2.4c-0.6-0.5-0.8-1.4-0.6-2.1c0.3-0.9,0.2-1.7,0-2.5
	c0-0.2,0-0.4,0.1-0.6c1.2,0.3,1.3,1.8,2.4,2.2c-0.4,0.3-0.5,0.5-0.8,0.6c-0.6,0.2-0.8,0.7-0.7,1.2c0.1,0.6,0.3,1.1,1,1.2
	c0.6,0.1,1.2,0.3,1.7,0.4c0.7,0.1,1.3,0.4,1.6,1.3c-1,0-1.7-1.3-2.9-1.1c0.3,2,1.1,2.9,2.7,3.2c0.4,0.1,0.7,0.3,1.2,0.5
	c0.4-0.4,0.8-0.9,1.2-1.4c0.5,0.5,0.1,0.9,0,1.4c-0.4,0.9-0.6,1.7-0.3,2.7c0.1,0.3,0.3,0.8,0.5,0.8c0.8,0,0.6,0.8,0.9,1.3
	C206.2,80.4,206.6,80.4,207,80.4z"/>
<path class="st0" d="M71.7,111.5c0.2,1,0.4,1.7,0.6,2.5c-0.4,0-0.9-0.1-1.4-0.1c-0.1,1.3,1.3,1.2,1.3,2.3c0.1,0,0.3,0.1,0.4,0.1
	c0.1-0.4,0.2-0.7,0.3-1.1c0.1,0.1,0.3,0.2,0.4,0.3c-0.2,0.3-0.3,0.6-0.5,0.9c-0.5,0.5-1.1,1-1.6,1.5c-0.6,0.6-1,1.4-1,2.3
	c0,0.7-0.2,1.4-0.2,2.2c0,0.5-0.2,0.8-0.5,0.8c-0.6-0.5-1-0.9-1.3-1.3c-0.2-0.2-0.4-0.3-0.4-0.5c-0.1-0.9-0.5-1.3-1.4-1.4
	c-0.5,0-0.6-0.5-0.1-1.6c0.3,0.1,0.6,0.2,0.9,0.3c0.9-0.6,1.8-1.1,2.3-2.1c0.2-0.5,0.4-1,0.5-1.5c0-0.3,0-0.7-0.2-0.8
	c-0.9-0.3-0.4-1.1-0.6-1.6c-0.3-0.9-1.7-0.4-1.8-1.6c0.7-0.6,0.8-1.6,1.5-2.4c0.5-0.6,0.7-0.3,1.2-0.1c-0.3,0.3-0.5,0.6-0.8,0.9
	C69.9,110.4,70.4,111.6,71.7,111.5z"/>
<path class="st0" d="M187.9,59.6c0.3-0.9,0.4-1.7,0.7-2.5c0.4-1,1-1.1,1.8-0.4c0.1,0.1,0.1,0.3,0.2,0.4c0.5,0.5,0.6,0.5,1.4-0.2
	c0.3,0.5,0.7,1.1,1,1.6c0.1,0.1,0.1,0.4,0.1,0.4c-0.4,0.5,0,0.8,0.1,1.2c0.6,1.3,0.7,1.4,2.1,1.2c0.2,0.8,0,1.5-0.8,1.9
	c-0.5,0.2-0.8,0.8-1.1,1.2c-0.3,0.4-0.6,0.5-1.2,0.2c0.1-0.3,0.2-0.6,0.4-1c-0.8-0.1-1.3,0.1-1.4,1c-0.1,0.4-0.3,0.8-0.4,1.3
	c-1.9,0.2-2.3-2.1-3.7-2.7c0.3,0,0.7-0.1,1-0.1c1.1,0,1.7-0.4,1.8-1.3c0.2-0.9-0.2-1.6-1.2-2.1C188.6,59.6,188.3,59.7,187.9,59.6z"
	/>
<path class="st0" d="M47.8,158c1,1.8,1,1.8-0.4,2.3c0,0.2,0,0.3,0.1,0.5c0.1,0.2,0.2,0.3,0.3,0.4c-0.2,0.3-0.4,0.6-0.6,0.9
	c0.8,0.5,1.5,0.9,2.1,1.5c0.4,0.4,0.8,0.9,1,1.5c0.6,1.5,1.1,3.1,1.6,4.6c-1,0.6-1,0.6-0.4,2.5c-1.2,0.4-1.8,0-1.8-1.3
	c0.1-1-0.2-1.9-0.8-2.7c-0.1-0.1-0.2-0.2-0.5-0.3c-0.1,0.4-0.2,0.8-0.3,1.2c-0.1-0.1-0.2-0.1-0.3-0.2c-0.2-0.6-0.4-1.2-0.6-1.9
	c-0.4,0.8-0.4,0.8,0,2.2c0.2,0.9,0.2,0.9-0.6,1.5C46,170,46,169,46,168.1c-0.1-1.7,0-3.4-0.1-5.1c-0.1-1.4,1.1-2.1,1.1-3.3
	C47.9,159.6,47.8,158.8,47.8,158z"/>
<path class="st0" d="M241.7,256.7c0.4,0.5,0.6,0.9,1,1.5c-1.5,0.2-1.3,1.6-1.6,2.6c-0.1,0-0.2-0.1-0.3-0.1c-0.1-0.5-0.2-1-0.3-1.6
	c-1-0.2-1.9-0.3-2.9,0.2c-0.3,0.2-0.7,0.2-1,0.2c-0.8,0.2-1.5-0.3-2.3,0c-0.7,0.3-1.5,0.1-2.3,0.2c-0.3,0-0.6,0.1-0.9,0.2
	c-0.2,0.8,0.3,1,0.8,1.3c0.5,0.3,1.1,0.5,0.9,1.5c-0.5-0.3-0.9-0.5-1.3-0.8c-0.3,0.2-0.7,0.4-1.1,0.6c-0.1-0.5-0.2-0.9-0.3-1.4
	c-0.9-0.3-1.3,0.3-1.8,0.8c-0.5-0.2-0.9-0.5-1.5-0.8c0.6-0.7,0.3-1.4,0.1-2c-0.2-0.7-0.4-1.3-0.6-2.1c0.3,0,0.5,0,0.7-0.1
	c0.1,0.5,0,1.2,0.2,1.5c0.4,0.4,1.1,0.4,1.6,0.6c0.3,0.1,0.7,0.1,1.1,0.2c0.4-0.8,0-1.4-0.5-2c-0.6-0.7-0.6-0.9-0.2-1.6
	c0.3-0.5,0.8-0.9,1.4-0.6c0.6,0.3,0.4,0.9,0.4,1.4c0,0.1,0,0.2,0,0.3c-0.3,1.7-0.1,2,1.5,2c0.6,0,1.2,0,1.8-0.1
	c0.2,0,0.6-0.1,0.7-0.3c0.4-0.8,1.1-0.8,1.8-0.8c1-0.1,2,0,3-0.1C240.5,257.5,241.3,257.6,241.7,256.7z"/>
<path class="st0" d="M180.9,175.1c-0.3-1.4,0-1.8,1.3-2c0.4,0,0.7,0,1.1,0c0.7,0,1.2,0.3,1.3,1.1c0.1,0.9,0.6,1.2,1.4,1.3
	c1,0.1,1.1,0.5,0.8,1.5c-0.2,0.8-0.5,1.6-0.7,2.4c-0.3,1-0.3,1-1.5,0.9c-0.5-1.5-0.5-1.5,0.7-2.2c-0.2-0.3-0.4-0.6-0.7-1.1
	c-0.8,1.1-1,2.2-1.3,3.2c-0.3,1-0.5,1.2-1.7,1.4c-0.2-0.3-0.4-0.6-0.6-0.9c-0.4,0.3-0.8,0.5-1.3,0.9c-0.1-0.4-0.1-0.7-0.1-1
	c0.4,0,0.6-0.1,1.1-0.1c-0.5-1.2-0.9-2.4-1.4-3.5C179.7,176,180.1,175.4,180.9,175.1c0.3,0.3,0.6,0.6,0.9,1
	c-1.1,0.7-1.1,0.9-0.5,1.9c0.8-0.7,2.1-1.1,2-2.8C182.5,175.2,181.7,175.1,180.9,175.1z"/>
<path class="st0" d="M176.8,264c0.1-0.3,0.3-0.7,0.4-1c0.1,0,0.3-0.1,0.4-0.1c1.5,0.7,1.9,1.5,1.5,3.2c-0.1,0.4-0.2,0.7-0.3,1.1
	c-0.1,0.5-0.5,1,0.3,1.3c0.1,0.1,0,0.7,0,1.1c-0.8,0.3-1.5,0.4-2.2-0.2c-0.2-0.2-0.5-0.3-0.7-0.4c-0.6-0.2-0.9,0-1,0.8
	c0,0.2,0,0.5-0.2,0.8c-0.2-0.3-0.5-0.6-0.7-0.9c0.4-0.5,0.8-0.9,1-1.5c0.2-0.6-0.1-1-0.8-1.1c-0.2,0.6-0.4,1.1-0.6,1.8
	c-0.9-0.9-1-1.7-0.5-3.2c0-0.6-0.2-1.2-0.1-1.7c0.1-0.7,0.4-1.3-0.4-1.7c-0.1-0.1-0.1-0.7,0-1c0.1-0.4,0.5-0.7,0.8-1
	c1,0.9,0.3,2.2,0.8,3.2C175.3,263.7,176,263.8,176.8,264z"/>
<path class="st0" d="M136.1,270.8c-0.6,0.2-1.1,0.6-1.7,0.7c-1.3,0.2-2.2-0.7-2.1-2c0.2-1.9,0.1-2-2.1-1.4c0.6-0.7,1-1.1,1.5-1.5
	c0.4-0.4,1-0.6,1.4-1.2c-0.3-0.1-0.5-0.2-0.9-0.3c0-0.3,0.1-0.5,0.2-0.8c-0.7-0.6-0.9,0.4-1.6,0.5c0-0.5-0.1-0.9,0-1.2
	c0.4-1.6,0.4-1.6,0.1-3.1c0.8,0.6,0.8-1.1,1.6-0.4c-0.1,0.6-0.1,1.3-0.2,2.1c0.5,0.9,1.9,1.4,1.7,3c0.1,0,0.4,0.1,0.6,0.1
	c0.8,0.3,1,0.6,0.9,1.6c-0.1,0.6,0,1.2,0,1.8c0.1,0,0.2,0,0.3,0c0-0.4,0-0.7,0-1.2c0.5,0,0.9,0,1.4,0c-0.7,0.8-0.7,0.8-0.3,1.8
	c0.3,0.8,0.9,1.7,0,2.6C136.6,271.5,136.4,271.2,136.1,270.8z"/>
<path class="st0" d="M247.3,159.7c-0.6,0.1-1.2,0.3-1.7,0.4c-0.2-1.1,0.8-0.8,1.3-1.4c-0.3-1.1-0.7-2.3-1.1-3.6
	c0.4,0.1,0.7,0.2,1.2,0.3c0.1-0.5,0.2-0.9,0.3-1.4c0,0,0.1,0,0.1,0c0,0.6,0,1.1,0,2c0.4-0.6,0.6-0.9,0.8-1.3c0.6-1.4,0-2.4-1.4-2.7
	c-1-0.2-1.5-0.7-1.6-1.8c0-0.2-0.1-0.4,0-0.5c0.5-1.3,0.5-1.3,0.4-2.5c0.3-0.3,0.7-0.6,1.1-0.9c0.5,0.3,0.7,0.5,0.4,1
	c-0.1,0.2-0.3,0.3-0.4,0.4c-0.7,1.1-0.5,1.7,0.8,1.9c-0.3,0.2-0.6,0.3-0.8,0.5c-0.1,0.2,0,0.6,0.1,1.1c1.2-0.4,1.8-1.3,2.6-2.2
	c0.1,0.2,0.3,0.4,0.4,0.6c0.7,1.3,0.6,1.3,1.9,0.7c0.1-0.1,0.3-0.1,0.7-0.1c-0.2,0.4-0.2,0.6-0.4,0.7c-0.8,0.5-0.8,1.2-0.7,2
	c0.2,1.1,0,1.8-0.9,2.3c-0.9,0.4-0.6,1.3-0.7,2c-0.8,0.6-1.3-0.1-2-0.8C247.5,157.6,247.4,158.6,247.3,159.7z"/>
<path class="st0" d="M196.4,278.3c0.4,0.8-1.3,1-0.5,2c0.3-0.2,0.6-0.5,0.9-0.7c0.4,0.5,0.1,0.8-0.2,1.2c-0.7,1-0.5,1.9,0,3.1
	c0.7-0.6,1.2-1.1,1.9-1.8c-0.1,0.5-0.2,0.7-0.2,1c-0.1,0.4-0.2,0.8-0.2,1.1c0,1.2,0.1,2.5,0.2,3.9c0.2,0.1,0.6,0.4,1.1,0.7
	c-0.5,0.4-1,0.4-1.3,0.1c-0.6-0.5-1.3-0.7-1.5-1.6c-0.1-0.5-0.5-0.9-0.8-1.3c-0.5-0.6-0.8-0.6-1.4-0.1c-0.2,0.1-0.3,0.3-0.4,0.5
	c-0.1-0.2-0.2-0.2-0.2-0.3c0.1-1.2-0.5-1.7-1.5-1.8c-0.7-0.1-1.3-0.4-1.5-1.2c-0.1-0.3,0-0.6,0-1.2c0.6,0.1,1,0.2,1.4,0.3
	c1.1,0.2,1.5-0.1,1.7-1.3C194.1,279.5,195.2,278.3,196.4,278.3z"/>
<path class="st0" d="M73.9,47.1c0.6,0.3,1.1,0.7,1.4,0.1c0.2-0.3,0.3-1,0.2-1c-0.4-0.2-0.9-0.3-1.5-0.4c-0.1-0.3-0.3-0.7-0.4-1.2
	c-0.3,0-0.6,0-0.8,0c-0.5-0.5-0.9-1-1.3-1.3c-0.3-0.2-0.7-0.2-1.2-0.1c1,1,1,2.2,0.8,3.5c-0.2,1.4,0.1,2.5,1.5,3
	c0.6,0.2,0.5,0.3,0.6,1.4c-0.8-0.6-1.6-1-2.2-1.6c-0.8-0.7-1.4-1-2.3,0c-0.5-0.8-0.1-1.3,0.1-1.8c0.1-0.3,0.4-0.5,0.6-0.8
	c0.3-0.4,0.3-0.8-0.1-1.1c-0.4-0.4-0.9-0.7-1.3-1c-0.4-0.3-0.7-0.6-0.4-1.1c0.1-0.2,0.6-0.3,0.9-0.3c0.3,0,0.6,0.1,0.9,0.2
	c0.2-2.3,0.8-2.9,2.8-2.3c-0.4,1.8,1,2.2,1.9,2.9c0.4-0.2,0.8-0.5,1.3-0.6c0.9-0.3,1.3,0.2,1.2,1.2c0,0.5,0.1,1.1,0.3,1.9
	c-0.3,0.9-1.4,1.1-2.2,1.8c-0.1,0.1-0.6-0.1-0.7-0.2C73.8,47.9,73.9,47.6,73.9,47.1z"/>
<path class="st0" d="M185.3,191.3c0.1,0.5,0.1,0.9,0.2,1.4c-0.1,0-0.9-1.6-1-1.8c-0.8,0.3-1.2,0.8-1.4,1.8c-0.2-0.5-0.5-1-0.6-1.2
	c0.3-0.9,0.5-1.5,0.8-2.2c0.8-0.1,1,0.7,1.4,1.2c0.4-0.3,0.7-0.6,1.1-0.7c0.7-0.3,1.1-0.7,1.2-1.5c0-0.4,0.5-0.9,0.8-1.3
	c0.4-0.4,0.9-0.6,1.4-1c0.2,0.5,0.5,1,0.6,1.5c0.1,0.4,0.1,0.8,0.6,0.8c0.6,0,0.6-0.4,0.7-0.9c0-0.1,0.1-0.2,0.3-0.5
	c0.4,0.2,0.9,0.4,1.5,0.8c-1.4,0.8-1.7,2.2-2.3,3.3c-0.3,0.6-0.7,1-1.3,1.1c0-0.6,0-1.3-0.1-1.9c0-0.1-0.5-0.1-0.8-0.2
	c-0.2,0.9-0.4,1.6-0.5,2.4c-0.1,0.8,0,1.5,0.1,2.3c-1.3,0.2-0.3,1.5-0.8,2.3c-0.5-0.3-0.5-0.8-0.4-1.3c0.2-0.7,0.3-1.4,0.4-2.1
	c0.2-1.3,0.1-1.5-1.1-1.8C185.9,191.6,185.7,191.5,185.3,191.3z"/>
<path class="st0" d="M85.2,62.4c0.7-0.3,1.1-0.4,1.5-0.6c0.2,1,0.3,1.9,0.5,2.8c0.6-0.6,0.6-0.6,0.3-1.5c0.3,0,0.5,0,0.9,0
	c-0.1,0.8,0,1.6-0.9,1.9c-0.5,0.2-0.5,0.7-0.5,1.1c0,1.2,0,2.3,0,3.6c-0.8-1.1-0.7-2.7-2-3.5c0.4-0.9,0.8-1.9,1.3-3.1
	c-1.8-0.6-3-2.3-5.2-2c0.9-1.2,0.3-2.2,0-3.3c-0.3-1.5-0.1-2.2,1.3-3c-0.1,1.3-0.1,1.3,1.2,1.6c0.5,0.8,0.9,1.6,1.4,2.4
	c0.4,0.6,0.8,1.2,0.2,1.9C85.1,61.1,85.3,61.7,85.2,62.4z"/>
<path class="st0" d="M45,120.5c0.8-0.2,1.3,1.4,2.1,0.3c0.2,1.6,1.9,1.1,2.4,2.2c0,0.6-0.2,1.1-0.8,1.4c-0.8,0.4-0.8,0.9-0.1,1.5
	c0.3,0.2,0.6,0.4,0.9,0.6c0.4,0.3,0.6,0.8,0.2,1.1c-0.5,0.4-0.4,0.6-0.2,1.1c0.1,0.5-0.1,1-0.2,1.7c-0.9-0.5-1.7-1-2.7-1.6
	c-0.1-0.5-0.3-1.2-0.5-2c-0.3,0.1-0.5,0.2-0.7,0.3c-0.8-1.9-0.3-2.8,1.7-3.3c0-0.2,0.2-0.5,0.1-0.8c-0.1-0.2-0.3-0.4-0.5-0.5
	c-0.1,0-0.5,0.2-0.5,0.4c-0.2,0.9-0.9,1-1.5,1.3C43.9,122.9,44.5,121.7,45,120.5z"/>
<path class="st0" d="M180.6,279.7c-0.9,2.2-1.5,2.3-3.1,1.9c-0.3-1.6-0.4-3.2,0.2-4.8c0.5-1.2,0.1-2.2-1.1-2.9
	c-0.1,0.4-0.2,0.8-0.3,1.2c-0.7-1.3-0.7-2.1-0.1-4.5c0.7,0.4,1.4,0.6,2,1.1c0.3,0.3,0.3,0.9-0.2,1.2c-0.4,0.2-0.5,0.5-0.3,1.1
	c0.7-0.1,1.3-0.2,2-0.2c0.3,0,0.7,0.1,1,0.2c0.8,0.4,1.2,1.2,1.4,2.3c-1.2-0.4-1.7,0.2-2.1,1.1C179.6,278.3,179.6,278.3,180.6,279.7
	z"/>
<path class="st0" d="M82.2,78.2c0,1.8,0.5,2.7,1.9,3.4c0.8,0.4,1.3,2.1,0.8,2.8c-0.1,0.1-0.3,0.1-0.6,0.3c0-0.7,0.1-1.1,0.1-1.7
	c-1.2-0.2-2.5-0.4-3.8-0.6c-0.1,0.2-0.2,0.6-0.3,1c-0.3,0-0.6,0-1.1,0c0.2-0.6,0.4-1.2,0.6-1.7c0.1-0.6,0.3-1.2,0.3-1.8
	c0-0.9-0.5-1.2-1.3-0.8c-0.4,0.2-0.7,0.6-1.1,0.8c-0.4,0.2-0.8,0.3-1.3,0.5c-0.3-1.7-0.3-3.2,0.5-4.7c0.2,0.1,0.3,0.1,0.4,0.2
	c0.2,0.1,0.3,0.2,0.5,0.3c1-0.9,0.2-2,0.7-3c0.2,1,0.5,2,0.7,3c0.2,0.9,0.5,1.7,1,2.1c0.6,0.1,1,0.2,1.4,0.1
	C81.8,78.5,82,78.3,82.2,78.2L82.2,78.2z"/>
<path class="st0" d="M260.6,5.9c0.7,0.1,0.6,0.6,0.6,0.9c0.1,0.8,0.1,1.6,0.2,2.4c0.1,1-0.5,1.7-1.5,1.8c-1.1,0.2-1.2,0.2-1,1.5
	c0.2,1.1,0.4,2.2,0.6,3.2c-1.3,0.3-1.7,0-1.6-1.2c0.1-0.8-0.3-1.2-0.7-1.7c-0.6-0.8-1.1-1.5-0.9-2.6c0.1-0.7-0.3-1.2-0.9-1.5
	c-0.4-0.2-0.7-0.5-1.2-1c0.8-0.2,1.2-0.4,1.8-0.6c0.1,0.3,0.2,0.6,0.3,0.8c0.2,0.2,0.4,0.5,0.7,0.6c0.2,0,0.5-0.3,0.6-0.5
	c0.1-0.6,0.5-0.9,1-0.9c0.2,0,0.4-0.4,0.5-0.6c0.2-0.4,0.4-0.7,0.6-1.2c0.3,1-0.6,2.3,0.9,2.8C261.4,7.6,260.6,6.8,260.6,5.9z"/>
<path class="st0" d="M178.7,68.6c0.5-0.8,0.8-1.3,1.2-2c0.2,0.2,0.3,0.3,0.4,0.4c0.7,0.9,0.8,0.9,1.6,0.2c0.3-0.3,0.7-0.5,1.1-0.7
	c-0.1,0.6-0.4,1.1-0.2,1.4c0.5,0.9,0.1,1.5-0.4,2c-0.7-0.3-1.4-0.6-2.2-0.9c0,0.7,0,1.1,0,1.5c-0.3,0.1-0.6,0.1-0.8,0.1
	c0,0.6,0.1,1.1,0.1,1.7c-0.1,0-0.2,0.1-0.3,0.1c-0.7-0.9-1.4-1.9-2.1-2.8c-0.1,0-0.2,0.1-0.3,0.1c0,0.6,0.1,1.2,0.1,1.8
	c-0.6,0.2-0.9-0.1-0.8-0.6c0.1-1.1-0.4-1.6-1.2-2.1c-0.6-0.4-1.3-0.8-1.8-1.2c-0.4-0.3-0.7-0.7-1.2-1.3c0.6-0.1,0.9-0.1,1.2-0.1
	c0.4,0.1,0.7,0.3,1,0.4c0.9,0.3,1.4,0,1.6-0.9c0.1-0.5,0.2-0.9,0.4-1.5c0.6,0.3,0.4,0.7,0.3,1.1c-0.2,1-0.3,1.9,0.4,2.8
	C177.4,67.9,178.2,67.6,178.7,68.6z"/>
<path class="st0" d="M126,172.8c0.1-1.7-1.2-0.6-1.7-1.2c-0.8-2.4-0.6-4.8-0.2-7.3c0.9,0.9-0.1,1.5,0,2.2c0.1,0.8,0.7,1.4,0.5,2.3
	c-0.2,0.7,0.1,1.5,0.1,2.4c0.4-0.2,0.6-0.3,0.9-0.4c0.1,0.3,0.3,0.6,0.6,1c0.3-0.4,0.6-0.8,0.9-1.2c0.1,1.4-0.7,2.7,0,4
	c0.1,0.2,0.3,0.3,0.6,0.5c0.3-0.4,0.5-0.8,0.8-1.1c0.3-0.2,0.7-0.3,1.1-0.5c0.5,1.3,0.5,1.3-0.5,1.7c-0.5,0.2-0.5,0.2-0.8,1.4
	c-0.3-0.7-0.4-1.4-1.3-1.5c-0.2,0-0.3-0.7-0.7-1c0.1,1,0.2,2,0.3,3.1c-0.3-0.1-0.5-0.2-0.8-0.2c-0.2,0.3-0.3,0.7-0.5,1.1
	c-0.7,0-0.9-1.1-0.4-2.5c-1-0.4-1-0.4-2,0.3c0-1.5,0-3,0-4.7c0.5,0.6,0.8,1.2,1.3,1.4C124.8,172.9,125.4,172.8,126,172.8z"/>
<path class="st0" d="M20.6,92.4c-0.2-0.1-0.3-0.2-0.5-0.3c0.6-0.4,0.6-0.4,1.4-0.2c-0.1,1.1-0.3,2.2-0.4,3.5c0,0,0.1,0.2,0.2,0.4
	c1.2,1.2,0.9,2.5,0.4,3.8c-0.4,1.1-0.9,2.2-1.2,3.4c0.3-0.2,0.5-0.5,0.9-0.8c0,0.3-0.1,0.4-0.1,0.5c-0.3,0.8-1,1.4-0.7,2.6
	c-0.6-0.5-1.3-0.9-1.7-1.6c-0.4-0.7-1-1.2-1.7-1.6c-0.6-0.4-1.2-1-1.8-1.6c0.3-0.7,0.5-1.2,0.9-1.9c0.3,0.8,1.1,1,0.9,1.9
	c0,0.2,0.4,0.5,0.6,0.6c0.4,0.2,0.8,0.3,1.4,0.4c-0.3-2,1.4-2.3,2.4-3.2c0-0.8-0.6-1-1.2-1.3c-0.5-0.3-0.9-0.7-1.5-1.2
	C19.4,94.7,20,93.6,20.6,92.4z"/>
<path class="st0" d="M51.4,119.2c-0.6,0.4-1.4-0.6-2.1,0.1c0.2,0.5,0.5,1,0.6,1.5c0,0.2-0.3,0.5-0.6,1c-0.3-1.2-0.8-2.1-2-1.8
	c-0.1-0.4-0.1-0.8-0.2-1.1c-0.3-1.6-0.4-1.7-1.9-1.4c-0.1-0.5,0.1-0.8,0.5-1c0.6-0.5,1.3-0.9,1.8-1.5c0.4-0.3,0.6-0.8,0.9-1.4
	c0.2,0.3,0.4,0.5,0.6,0.8c0.4,0.6,0.8,1,1.5,0.7c0.6-0.2,0.9,0.1,1.1,0.6C51.8,116.9,52.4,118,51.4,119.2z"/>
<path class="st0" d="M261.5,152c-0.2-0.3-0.3-0.4-0.4-0.6c-0.1,0-0.2,0-0.2,0c-0.2,0.6-0.4,1.2-0.7,1.8c-0.8-0.1-0.9-0.8-1.1-1.3
	c-0.4-0.6-0.6-1.3-1-1.9c-0.5-0.8-1.1-0.7-1.5,0.1c-0.4,1-0.9,2.1,0.4,3.1c-1.2,0.3-2.2,0-3.1-0.3c-0.4-0.1-0.5-0.1-0.8,0.1
	c-0.4,0.3-0.9,0.3-1.4,0.5c0.1-1.1,1.4-1.3,1.5-2.5c0.3,0.5,0.5,0.9,0.7,1.3c0.5-0.6,0.5-1,0.1-1.5c-0.4-0.6-0.6-1.3-0.5-2.1
	c2.1,0,4.1,0,6.2,0c0.1,0.6,0.2,1,0.3,1.5c0.2-0.1,0.5-0.1,0.8-0.2c0.2,0.3,0.4,0.6,0.7,1.1c0.4-0.5,0.7-0.8,1.2-1.3
	c0.3,0.4,0.5,0.8,0.8,1.3c-0.1,0.1-0.3,0.2-0.5,0.5c-0.1,0.3-0.1,0.6-0.3,0.9c0-0.4,0.1-0.8,0.1-1.3
	C262.2,150.9,262,151.5,261.5,152z"/>
<path class="st0" d="M207.7,251.8c-0.4-0.5-0.9-1-1.3-1.6c1-0.7,1.1-0.6,1.8,0.9c0.5-0.5,0.5-0.5,0.8-3.7c0.5,0.5,1,1,1.6,1.6
	c0.2-0.7,0.3-1,0.5-1.6c0.3,0.3,0.5,0.5,0.8,0.8c-0.4,0.7-0.4,1.4,0,2.1c0.5,1.2,0.3,2.6-0.6,3.8c-0.7-0.5-0.2-1-0.1-1.5
	c0.4-1.4,0.4-1.4-0.7-2.5c-0.6,0.3-0.2,0.8-0.2,1.2c-0.2,0.2-0.5,0.3-0.7,0.5c-0.6,0.6-0.6,0.9-0.1,1.6c0.5,0.7,0.9,1.3,0.6,2.2
	c-1-0.3-1.5-0.8-1.2-2c0.1-0.2-0.1-0.6-0.1-1c-0.8,0.4-1,1-1,1.7c0,0.8,0,1.6,0,2.3c0,0.6-0.1,1.1-0.8,1.1c-0.1-0.1-0.2-0.2-0.2-0.2
	c-0.1-1.2-0.3-2.5-0.3-3.7C206.5,252.6,206.6,252.6,207.7,251.8z"/>
<path class="st0" d="M46.3,246.9c0.1,0.7,0.2,1.3,0.3,1.9c0.7-0.7,0.7-0.7,0.6-2.4c0.4,0.1,0.4,0.1,0.9,1.9c0.4-1.2,0.7-2.3,1.1-3.5
	c0.7,0.4,1.2,0.7,1.8,1c0.5-0.6-0.1-0.8-0.4-1.2c0.2-0.2,0.5-0.4,0.7-0.7c0.3,0.2,0.7,0.5,1.2,0.8c-0.3,0.4-0.5,0.7-0.8,1.1
	c0.5,0.2,0.8,0.5,0.4,1.1c-0.1,0.2-0.3,0.6-0.2,0.8c0.1,0.3,0.4,0.7,0.7,0.8c0.2,0.1,0.5-0.2,0.9-0.4c0,0.4,0.1,0.7,0.1,1
	c-0.7,0-1.3-0.2-1.8-0.1c-0.3,0-0.5,0.5-0.7,0.8c-0.4,0.8,0.3,1,0.7,1.3c-0.3,0.7-0.6,1.2-1.6,1c0-0.5,0-1,0-1.5
	c0.1-0.6,0.2-1.2,0.3-1.9c0.1-0.7,0.1-1.4-0.8-1.9c-0.2,0.7-0.4,1.3-0.7,1.9c-0.2,0.6-0.6,1.1-0.9,1.6c-0.4,0.9-1.1,1.1-1.7,0.3
	c-0.5-0.8-0.8-1.6-1-2.5C45.2,247.7,45.5,247.1,46.3,246.9z"/>
<path class="st0" d="M46.9,95.9c-1-0.1-1.9-0.6-2.3,1c-0.1-0.7-0.2-1-0.3-1.4c-1.2,0.4-1.4,1-1.6,3.9c-0.3,0-0.7,0.1-1,0
	c-1.3-0.6-2.3-1.5-2.8-2.9c-0.2-0.5-0.1-0.8,0.4-1.1c0.3,0.5,0.7,1,1,1.6c0.4-0.3,0.6-0.6,1-1c0.3,0.4,0.6,0.7,0.9,1.1
	c0.8-0.7,0.4-1.6,0.5-2.4c0.4,0,0.9,0,1.3-0.2c0.9-0.3,0.9-0.6,0.5-1.6c-0.2-0.5-0.2-1-0.4-1.5c-0.1-0.4-0.3-0.9-0.4-1.2
	c0.3-0.7,0.5-1.3,0.8-2.1c0.9,1.1,1.5,2.3,1.9,3.6c0.1,0.2,0.1,0.5,0,0.7C46,93.7,46.3,94.7,46.9,95.9z"/>
<path class="st0" d="M154.9,157.7c0.7,1.4,0.9,1.4,1.7,0.1c0,0.4,0.1,0.8,0.1,1.1c0,0.4-0.1,0.8,0,1.1c0.1,0.4,0.4,0.7,0.6,1
	c0.3-0.2,0.6-0.4,0.8-0.6c0.3-0.4,0.6-0.6,1.1-0.3c0.3,1.1-1.4,1.4-0.9,2.7c0.4,0,0.9,0.1,1.4,0.1c0.2,1.3-0.5,2.7-1.5,3
	c-0.8,0.3-1.4-0.4-1.2-1.3c0.3-1.4,0.3-1.4-0.2-2.7c-0.9,0.7-0.8,2-1.6,3c-0.1-0.5-0.1-0.9-0.2-1.2c-0.1-0.4,0-0.9-0.3-1.1
	c-0.9-1-0.8-2.3-0.8-3.5C154,158.5,154.1,157.9,154.9,157.7z"/>
<path class="st0" d="M5.4,199.4c0.1-0.2,0.3-0.4,0.5-0.7c0.2,0.1,0.4,0.1,0.4,0.2c0.5,0.9,1,1.7,1.5,2.6c0.6,1.1,0.7,1.1,1.8,0.5
	c0.9,1,0.9,2.3,1,3.6c-0.3-0.3-0.5-0.6-0.8-0.9c-0.5,0.1-0.9,0.4-0.8,1c0.1,0.8,0.7,1.7,1.5,1.9c0.5-0.3-0.5-1.1,0.4-1.3
	c0.3,1.1,0.7,2.2,1.1,3.5c-0.3,0.7-0.6,1.7-1,2.8C9.2,208,7.6,203.7,5.4,199.4z"/>
<path class="st0" d="M22.1,191.4c-0.1,0-0.1,0-0.1,0c-0.4,0.3-0.8,0.9-1.4,0.6c-0.7-0.4-0.7-1.2-0.8-1.9c-0.1-0.4,0.2-0.7,0.7-0.7
	c1.7,0,1.7,0,1.7-1.8c0-0.1,0-0.2,0.1-0.3c0.3,0.2,0.6,0.5,0.9,0.5c0.3,0,0.5-0.3,0.8-0.5c0.2,1.5,0.6,3,0.1,4.5
	c-0.2,0.7,0.1,1.2,0.9,1.3c0.3-0.6,0.7-1.2,1.1-1.8c0.9,0.9,0.8,2,0.6,3.5c-0.4-0.5-0.7-0.9-0.8-1c-1-0.1-1.8-0.2-2.8-0.4
	c-0.6,0.8,1,2.3-0.7,2.9c-0.6-0.9-0.6-1.9-0.2-2.8C22.4,192.7,22.6,192.1,22.1,191.4z"/>
<path class="st0" d="M196.3,146.1c0.1,0.9-0.1,1.3-0.7,1.3c-1,0.2-1,0.2-0.9,1.2c-0.8,0.6-1.4-0.2-2.2-0.3c-0.2,0.8-0.5,1.6-0.7,2.4
	c-0.4,0.1-0.9,0.2-1.3,0.3c0-0.2-0.1-0.3-0.1-0.3c0.8-1.9,0.8-1.9-0.4-3.4c-0.1-0.2-0.3-0.4-0.4-0.6c0-0.1,0-0.2,0-0.4
	c0.3,0,0.7,0,1-0.1c0.2-0.1,0.6-0.3,0.6-0.4c0-0.3-0.2-0.6-0.3-0.9c0,0-0.1-0.1-0.1-0.1c-0.9-0.8-0.9-0.8-0.4-2.2
	c0.1,0.4,0.2,0.6,0.3,1c0.5-0.2,1.1-0.4,1.6-0.5c0.5-0.2,0.9,0,1,0.7c0,0.2,0,0.5,0.1,0.7C193.6,146.8,194.5,147.3,196.3,146.1z"/>
<path class="st0" d="M123.5,265.4c0.3,0,0.5-0.1,0.8-0.1c0.1-1,0.3-2,1.3-2.5c0.3-0.2,0.4-0.9,0.6-1.4c1-0.1,0.6,1.6,1.5,1.5
	c0.2,0.8,0.8,1.2,1.5,1.6c0.6,0.4,1.3,0.8,1.9,1.3c-0.9,1.8-1.4,1.9-2.6,0.9c-0.5,0.9,0.6,1.2,0.6,2c-0.5,0.4-0.8,0.1-1-0.4
	c-0.4-1.2-0.4-2.3-0.3-3.5c0-0.3-0.1-0.8-0.4-1c-0.4-0.3-0.8-0.1-1.1,0.3c0,0,0,0.1,0,0.1c-0.2,0.2-0.5,0.4-0.8,0.6
	c0.3,1,0.9,1.9,0.6,3.1C124.7,267.8,124.2,267.3,123.5,265.4z"/>
<path class="st0" d="M196.8,263.8c0-0.6,0.1-1.2,0.1-1.8c0.1,0,0.1,0,0.2-0.1c0.1,0.3,0.3,0.6,0.4,1c0.2-0.1,0.3-0.1,0.4-0.2
	c0.4-0.6,0.1-1.1-0.3-1.5c-0.4-0.4-0.8-0.7-1.2-1c0.1-1,0.6-1.3,1.3-1.2c0.3,0,0.7,0.3,0.8,0.6c0.4,0.8,0.6,1.6,1,2.4
	c0.2,0.5,0.3,0.5,1.2,0.7c-0.1-0.4-0.2-0.8-0.3-1.3c0.3-0.1,0.7-0.1,1.1-0.3c0.3-0.1,0.5-0.4,0.7-0.6c0.2,0.3,0.5,0.6,0.7,1
	c0.2,0.3,0.4,0.7,0.4,1c-0.1,1.5-2.1,2.6-3.3,2c-0.5-0.3-0.9-0.5-1.5-0.2C197.9,264.2,197.3,263.8,196.8,263.8L196.8,263.8z"/>
<path class="st0" d="M144,273.9c-0.8,0-1.6,0.1-2.4,0c-0.7-0.1-0.8-0.5-0.4-1.1c0.7-1.2,0.7-1.5-0.3-2.5c-1-0.9-1.6-2-1.5-3.6
	c0.4,0,0.8-0.1,1.2-0.1c0-0.1,0-0.1,0-0.2c-0.3-0.2-0.6-0.3-0.9-0.5c0-0.7,0-1.4,0-2.3c0.5,0.2,0.9,0.3,1,0.5c0.5,0.7,1,1.5,1.4,2.3
	c0.1,0.3,0,0.8-0.1,1.2c-0.3,0.9-0.5,1.8,0.3,2.5c0.1,0.1,0.2,0.2,0.2,0.4C143,271.6,143.5,272.7,144,273.9z"/>
<path class="st0" d="M106.9,217.7c-0.2,0.2-0.5,0.4-0.8,0.6c-0.2-0.1-0.4-0.3-0.6-0.4c-0.5,0.3-0.9,0.5-1.3,0.8
	c-0.3,0.2-0.6,0.5-0.7,0.8c-0.4,1-0.4,1-1.5,0.5c0.2-0.4,0.5-0.7,0.7-1.1c0.3-0.9,0.7-1.1,1.6-0.9c0.2-0.4,0.3-0.8,0.6-1.1
	c0.3-0.3,0.7-0.4,1.2-0.7c-0.9-0.6-1.3-1.2-1.4-2.1c0-0.2-0.2-0.3-0.3-0.5c-0.5-0.8-0.8-0.7-1.3,0.3c0,0.1-0.1,0.2-0.2,0.4
	c-0.4-0.2-0.8-0.4-1.4-0.6c-0.2,0.4-0.4,0.8-0.6,1.2c-0.8-0.7-0.8-0.7-0.6-1.9c0.9-0.1,1.9-0.2,2.9-0.2c0-0.4,0-0.7,0-1.1
	c0.1,0,0.3,0,0.3,0c0.3,0.7,0.7,1.1,1.5,1c0,0.5-0.1,1,0,1.5c0.1,0.4,0.4,0.9,0.7,1.2c0.7,0.6,1.4,1.1,2.1,1.6c1,0.8,0.8,2,1.1,3
	c-0.1,0.1-0.2,0.2-0.3,0.3c-0.7-0.6-1.3-1.2-2-1.9C106.8,217.9,106.8,217.8,106.9,217.7z"/>
<path class="st0" d="M141.8,279.7c0.2-0.3,0.5-0.5,0.6-0.8c0.1-0.3,0.2-0.7,0.1-1.1c0-0.2-0.5-0.3-0.7-0.3c-0.3,0.1-0.6,0.4-0.8,0.6
	c-0.2,0.3-0.1,0.6-0.2,0.9c-0.1,0-0.3,0.1-0.3,0.1c-0.7-0.8-1.6-1.1-2.6-0.9c-0.3,0.1-0.8-0.3-1-0.7c-0.4-0.7-0.7-1.4-1.2-2.4
	c1.5,0.7,2.1,1.8,3.1,2.7c0.5-0.8,1-1.5,1.6-2.4c0.2,0.6,0.3,1,0.5,1.5c0.6-1.6,1.7-1.5,3-1.4c0.1,1.3,0.2,2.5,0.3,3.8
	c0,0.3-0.2,0.7-0.4,1c-0.1,0.1-0.7-0.1-0.8-0.3C142.6,279.4,142.3,279.7,141.8,279.7z"/>
<path class="st0" d="M102.2,184.1c0.6,0.6,1.3,1.3,2,2c-0.3,0.2-0.4,0.3-0.5,0.3c-1.3,0.2-1.4,0.4-1.2,1.7c0.1,0.4,0.1,0.8,0.2,1.3
	c-0.7,0-1.2,0.1-1.8,0.1c0,0.7,0,1.4,0,2.1c-0.8-1-0.3-2.3-1.1-3.4c-0.1,0.6-0.1,1.1-0.2,1.4c-0.8-0.5-1.7-0.9-2.5-1.4
	c-0.4-0.2-0.7-0.5-1.1-0.8c-0.6-0.6-0.3-1,0.1-1.3c1,0.4,1.9,0.7,2.7,1.1c0.1,0,0.2,0.1,0.2,0.1c0.3,0.2,0.8,0.7,0.9,0.6
	c0.4-0.2,0.7-0.7,1-1.1C101.4,185.9,101.8,185,102.2,184.1L102.2,184.1z"/>
<path class="st0" d="M124.7,67.8c-0.1,0.3-0.1,0.7-0.2,1.1c-0.5,0.1-1,0.1-1.3-0.5c-0.2-0.7,0-1.5,0.6-2c0.6-0.5,1-0.4,2,0.3
	c0.4-0.4,0.8-0.8,1.3-1.3c0.5,1.4,1.8,1,2.9,1.6c-0.2,0.2-0.3,0.5-0.6,0.6c-0.3,0.1-0.7,0.1-1.1,0.2c-0.5,0.1-0.7,0.6-0.4,1
	c0.4,0.6,0.4,1.1,0.2,1.8c-0.1,0.3,0.1,0.6,0.2,1c-0.2,0.2-0.5,0.4-0.9,0.7c0-0.7,0-1.2,0-1.8c-0.3-0.2-0.8-0.2-0.9-0.5
	c-0.2-0.3,0-0.7,0-1.2c-0.8,0.3-1.3-0.3-1.6-1.1C124.9,67.7,124.8,67.7,124.7,67.8z"/>
<path class="st0" d="M243.5,70.7c0.3,0.2,0.5,0.3,0.9,0.5c0.1-0.5,0.2-0.9,0.1-1.3c0-0.9,0.2-1.7,0.8-2.3c0.4-0.4,0.8-0.9,1.2-1.4
	c0.9-0.9,0.9-1.2,0.5-2.4c-0.2-0.6-0.2-1.2-0.3-1.8c0-0.1,0.2-0.2,0.3-0.4c0.6,0.6-0.4,1.9,1,2c0-0.4,0-0.8,0.1-1.5
	c0.4,0.8,0.7,1.3,1,2c-0.6-0.1-0.9-0.1-1.3-0.1c-0.7,1.2,0.6,2.2,0.3,3.3c-0.9,0.7-1,0.2-0.3,1.7c-0.5,0.7-0.9,1.4-0.3,2.3
	c-1.2,0.4-1.4,0.2-1.3-0.9c0.1-0.5,0.1-0.9,0.2-1.4c-0.8-0.3-1.1-0.1-1.3,0.7c-0.2,0.9-0.6,1.7-0.9,2.6c-0.2,0.4-0.2,0.4-1.1,0.6
	C244,72.1,243.8,71.4,243.5,70.7L243.5,70.7z"/>
<path class="st0" d="M111.6,223.3c0.7,0.6,0.7,0.6,2.4,0.6c0.1,0.3,0.3,0.7,0.5,1.1c0.6-0.6,1.1-1,1.9-1.7c0,0.5,0.1,1.1-0.1,1.3
	c-0.8,0.8-0.8,1.6-0.4,2.5c-0.7-0.1-1.3-0.1-1.8-0.2c-0.3,0-0.6,0-0.8-0.1c-0.6-0.6-1.3-0.2-1.9-0.4c-0.3,1.3-0.3,1.3,0.6,1.6
	c-0.7,0.4-1.1,0.4-1.2-0.4c-0.1-0.7-0.3-1.4-0.7-2c-0.4-0.6-0.2-1.3,0.5-1.7C110.9,223.7,111.3,223.5,111.6,223.3z"/>
<path class="st0" d="M196.8,4.8c-0.2,0.1-0.3,0.3-0.7,0.5c0-0.3,0-0.5,0-0.6c0-1.3,0-1.3-1.1-1.3c-0.4,1.4,0.8,2.8,0.2,4.5
	c-0.4-0.6-0.3-1.2-0.3-1.7c-0.1-1.3-0.1-1.5-1.1-2.4c-0.9,1,0.5,1.6,0.3,2.4c-1.1-0.2-1.8-1-2.3-2.5c1.7-0.3,1.7-0.3,2-1.2
	c1.4,0.2,1.9-0.1,1.5-1.7c2.3-1.2,2.6-1.2,3.4,0.1c-0.2,1.1-1.2,1.5-1.8,2.3C196.5,3.9,196.4,3.9,196.8,4.8z"/>
<path class="st0" d="M205,19.8c0.3-1.4,0.2-1.6-1-1.9c-0.5-0.1-1.2,0-1.5-0.9c0.6-0.3,1.1-0.6,1.9-0.9c0.3,0.4,0.6,0.8,0.9,1.2
	c1-0.8,0.8-2.3,1.6-3.1c1.2,1.5,0.7,3.4-1.3,4.8c0.1,0.7,0.3,1.3,0.5,2.1c-1.7,0.5-0.6,2.4-1.5,3.5c-0.4-0.5-0.8-0.9-1.3-1.5
	c0.4-0.2,0.7-0.3,0.9-0.4c0.7-0.4,0.7-0.7,0.2-1.3c-0.5-0.6-0.9-1.2-1.5-1.9C203.6,19.4,204.3,20.3,205,19.8z"/>
<path class="st0" d="M217.5,30.5c-0.3-0.4-0.8-0.7-0.6-1.4c0.1-0.3-0.1-0.9-0.3-1c-0.5-0.3-0.4-0.7-0.4-1.2c0-0.9,0.3-1.4,1.1-1.4
	c0.2,0,0.6-0.3,0.7-0.4c0-1.3,1.3-1.3,1.8-2.1c0,0,0.2,0,0.3,0c0.4,0.5,0.1,0.8-0.3,1.2c-1.2,1.1-1.2,1.2,0.1,2.2
	c0.1,0.1,0.2,0.2,0.4,0.4c-0.3,0.1-0.5,0.2-0.7,0.2c-0.2,0-0.4,0.1-0.6,0.1c-0.2,0.5,0.2,1.2-0.6,1.6c-0.4,0.2-0.4,1.1,0.3,1.7
	c0.2-0.4,0.4-0.7,0.6-1.1c0.3,0.3,0.6,0.5,0.2,0.9c-0.2,0.3-0.5,0.7-1,0.5c0,0.5,0.1,0.9,0.1,1.4c-0.5-0.2-0.9-0.4-1.4-0.6
	C217.3,31.1,217.4,30.8,217.5,30.5z"/>
<path class="st0" d="M226.9,32.2c-0.3,0.3-0.4,0.5-0.6,0.7c-0.1-0.2-0.2-0.4-0.2-0.5c-0.1-0.1-0.1-0.3-0.1-0.5c-0.5,0-1.1,0-1.7,0
	c-0.1-0.3-0.3-0.8-0.4-1.2c-0.2-0.9,0-1.2,0.9-1.3c1.7-0.2,1.7-0.3,1.9-2.1c0.9-0.2,1.5,0.2,1.5,1.1c0,1,0,2,0,3
	c0,0.2-0.2,0.5-0.3,0.7c-0.2,0.3-0.4,0.7-0.6,1C227.1,32.8,227,32.6,226.9,32.2z"/>
<path class="st0" d="M78.5,225.2c-0.2-0.3-0.3-0.6-0.5-1c-0.8,1-0.2,2.1-0.5,3.2c-0.6-0.1-1.2,0-1.6-0.7c-0.1-0.3-0.8-0.2-1.4-0.4
	c0.5-0.7,0.9-1.2,1.4-1.8c0-1.3-0.7-2-2-2.1c0-0.4,0-0.7,0-1.1c0.5,0.2,0.9,0.4,1.5,0.7c-0.5-1.5,0.5-1.9,1.3-2.5
	c-0.1,0.8-0.2,1.6-0.2,2.4c0,0.8,0.6,1.5,1.3,1.7c0.7,0.2,0.8-0.4,0.9-1C79.1,223.8,79.1,223.8,78.5,225.2z"/>
<path class="st0" d="M76,208.4c0.2,0.2,0.5,0.3,0.7,0.5c0.2,0.3,0.3,0.8,0.6,1.4c-0.6-0.2-1-0.3-1.4-0.5c-0.1,1.5-1,2.2-2,3
	c-0.9-0.7-1.8-1.3-2.6-2c-0.6-0.5-0.9-1.1-0.4-2c0.2,0.1,0.3,0.2,0.5,0.2c0.3,0,0.7,0,1-0.1c-0.1-0.4-0.1-0.8-0.2-1.2
	c0-0.1-0.3-0.2-0.5-0.3c0.2-0.6,0.3-1.3,1.2-0.8c-0.1,0.6-0.2,1.2-0.3,1.8c0.4,0.4,0.8,0.7,1.2,1c-0.4,0.6-1.5,0.8-0.9,1.7
	c0.6,0.8,1.1-0.1,1.5,0c0-0.8,0-1.5,0-2.2C75.2,209.3,75.5,208.6,76,208.4z"/>
<path class="st0" d="M48.3,148.8c-0.4-0.8-0.2-1.5,0-2.1c0.3-0.7,0.5-1.5-0.5-2.2c0.9-0.1,1.6-0.1,2.3-0.2c0.5-1.1,1-2.2,1.5-3.5
	c0.1,0.1,0.4,0.1,0.5,0.3c0.4,0.8,0.6,2.1,0.4,3.2c-0.7,0.3-1.5,0.6-2.2,0.9c-0.1,1-0.1,1.9-0.2,2.8c-0.1,0-0.1,0-0.2,0
	c0-0.4-0.1-0.7-0.1-1.2c-1,0.8-1,1.2,0.2,1.9C49.4,148.8,48.8,148.8,48.3,148.8z"/>
<path class="st0" d="M76,208.4c-0.5,0.1-0.9,0.9-1.5,0.6c-1-0.5-0.7-1.4-0.6-2.2c0.1-0.5,0.4-1.1,0.7-1.6c0.4-0.1,0.8-0.1,1.3-0.2
	c0-0.8-0.5-1.7,0.7-2.3c0.3,0.7,0.6,1.4,0.9,2.1c0.4-0.3,0.7-0.5,1-0.8c0.1,1.5,0,1.6-1.7,2.3C76.5,207.1,76.2,207.8,76,208.4z"/>
<path class="st0" d="M23.8,232.7c0.2-0.3,0.3-0.6,0.5-0.9c0.7,0.2,0.6,0.8,0.5,1.2c-0.2,0.9,0,1.6,0.3,2.4c0.4,0.9,0.4,1.9-0.1,2.9
	c-0.1-0.3-0.2-0.5-0.2-0.8c0.2-1-0.1-1.8-1-2.3c0-0.5,0.1-1,0.1-1.6c-1.7,0.8-2.4,0.4-2.4-1.6c0-0.9,0-1.8,0-2.8
	c0.3,0.1,0.6,0.3,1.2,0.6c0.1-0.5,0.2-1,0.3-1.6c0.3,0.9,0.7,1.6,1,2.4c-0.2,0.3-0.6,0.5-0.6,0.8c-0.1,0.4,0.1,0.9,0.1,1.3
	C23.6,232.7,23.7,232.7,23.8,232.7z"/>
<path class="st0" d="M155.5,293.1c-0.3-0.2-0.5-0.4-0.8-0.5c0.1,1.5,0.1,1.5-0.5,2c-1.1-1.7-1.2-2.1,0-2.7c-0.2-1.4-0.8-2.6-1.8-3.6
	c-0.3-0.2-0.3-0.7-0.5-1c-0.5-0.8-0.8-1.7-2-1.7c-0.2-0.9-0.4-1.8-0.6-2.8c0.3,0,0.5,0,0.5,0c0.5,1,1.7,1.4,1.9,2.7
	c0,0.2,0.2,0.4,0.4,0.6c1.1,1.7,2.2,3.3,3.3,5C155.6,291.7,155.9,292.3,155.5,293.1z"/>
<path class="st0" d="M200.9,144.3c0.2,0,0.4-0.1,0.5-0.1c1.3,0.2,1.9-0.5,1.4-1.8c-0.2-0.6-0.6-1.1-1-1.7c-0.2-0.3-0.5-0.4-0.9-0.7
	c0.7-0.3,1.2-0.5,1.7-0.6c0.5-0.2,1.1,0.2,0.9,0.6c-0.6,1.6,0.5,2.2,1.2,3c1,1.2,1,1.3-0.5,2.7c-0.1-0.2-0.2-0.6-0.3-0.7
	c-0.3-0.3-0.6-0.5-1-0.6c-0.2,0-0.5,0.2-0.6,0.4c-0.1,0.1,0,0.5,0.2,0.6c0.3,0.3,0.8,0.3,0.7,0.9
	C201.8,147.1,201.3,146.6,200.9,144.3z"/>
<path class="st0" d="M253.5,244.3c0,0.5,0,0.8,0,1.3c-0.6,0.1-1.1,0.2-1.8,0.3c-0.5-1.2-0.3-2.3-0.3-3.5c0-0.2,0.4-0.6,0.6-0.6
	c0.9,0,1.8-0.1,2.7,0.1c0.8,0.2,1,0.6,0.9,1.3c-0.2,1-0.5,1.3-1.4,1.2C254.1,244.3,253.9,244.3,253.5,244.3z"/>
<path class="st0" d="M256,160.7c0.5,0.5,0.9,1,1.4,1.3c1.1,0.7,1.3,1.7,1,3c-0.4,0.1-0.8,0.2-1.3,0.4c-0.6,0.2-0.8,0.7-0.2,1.2
	c0.5,0.4,0.7,0.8,0.7,1.5c0,0.2,0,0.5-0.1,0.5c-0.9,0.5-0.8,1.3-0.7,2.1c0,0.1-0.1,0.3-0.3,0.6c-0.2-0.8-0.3-1.4-0.4-1.9
	c-0.1-0.9-0.1-1.7-0.7-2.5c-0.3-0.4,0-1.6,0.5-1.8c0.7-0.3,0.8-0.8,0.7-1.4C256.5,162.6,256.2,161.7,256,160.7z"/>
<path class="st0" d="M238,60.2c-0.4,1-0.4,1,0,2.1c0.3-0.4,0.6-0.7,1-1.1c0,1,0.6,1.3,1.4,1.1c0,0.1,0,0.2,0,0.3
	c-0.3,0.1-0.6,0.2-0.9,0.1c-0.7-0.2-1,0.2-1.3,0.8c-0.3,0.6-0.7,1.1-1.1,1.9c-0.1,1,1.3,0.3,1.7,1.2c-0.1,0.2-0.2,0.5-0.4,0.7
	c-0.9-0.8-1.7-1.5-2.6-2.3c0.2-0.5,0.6-1.1,1-1.9c-0.6-0.6-0.8-1.3-0.3-2.3c0.2-0.5,0.2-1.1,0.3-1.7c0-0.3,0.2-0.5,0.4-0.9
	C237.4,58.9,237.7,59.5,238,60.2z"/>
<path class="st0" d="M265.7,157.2c0.2,0.3,0.4,0.5,0.4,0.7c0.2,1.7,0.2,3.4-0.4,5c-0.1,0.4-0.5,0.8-0.8,0.8c-0.3,0-0.7-0.4-0.9-0.7
	c-0.9-1.7-0.7-3.8,0.5-5.2C264.8,157.6,265.3,157.4,265.7,157.2z"/>
<path class="st0" d="M74.3,28.9c-0.9-0.5-1.7-1.2-2.9-1.1c-0.6,0.1-1.2-0.2-1.9-0.3c-0.4-1-1-2.1-2.2-3c0.1,0.6,0.2,1,0.1,1.3
	c0,0.2-0.3,0.4-0.4,0.6c-0.1-0.2-0.4-0.4-0.4-0.6c0-0.8,0-1.6,0.9-2.2c0.3,0.3,0.9,0.5,1.1,0.9c0.5,1,1.3,1.3,2.3,1.2
	c0.1,0,0.3,0,0.5,0.1c0.1,0.3,0.3,0.7,0.5,1.2c0.5-0.2,0.9-0.3,1.3-0.5c1-0.4,1.5,0,1.4,1.1C74.5,28.1,74.4,28.5,74.3,28.9
	L74.3,28.9z"/>
<path class="st0" d="M253.9,82.7c1,1,0,1.7,0.2,2.5c-0.7,0.3-1.3,0.1-1.9-0.4c1-0.9,0.8-2.1,0.9-3.3c0-0.6,0.1-1.1,0.2-1.7
	c0.2-1.5,0.4-1.7,2.1-1.8c0,0.3,0.2,0.8,0.1,1c-0.9,1.1-0.5,2.2-0.1,3.3c0,0,0,0.1-0.1,0.2C255,82.6,254.5,82.6,253.9,82.7z"/>
<path class="st0" d="M140.4,157.1c-0.2,1.2-0.4,2.4-0.7,3.9c0.5-0.3,0.7-0.5,1.2-0.8c0.3,1.9-0.7,3.4-1.1,5.1
	c-0.7-1.2-1.1-2.2-1-3.4c0-1-0.1-1.9-0.3-2.9c-0.3-1.6-0.1-1.8,1.4-1.9C140.1,157.2,140.3,157.1,140.4,157.1z"/>
<path class="st0" d="M193.6,280c-0.8,0.1-0.9-0.7-1.2-1.2c-0.1-0.3-0.1-0.7-0.3-0.9c-0.1-0.2-0.5-0.4-0.6-0.3
	c-0.2,0.1-0.4,0.4-0.4,0.7c0,0.5,0.2,0.9,0.3,1.4c0,0.2-0.1,0.5-0.2,0.6c-0.1,0.1-0.4,0-0.6-0.1c-0.6-0.4-0.7-1-0.6-1.6
	c0.2-2,0.1-2.1-1.8-2.3c-0.1,0-0.2-0.1-0.4-0.1c0-0.8,0.6-1.1,1-1.4c0.2-0.2,0.8,0,1.1,0.2c0.5,0.4,1,1,1.5,1.5
	c0.3-0.2,0.6-0.3,0.9-0.5C192.7,277.2,193.1,278.5,193.6,280z"/>
<path class="st0" d="M28.9,13.1c-1.8,1.4-2.5,1.2-3.4-1.3c0.5,0.3,0.8,0.6,1.2,0.8c0.1,0.1,0.4,0,0.5-0.1c0.1-0.2,0.1-0.5,0-0.6
	c-0.2-0.3-0.6-0.5-0.9-0.7c-0.8-0.4-1.3-1-1.3-2.1c-0.3,0.3-0.5,0.4-0.7,0.6c0-0.1-0.2-0.1-0.1-0.2c0.3-0.8,0.1-1.5-0.5-2
	c-0.3-0.3-0.5-0.7-0.1-0.9c0.2-0.1,0.8-0.1,0.9,0.1c0.8,0.9,1.4,2,1.8,3.2c0.3,0.8,0.7,1.5,1.6,1.6C28.8,11.6,28.6,12.5,28.9,13.1z"
	/>
<path class="st0" d="M175.6,257.4c-0.6-0.6-1-1-1.4-1.4c-0.2-0.2-0.4-0.6-0.3-0.9c0-0.9,0.1-1.7,0.2-2.8c1,0.9,1.7,1.8,2.1,2.9
	c0.1,0.4,0.2,0.7,0.6,1.1c0.8,0.8,0.8,2.8,0.1,3.8c-0.2,0.3-0.5,0.7-0.7,1c-0.8-0.4-0.6-1.1-0.6-1.6c0.4,0,0.9,0.1,1.1,0
	c0.2-0.3,0.3-0.8,0.2-1.2C176.6,257.5,176,257.4,175.6,257.4z"/>
<path class="st0" d="M210.1,235.6c-0.3-0.3-0.5-0.6-0.8-0.9c-0.5-0.7-0.8-0.8-1.5-0.4c-0.4,0.2-0.8,0.5-1.3,0.8
	c-0.3-0.7,0.1-1.2,0.2-1.8c0.1-0.6,0.4-1.2,0.7-1.7c0.4-1.1,1.1-1.2,1.9-0.4c0.7,0.7,0.9,1.7,1,2.6c0.1,0.6,0.1,1.1,0.1,1.7
	C210.3,235.5,210.2,235.6,210.1,235.6z"/>
<path class="st0" d="M248,82.9c-0.2,0.3-0.4,0.7-0.6,1c0,0-0.1,0-0.1,0c0.2-0.6,0.4-1.2,0.7-1.9c0.4,0.3,0.7,0.5,1.1,0.8
	c0.1-0.4,0.3-0.7,0.4-1c0.6,0,1.1-0.1,1.7-0.1c0.2-0.9-1.1-1-0.6-1.8c0.3-0.5,0.4-1.3,1.3-0.8c0-0.7,0.1-1.3,0.1-1.9
	c0,0,0.1,0,0.1,0c0.2,0.7,0.4,1.4,0.7,2.3c-0.3,0.1-0.6,0.2-1.1,0.3c0,0.3,0.1,0.7,0.1,1c0.1,1,0,1.9-0.8,2.6
	c-0.4,0.4-0.7,1-1.1,1.4c-0.1,0.2-0.4,0.4-0.5,0.3c-0.2-0.1-0.4-0.4-0.4-0.6c-0.1-0.5-0.2-1.1-0.3-1.6
	C248.3,82.9,248.1,82.9,248,82.9z"/>
<path class="st0" d="M82.1,213.4c0.3-0.3,0.7-0.6,1-0.9c0.1,0,0.1,0.1,0.2,0.1c-0.1,0.4-0.2,0.8-0.4,1.1c-0.5,0.7-0.4,1.2,0.3,1.6
	c-0.3,0.9-0.8,1-1.5,0.7c1-1.2-0.1-2.1-0.1-3.2c-0.6,0.4-0.4,1-0.4,1.5c0,0.5,0,1,0,1.5c-0.5,0-1,0-1.6,0c-0.3-0.2-0.7-0.4-1.3-0.8
	c0-0.4,0.2-0.8,0.8-1.1c0.8-0.4,1.3-1.1,1.6-1.9c0.1-0.2,0.4-0.5,0.5-0.5c0.2,0,0.4,0.3,0.5,0.5C81.9,212.5,81.9,213,82.1,213.4z"/>
<path class="st0" d="M265.8,8.8c-0.6-0.2-1-0.4-1.5-0.5c-0.6,1.3-0.6,1.3-1.3,1.5c-0.4-0.3,0.2-1.5-0.9-1.2c0-0.9,0-1.7,0-2.6
	c0.9-0.2,1,0.8,1.7,1c0.8-0.5,0-2.4,1.8-2C266,6.1,265.8,7.3,265.8,8.8z"/>
<path class="st0" d="M203,253.1c-0.4-0.6-0.7-1.1-1-1.6c-0.3-0.1-0.8-0.1-1.4-0.2c0.7-0.6,1.2-1,1.8-1.4c0.2,0.2,0.4,0.4,0.6,0.7
	c0.2-0.1,0.3-0.1,0.4-0.2c0.2-0.2,0.3-0.7,0.4-0.7c0.4-0.1,0.8,0,1.1,0.1c0.1,0,0.4,0.4,0.3,0.5c-0.2,0.3-0.4,0.7-0.7,0.8
	c-1.2,0.4-1.2,0.4-1.1,1.6c0,0.1,0.1,0.3,0.1,0.5c0.4,0.1,0.8,0.2,1.2,0.3c-0.2,0.4-0.4,0.7-0.5,1.1c0,0.3,0.1,0.7,0.2,1.3
	c-0.5-0.2-0.9-0.2-1.2-0.3c-0.3-0.2-0.7-0.4-0.9-0.8c-0.1-0.2,0-0.7,0.1-0.9C202.6,253.6,202.8,253.3,203,253.1z"/>
<path class="st0" d="M94,108.5c0.5,0.9,0.2,1.6-0.7,2.1c0.3,0.4,0.5,0.6,0.7,0.8c-0.1,0.3-0.2,0.6-0.4,1.3c0.5-0.3,0.8-0.4,1.1-0.6
	c0,0.1,0.1,0.2,0.1,0.3c-0.1,1.1-0.8,1.6-1.5,2.1c-0.7,0.5-2.3-0.3-2.5-1.3c0-0.2,0.1-0.5,0.2-0.6c0.6-0.5,0.9-1.3,1.7-1.6
	c0.4-0.1,0.6-1.1,0.8-1.7c0.1-0.3,0.1-0.6,0.2-0.9C93.8,108.5,93.9,108.5,94,108.5z"/>
<path class="st0" d="M168.8,178c-1.3-0.2-1.6,1.2-2.5,1.8c0.1-1,0.2-2.1,0.3-3.1c1-0.7,0.4-1.8,0.5-2.7c0-0.2,0-0.5,0.1-0.5
	c0.3-0.1,0.7-0.3,0.8-0.2c0.5,0.7,1,1.5,1.4,2.3c0.1,0.2,0,0.6-0.1,0.8C169.1,176.8,169,177.3,168.8,178z"/>
<path class="st0" d="M208.6,293.3c-1.1-0.4-1.3-1.6-2.1-2.2c-0.7,0.7,0.4,1,0.3,1.6c-0.8-0.4-1.7-1.3-1.5-2c0.4-1.3-0.6-1.7-1.2-2.3
	c-0.5-0.5-1-1-1.7-1.6c1.1-0.4,1.8,0,2.3,0.5c1.5,1.6,2.9,3.3,3.8,5.4C208.6,292.8,208.6,292.9,208.6,293.3z"/>
<path class="st0" d="M229.7,250.6c-0.6,0.3-1.1,0.6-1.6,0.7c-0.5,0.1-1,0-1.4-0.1c-0.2-0.1-0.3-0.6-0.5-1c0.4,0,0.6,0.1,1,0.1
	c-0.2-0.7-0.4-1.2-0.6-1.8c1.1-0.2,1.1,1.6,2.3,1.5c-0.1-0.3-0.1-0.6-0.2-0.8c-0.4-1.4-0.3-1.8,0.8-2.5c0.4-0.3,0.7-0.4,1.1,0
	c0.3,0.4,0.5,0.9,0.1,1.2C229.7,248.5,229.8,249.6,229.7,250.6z"/>
<path class="st0" d="M96.2,76c-0.8,0.6-1.4,1.1-2.1,1.5c-0.4,0.2-0.9,0.3-1.6,0.4c0.2-1.7,0.4-3.2,0.6-5.1
	C94.7,73.7,95.4,74.9,96.2,76z"/>
<path class="st0" d="M2.6,166.9c1.3-0.5,1.6,0.3,2,1c0.6-0.1,1.2-0.3,1.7-0.3c0.4,0,0.7,0.3,0.7,0.7c0,0.3-0.3,0.5-0.5,0.7
	c-0.3,0.2-0.6,0.4-0.9,0.5c-0.2,0.1-0.5,0-0.9,0c-0.3,0.8-1.2,1.6,0,2.9c-0.7,0.1-1.2,0.2-1.8,0.4c-0.2-1,0.3-1.7,0.6-2.2
	c0.7-1,0.5-1.7-0.2-2.5C3,167.8,2.9,167.4,2.6,166.9z"/>
<path class="st0" d="M160.7,67.3c-0.1-0.5-0.2-1-0.3-1.5c0-0.3,0.1-0.6,0.2-0.8c0.3-0.5,2.2-1.4,2.7-1.3c0.3,0.1,0.6,0.3,0.7,0.5
	c0.6,0.9,1.2,1.8,1.6,2.8c0.2,0.4,0.1,0.9,0.1,1.3c0,0.1-0.4,0.2-0.5,0.2c-0.3-0.4-0.5-0.7-0.7-1.1c-0.1-0.2,0-0.5,0-0.7
	c0-0.6-0.2-1.1-0.8-1.2c-0.3-0.1-0.7-0.1-1.1,0c-0.2,0.1-0.4,0.4-0.6,0.6c-0.1,0.1-0.2,0.3-0.2,0.3
	C161.3,66.1,161.2,66.8,160.7,67.3z"/>
<path class="st0" d="M74.3,28.9c0.2,0.3,0.3,0.6,0.5,0.8c0.2,0.2,0.4,0.6,0.6,0.6c0.8,0.2,1,0.7,1.1,1.5c0,0.3,0.1,0.7,0.2,1
	c0.5,1.2,0.4,1.2-0.8,1.7c-0.1,0-0.1,0.1-0.2,0.2c0,0.6,0,1.1,0,2c-0.6-1-1.4-1.6-0.5-2.6c0.1-0.1-0.1-0.8-0.4-1
	c-0.9-0.7-1.2-1.5-0.8-2.6C74.4,30,74.3,29.5,74.3,28.9L74.3,28.9z"/>
<path class="st0" d="M206.8,141.1c1.3-0.6,1.4-1,1.1-2.3c0-0.1,0-0.2-0.1-0.3c-0.6-1.3-0.4-2.5,0.6-3.7c0.1,0.6,0.2,1.1,0.3,2
	c0.5-0.8,1-1.3,1.9-1c0.2-0.5,0.4-0.9,0.6-1.4c0.3,1.1,0.3,1.2-0.2,1.8c-0.6,0.7-1.3,1.4-2,2c-0.6,0.5-0.9,0.9-0.6,1.7
	c0.1,0.3,0.2,0.8,0.1,1.1c0,0.3-0.2,0.8-0.3,0.8c-0.3,0.1-0.7-0.1-1-0.2C207,141.5,206.9,141.3,206.8,141.1z"/>
<path class="st0" d="M196.7,263.7c0.1,0.3,0.2,0.6,0.3,0.9c-1.5,0.5-2,0.2-2.4-1.2c-0.1-0.5-0.2-1-0.4-1.4c-0.1-0.4-0.3-0.8-0.6-1.1
	c-0.8-0.8-0.9-0.8-1.2-2.5c0.5,0.4,0.8,0.8,1.2,1c0.3,0.2,0.7,0.2,1,0.2c0.1,0,0.2-0.4,0.3-0.6c0.3,0.4,0.5,0.9,0.8,1.4
	c-0.1,0.4-0.3,0.9-0.4,1.3C195.2,263.3,195.5,263.7,196.7,263.7L196.7,263.7z"/>
<path class="st0" d="M158,51.7c0.7-0.2,1.1-0.4,1.5-0.5c0.5,0.6,0.6,1.5,1.6,1.3c0.3-0.1,0.7,0.6,1.2,1c-0.1,0.9,0.3,2-0.6,2.9
	c-0.1-0.5-0.1-1-0.2-1.7c-0.4,0-0.8,0.1-1.2,0.1c-0.9,0.1-1.2-0.1-1.2-0.9C159.1,53,158.8,52.4,158,51.7z"/>
<path class="st0" d="M42.1,223c0.6,0.2,1.1,0.3,1.6,0.5c0,0.1,0,0.2,0,0.3c-0.8,0.1-1.6,0.1-2.4,0.2c-0.4-0.6-0.7-1.1-1.2-1.8
	c0.2-0.1,0.4-0.3,0.6-0.5c0.7-0.5,1.2-1.1,1.4-2c0.1-0.5,0.3-1,0.5-1.5c0.1-0.2,0.4-0.4,0.7-0.6c0.1,0.2,0.2,0.3,0.2,0.4
	c-0.1,1.2-0.6,2.8-1.2,4C42.1,222.3,42.1,222.6,42.1,223z"/>
<path class="st0" d="M208.5,45.2c-1,0.7-2,1.3-3,2c0.4,0.4,0.7,0.7,1,1.1c-1.3,0.1-1.9-0.7-2-2.4c0.4,0,0.7,0,1,0c0.3,0,0.6,0,0.9,0
	c0.5-0.7,0.3-1.8,1.3-2c0.6,0.4,1.2,0.8,1.8,1.3c0.4,1.6,0.4,1.6-0.6,2.4c0.1,0.3,0.2,0.7,0.3,1.1c-0.9-0.4-1.1-0.9-0.7-1.9
	C209.1,46,209.1,46,208.5,45.2z"/>
<path class="st0" d="M132,255.7c-0.1-0.6-0.1-1.1-0.2-1.8c0.9,0,1.7,0.6,2.6,0.2c-0.3,0.2-0.5,0.5-0.8,0.7c0.1,0.5,0.2,0.9,0.3,1.4
	c-0.7,0-1.1,0-1.8,0c-0.2,1.6-1.2,2.8-2.4,3.7c-0.6-1.1-0.5-1.9,0.5-2.3c0.4-0.2,0.8-0.4,0.7-0.9C130.9,256,131.5,256,132,255.7z"/>
<path class="st0" d="M14.5,221.5c-0.1,0.9-0.2,1.5-0.3,2c-0.8,0.5-1.7,0.9-2.6,1.4c-0.5-0.9-0.1-1.7,0.1-2.6c0-0.1,0.1-0.3,0.2-0.4
	c0.5-0.6,0.6-1.6,1.4-1.5C13.8,220.5,14.2,221.2,14.5,221.5z"/>
<path class="st0" d="M138.7,174.9c-0.2-0.3-0.4-0.6-0.6-0.9c-0.2,0.1-0.3,0.1-0.4,0.2c-0.1,0.3-0.3,0.6-0.2,0.8
	c0.9,1.6-0.1,2.8-0.5,4.1c-1.4-0.1-1.6-0.4-1.6-2c0.5-0.1,1.1-0.2,1.7-0.3c0-0.9-0.2-1.8,0.1-2.5c0.3-0.9,1-1.6,1.5-2.4
	C139.1,172.7,139.1,172.7,138.7,174.9z"/>
<path class="st0" d="M157.9,113.8c-1.4,0.1-1.8-0.1-2.8-1.6c0.4-0.6,0.9-1.3,1.4-2c0.2-0.1,0.5-0.4,0.9-0.6
	c-0.2-0.3-0.5-0.6-0.7-0.9c0.9-0.7,2-0.3,2.8,1.2c-0.3,0.1-0.6,0.2-0.8,0.4c-0.6,0.3-1.1,0.6-1.7,0.9c-0.5,0.3-0.5,0.9-0.4,1.4
	c0.1,0.5,0.3,1,1,1C157.6,113.6,157.7,113.7,157.9,113.8z"/>
<path class="st0" d="M213.9,35.4c0.5-0.3,0.8-0.4,1-0.7c0.4-0.4,0.4-0.4,1.3-0.1c0-0.5,0.1-1,0.2-1.6c-0.5,0.1-0.8,0.1-1.1,0.2
	c0.1-0.8,0.3-1.6,0.4-2.3c0.1-0.1,0.3-0.2,0.4-0.2c0.1,0.3,0.2,0.5,0.3,0.8c0.6,1.3,0.7,2.7,0.7,4.1c0,1-0.6,1.3-1.4,1
	C215.1,36.2,214.5,35.7,213.9,35.4z"/>
<path class="st0" d="M100.2,92.4c0.7,0.9,1,1.7,0.7,2.8c-0.3,1,0,2.1,1,2.9c-0.7,0-1.2,0-1.8,0c0-0.3,0-0.6-0.1-0.9
	c-0.1-0.3-0.1-0.7-0.3-0.9c-0.8-1-0.9-1.9-0.3-2.9C99.6,93.1,99.8,92.9,100.2,92.4z"/>
<path class="st0" d="M157.4,62.8c0.5-0.7,0.8-1.4,1.2-1.9c0,0.1,0.1,0.2,0.3,0.6c0.3-0.5,0.4-0.8,0.6-1.1c0.4-0.6,1-0.5,1.3,0
	c0.5,0.8,0.3,2.3-0.4,3c-0.4,0.4-0.8,0.5-1.2,0.2c-0.3-0.2-0.5-0.6-0.8-0.8C158.2,62.6,157.8,62.8,157.4,62.8z"/>
<path class="st0" d="M230.9,5.4c-0.2,0.3-0.3,0.5-0.5,0.8c-0.7-0.4-0.7-1.1-0.7-1.7c0-0.5,0.4-1.1,0.6-1.7c-0.6-0.3-1.3-0.7-1.1-1.8
	c0.2-0.2,0.5-0.5,0.8-0.7c1,0.5,1.2,1.3,1,2.3c-0.2,1-0.2,1.9,0.7,2.6c0.4,0.3,0.5,0.7,0.3,1.4C231.6,6.1,231.3,5.7,230.9,5.4z"/>
<path class="st0" d="M139.1,293.2c1.1,1.2,1.7,2.6,1.6,4.3c-0.7,0.3-1.2-0.1-1.6-0.7c-0.7-1-1.2-2.1-1.4-3.3
	C138.1,293.4,138.6,293.3,139.1,293.2L139.1,293.2z"/>
<path class="st0" d="M64.4,121.8c-0.1,0.4-0.1,0.7-0.3,0.8c-0.4,0.4-0.5,1-0.5,1.6c0,0.9-0.4,1.3-1.1,1.2c-0.6-0.1-0.7-0.5-0.6-1.3
	c0.3-1.8,0.3-2-0.4-3.4c0.9-0.2,1.1,0.6,1.5,1.1C63.4,121.8,63.8,121.8,64.4,121.8z"/>
<path class="st0" d="M18.4,94.8c-0.1,1.2-0.6,2.4,1,2.7c-0.2,0.8-0.4,1.5-0.5,2.2c-1.2,0.2-1.2-0.6-1.2-1.4
	c-0.4-0.1-0.8-0.2-1.3-0.4c0.1-0.4,0.1-0.7,0.2-1.1C17,96,17.3,95.1,18.4,94.8z"/>
<path class="st0" d="M164.2,186.9c0.5-0.1,0.6-0.1,0.9-0.2c-0.4-0.7-0.7-1.3-1.1-2c0.7-0.4,1.3-0.4,1.7,0.1c0.6,0.7,1,1.5,1.4,2.3
	c0.1,0.2-0.1,0.8-0.3,0.8c-0.6,0.2-1.2,0.3-1.7,0.2C164.8,188,164.5,187.4,164.2,186.9z"/>
<path class="st0" d="M54.6,148.3c0.5,0.4,0.9,0.2,1.2-0.4c0.2,0.4,0.4,0.7,0.5,0.7c0,0.9-0.1,1.6,0,2.2c0.1,0.6,0.7,1.1,0.8,1.6
	c0.1,0.9,1.3,0.1,1.2,1c-1.7,0.4-2.6-0.2-2.8-1.9c-0.1-0.7-0.2-1.5-0.8-1.9l0,0C54.6,149.2,54.6,148.7,54.6,148.3L54.6,148.3z"/>
<path class="st0" d="M196,214.2c0.1-0.5,0.2-1,0.3-1.6c-0.3-0.1-0.6-0.1-0.8-0.3c-0.2-0.2-0.2-0.5-0.2-0.7c0.2,0,0.5-0.2,0.7-0.1
	c0.3,0.2,0.4,0.5,0.7,0.8c0.2-0.1,0.4-0.1,0.6-0.3c0.9-0.6,1.6-0.3,1.7,0.8c0.1,0.8-0.1,1.5-0.7,2.2
	C197.5,214.3,196.9,213.5,196,214.2L196,214.2z"/>
<path class="st0" d="M64.2,137.2c0.3-1-1-2,0.5-2.6c0.2,0.2,0.3,0.5,0.6,0.9c0.2-0.4,0.3-0.7,0.4-1.1c0.4,0.1,0.8,0.2,1.3,0.2
	c0.9,0,1.1-0.4,0.9-1.3c-0.1-0.4-0.2-0.7-0.3-1.1c-0.1-0.3-0.1-0.7-0.2-1.1c0.2,0.1,0.3,0.1,0.4,0.2c0.5,1,0.9,2.1,0.7,3.2
	c-0.1,0.6-0.7,1-1.3,1.1c-1,0.2-1.6,0.6-2.4,1.3C64.7,137,64.6,137,64.2,137.2z"/>
<path class="st0" d="M19.7,1.2c1.4,1.1,2.4,2.4,3.5,3.7c-0.4,0.3-0.7,0.6-1,0.9c-0.7,0.5-1.2,0.3-1.5-0.5C20.3,4,20,2.7,19.7,1.2z"
	/>
<path class="st0" d="M20.8,73.9c0.9,0.4,1.3,1.4,0.8,2.2c-0.2,0.2-0.3,0.3-0.2,0.7c0.2,0.9-0.3,1.5-0.9,2c-0.5,0.5-1.1,0.2-1.4-0.5
	c-0.4-1,0-1.8,1-2c0.5-0.1,0.7-0.4,0.7-0.9C20.8,75,20.8,74.4,20.8,73.9z"/>
<path class="st0" d="M137.4,297.5c-0.9,1-1.3,1-2.4-0.3c-0.8,0.8-1.8,0.7-2.7,0.2c-0.3-0.1-0.3-0.3-0.2-1.1c0.8-0.3,0.7,1,1.4,0.9
	c0.5-0.6,0-0.9-0.3-1.3c0.4-0.1,0.8-0.3,1.1-0.3c0.3,0,0.6,0.1,0.9,0.2C136,296.4,136.7,296.9,137.4,297.5z"/>
<path class="st0" d="M99.3,177.9c1.4-0.3,2.1,0.3,2.3,1.7c0,0.2-0.1,0.5-0.2,0.6c-0.2,0.1-0.6,0.1-0.8,0c-0.2-0.2-0.4-0.5-0.6-0.8
	c-0.4,0.3-0.7,0.5-1.2,1c-0.1-1.6-0.2-3,0-4.5c-0.3,0-0.5,0-0.7,0c0-0.1,0-0.2,0-0.2c0.3-0.1,0.6-0.2,0.7-0.1
	c0.3,0.3,0.6,0.7,0.6,1.1C99.6,177,99.4,177.4,99.3,177.9z"/>
<path class="st0" d="M241.4,152.6c0-0.9-0.1-1.6,0.9-1.3c0.1,0,0.4-0.2,0.5-0.3c0.6-0.5,1-0.6,1.4,0.1c0.4,0.6,0.7,1.2,1.4,1.5
	c0.1,0.1,0.3,0.5,0.2,0.7c-0.1,0.2-0.4,0.3-0.6,0.4c-0.2,0-0.4-0.1-0.6-0.2c-0.5-0.3-0.9-0.7-1.4-0.8
	C242.6,152.5,242.1,152.6,241.4,152.6z"/>
<path class="st0" d="M131.4,102.5c-0.4-1.5-1.5-1.2-2.3-1.5c1.2-0.2,2.5-0.1,3.4-1.3c-0.1,0.5-0.1,0.9-0.1,1.4c0,0.4-0.2,0.9,0,1.1
	c0.5,0.9-0.2,1.6-0.4,2.3c-0.2,0.6-0.7,0.6-1.1,0.3c-0.5-0.3-0.4-0.7-0.1-1.1C130.9,103.3,131.2,102.9,131.4,102.5z"/>
<path class="st0" d="M248.5,86.9c0.5,1.5-0.6,5.2-2,6.4c0.1-0.5,0.1-0.9,0.2-1.2c0.2-0.8,0.4-1.5,0.2-2.4c-0.1-0.5,0.3-1.2,0.5-1.7
	C247.6,87.6,248,87.4,248.5,86.9z"/>
<path class="st0" d="M21.4,172.2c-0.4,0-0.8-0.7-1.2-0.1c-0.3,0.5-0.1,0.9,0.3,1.3c0.6,0.5,0.9,1.1,0.2,1.9
	c-0.8-1.1-0.8-2.4-1.5-3.5c0.4-0.2,1.2-0.3,0.9-1c-0.1-0.2-0.5-0.3-1-0.5c0.3-0.5,0.6-0.9,1.1-1.5c0-0.2,0-0.7-0.1-1.4
	c0.4,0.3,0.6,0.5,0.6,0.6c0.1,0.5-0.1,1,0,1.4C20.9,170.4,21.1,171.3,21.4,172.2z"/>
<path class="st0" d="M159.3,172.5c-0.7-0.3-1.3-0.5-1.8-0.9c-0.6-0.5-0.4-1.2-0.3-1.9c0.1-0.6,0.5-0.8,1-0.8c0.3,0,0.6,0.1,1,0.1
	C159.4,170.2,159.8,171.2,159.3,172.5z"/>
<path class="st0" d="M155.9,176.7c0.6,1.4,1,2.5,1.5,3.6c0.2,0.4,0.5,1,0,1.3c-0.3,0.2-0.9,0-1.3-0.1c-0.3-0.1-0.7-0.4-0.8-0.7
	c-0.2-0.3-0.3-0.9-0.1-1c0.6-0.7,0.6-1.5,0.4-2.3C155.6,177.2,155.7,177,155.9,176.7z"/>
<path class="st0" d="M102.2,184.1c-0.6,0.1-1.2,0.2-1.9,0.3c-0.5,0.1-1.1,0.2-1.6,0.3c-0.5,0-0.8-0.3-0.8-0.8c0-0.3,0.1-0.8,0.3-1
	c0.5-0.5,1.1-1.1,2.1-0.7c0,0.3,0.1,0.7,0.1,1.1C101.1,183.6,102.1,182.8,102.2,184.1L102.2,184.1z"/>
<path class="st0" d="M54.8,170.2c-0.1-1.2,0.5-1.8,1-2.5c0.1-0.2,0.6-0.3,0.7-0.2c0.6,0.4,1.6,0.1,1.9,1c0.3,0.6,0.5,1.2,0.7,1.9
	c-0.7,0.5-1.2,0.1-1.7-0.3c-0.3-0.2-0.5-0.6-0.7-0.8c-0.7-0.6-1.2-0.5-1.7,0.4C55.1,169.8,55,169.9,54.8,170.2z"/>
<path class="st0" d="M256,154.7c0.9,1.1-0.8,1.9,0.1,2.7c-1.3,0.8-2.4,1.6-3.6,2.4c-0.6-1.5,0.1-2.3,0.7-2.9
	c0.7,0.2,1.4,0.3,2.1,0.5C255.6,156.4,255.8,155.7,256,154.7z"/>
<path class="st0" d="M102.2,250.9c0,0.6,0.1,1,0.1,1.5c-0.2-0.1-0.5-0.2-0.9-0.4c0.2,0.7,0.3,1.1,0.4,1.7c-0.5,0-0.9,0-1.5,0
	c0.2-0.4,0.3-0.8,0.4-1c0.5-0.9,0.3-2-0.5-2.7c-0.7-0.5-0.8-1-0.3-1.8c0.1-0.2,0.2-0.3,0.2-0.5c0.2,0.3,0.4,0.6,0.5,0.9
	c0.2,0.3,0.4,0.5,0.4,0.8C101.2,250.2,101.4,250.8,102.2,250.9z"/>
<path class="st0" d="M124,163.8c-0.2-0.9-0.5-1.7-0.7-2.6c-0.1-0.5-0.2-1-0.8-1c-0.6,0-1,0.3-1.1,0.9c-0.1,0.8-0.2,1.6-0.3,2.6
	c-0.7-1.1-0.7-2.2-1.1-3.6c0.4,0.4,0.6,0.5,0.8,0.7c0.5-0.4,0.9-0.8,1.4-1.2c1.9,0.9,2.6,2.3,2.1,4.1
	C124.2,163.8,124.1,163.8,124,163.8z"/>
<path class="st0" d="M209.7,35.6c0.5,0.3,0.8,0.4,1.2,0.6c0.1-0.4,0.2-0.7,0.3-1.1c0.3,0.3,0.6,0.7,0.9,0.8c0.4,0.1,0.9,0,1.3,0
	c-0.1,0.9-0.2,1-2.2,0.7c-0.2,0.5-0.4,1-0.6,1.5C208.9,38.2,208.8,38,209.7,35.6z"/>
<path class="st0" d="M203.1,246.1c0.5-0.1,1-0.1,1.6-0.2c0.3,0.4,0.4,1.1-0.1,1.2c-0.8,0.2-0.7,0.9-1.1,1.5c-0.3,0.1-1-0.7-1.1,0.4
	c0,0.1-0.6,0.1-0.9,0.1c-0.3-1.1-0.2-1.4,0.6-2C202.5,246.9,202.8,246.5,203.1,246.1z"/>
<path class="st0" d="M211.7,142.3c-0.3,0.6-0.7,1.1-0.7,1.6c0,0.5,0.5,1.1,0.9,2c-0.7-0.3-1.1-0.5-1.7-0.7c-0.2,0.5-0.4,1-0.7,1.6
	c-0.3-0.3-0.6-0.6-0.9-0.8c-0.3,0.1-0.7,0.2-1,0.3c0-0.2-0.1-0.3-0.1-0.5c0.1-0.5,0.4-0.7,0.9-0.7c1.2,0.1,1.8-0.6,2.2-1.8
	C210.9,142.4,210.9,142.4,211.7,142.3z"/>
<path class="st0" d="M152.2,169.5c0.1-0.4,0.2-0.9,0.4-1.5c0.3,0.3,0.4,0.5,0.7,0.8c0.2-0.3,0.3-0.6,0.5-0.9
	c0.2,0.3,0.4,0.5,0.7,0.9c0.1-0.6,0.2-1.1,0.3-1.5c1.5-1,1.6-1,2.6,0.1c-0.8,0.1-1.5,0.4-1.8,1.2c-0.1,0.2-0.5,0.3-0.7,0.4
	c-0.3,0.1-0.7,0.1-0.9,0.3C153.5,169.9,152.9,169.6,152.2,169.5z"/>
<path class="st0" d="M265.4,33.3c-0.5-0.9-1.1-1.8-1.6-2.8c-0.3-0.6,0.1-1.2,0.8-1.3c0.3,0,0.7,0.1,1.1,0.1c0,1.3,0,2.5,0,3.7
	C265.7,33.2,265.5,33.2,265.4,33.3z"/>
<path class="st0" d="M135.6,124.9c0.4,0.3,0.6,0.7,1,0.8c1.6,0.6,1.9,1.3,1,3c-0.4-0.3-0.8-0.6-1.3-1c0.5-0.3,1.2-0.4,0.7-1.2
	c-0.5-0.5-1.3,0.6-1.6-0.8c-0.2,0.8-0.3,1.3-0.4,1.8c-1-0.7-1-1.3-0.2-1.9C135.1,125.3,135.4,125.1,135.6,124.9z"/>
<path class="st0" d="M241.4,196.6c0.1,1.2-0.3,2.1-1.1,2.9c-0.7,0.7-0.8,0.7-1.9,0.1C238.9,198.1,239.8,197,241.4,196.6z"/>
<path class="st0" d="M211.9,166.5c1.5-0.1,3.1-0.3,4.6-0.4c0.4,0,0.7,0.1,1.1,0.1c1.5,0.3,2.9-0.1,4.4-0.5c0.8-0.2,1.6-0.4,2.6-0.6
	c-0.2,1-0.8,1.1-1.4,1.2c-0.8,0.1-1.6,0.2-2.4,0.2C217.7,166.5,214.8,166.5,211.9,166.5C211.9,166.5,211.9,166.5,211.9,166.5z"/>
<path class="st0" d="M31.4,189.8c0.1-0.6,0.3-1,0.3-1.5c0.1-1.2,0.1-1.2,1.6-1.2c-0.4,0.5-0.7,0.8-0.9,1.1c-0.1,0.2-0.2,0.6-0.1,0.8
	c0.1,0.2,0.4,0.3,0.7,0.3c0.4,0,0.8-0.2,1.3-0.3c-0.2,0.6-0.8,1.1-0.1,1.6c-0.4,0.4-0.9,0.7-1.3,1.1C32.6,190.9,32.4,190,31.4,189.8
	z"/>
<path class="st0" d="M180.1,188.2c1.3,2,1.2,3.9,0.1,5.8c-0.2-0.4-0.5-0.8-0.7-1.3c-0.1-0.3-0.1-0.7,0-0.9c0.6-0.9,0.7-1.9,0.4-2.9
	C179.9,188.7,180.1,188.5,180.1,188.2z"/>
<path class="st0" d="M249.6,74.1c-0.5-0.9-0.2-1.7,0.2-2.4c0.3-0.6,0.9-1,1.5-1.4c0.3-0.2,0.9,0.3,0.9,0.8c0,0.5-0.1,0.9-0.2,1.5
	C250.5,72,250.3,73.4,249.6,74.1z"/>
<path class="st0" d="M156.5,153.7c0.6,0.1,1.1,0.2,1.5,0.3c0.1,1.5,0,2.6-0.5,3.5C156.4,157,156.2,156.2,156.5,153.7z"/>
<path class="st0" d="M243.5,70.6c-0.8-0.2-1.2,0.2-1.3,1.1c-0.2-0.1-0.4-0.1-0.5-0.2c-0.6-0.6-0.3-1.4-0.4-2.1c0-0.7,0-1.3,0.7-1.8
	c0.3-0.2,0.5-0.8,0.7-1.3c0.9,0.5,1,1.6,0.2,2.3c-0.2,0.2-0.6,0.3-0.8,0.5c-0.3,0.3-0.4,0.6-0.6,1.1C242.3,70.2,243,69.9,243.5,70.6
	L243.5,70.6z"/>
<path class="st0" d="M197.1,238.8c0.6,0,1,0,1.4,0c0.5,1.2-0.8,1.9-0.5,3.1c0.3,0,0.6,0,0.9,0c0.3,0.7-0.3,1.1-1.5,1.3
	C197.2,241.7,197.1,240.3,197.1,238.8z"/>
<path class="st0" d="M54.6,148.2c-0.5-0.2-1.1-0.5-1.6-0.6c-1.1-0.1-1.3,0.2-1.2,1.4c0,0.1,0,0.3,0,0.4c-0.9-0.1-1.1-0.3-0.8-1.1
	c0.4-0.8,0.8-1.7,1.4-2.4c0.2-0.3,0.8-0.3,1.2-0.4C53.9,146.6,54.3,147.4,54.6,148.2L54.6,148.2z"/>
<path class="st0" d="M173,72.2c-1.9-1.4-1.9-1.4-0.9-3c0.1,0.3,0.2,0.6,0.4,0.9c0.1,0.2,0.3,0.3,0.6,0.5c0.1-0.4,0.1-0.6,0.2-0.9
	c0.1-0.2,0.2-0.4,0.5-0.7c0.5,0.7,0.9,1.2,1.3,1.8c0,0.1-0.1,0.1-0.1,0.2c-0.3-0.1-0.6-0.2-1-0.4C173.7,71.2,173.3,71.7,173,72.2z"
	/>
<path class="st0" d="M52.3,269c2,0.8,2.4,1.8,1.4,3.7c-0.2-0.2-0.5-0.4-0.7-0.7c-0.3,0.2-0.5,0.5-0.8,0.7c-0.1-0.2-0.2-0.3-0.2-0.4
	c0-0.2,0-0.5,0.2-0.7c0.4-0.8,0.8-1.5,0.1-2.3C52.2,269.3,52.3,269.1,52.3,269z"/>
<path class="st0" d="M153.1,297.5c-0.7,0-1.2,0.1-1.6,0.1c-1.2,0-2.1-0.7-2.3-2c0-0.2,0.1-0.7,0.2-0.7c0.3-0.1,0.6-0.1,0.9,0.1
	c0.6,0.5,0.9,1.4,1,2.4c0.5-0.4,1-0.8,1.6-1.2C152.9,296.6,152.9,297,153.1,297.5z"/>
<path class="st0" d="M111.5,140.4c0.3-0.3,0.6-0.5,0.9-0.9c-0.2,1.1-0.4,1.9-0.6,2.9c-0.4-0.1-0.8-0.2-1.3-0.4
	c0.2-0.4,0.4-0.7,0.6-1.1c-0.1-0.1-0.2-0.2-0.3-0.2c-0.4-0.1-0.8,0-1.2-0.1c-0.2,0-0.5-0.2-0.5-0.4c0-0.2,0.1-0.6,0.3-0.7
	c0.5-0.4,1-0.4,1.5,0C111.1,139.7,111.2,140,111.5,140.4z"/>
<path class="st0" d="M264.7,166c0.3,0.2,0.5,0.3,0.5,0.5c0,1,0,2-0.1,3c0,0.3-0.5,0.6-0.7,0.6c-0.2,0-0.6-0.5-0.6-0.8
	C263.5,168.1,263.9,167,264.7,166z"/>
<path class="st0" d="M194.8,54.6c0.1,0.5,0.2,1.1,0.2,1.6c0,0.5-0.1,1-0.1,1.6c-0.4,0.2-0.9,0.1-1.1-0.7c-0.3-1-0.8-1.5-1.8-1.4
	c-0.1,0-0.3-0.1-0.5-0.2c0.2-0.7,0.7-0.5,1.1-0.6C193.4,54.8,194.1,54.7,194.8,54.6L194.8,54.6z"/>
<path class="st0" d="M68.7,124.3c-1,0.5-1.9,1-2.9,1.4c-0.7-1.3,1-1.6,0.7-2.6C68.2,122.8,68.5,123,68.7,124.3z"/>
<path class="st0" d="M189.2,17.5c-0.1,0.5-0.1,0.9-0.2,1.4c-0.6,0.1-1.2,0.1-1.6,0.4c-0.3,0.3-0.4,0.9-0.6,1.5
	c-0.7-0.6-0.3-1.6-0.7-2.3c0.4-0.1,0.8-0.2,1.2-0.3c0-0.4,0-0.8,0.1-1.2C188,17.5,188,17.5,189.2,17.5z"/>
<path class="st0" d="M67,109.7c-1.2-0.9-1-2.2-0.7-3.5c0.2-1.1,0.3-1.1,1.1-1.2c-0.7,0.8-0.7,0.8-0.1,2.1c0.5,0.9,0.5,1.7-0.2,2.5
	C67.2,109.7,67.1,109.7,67,109.7z"/>
<path class="st0" d="M249.6,90.7c0,0.7,0.2,1.4,0,1.4c-1,0.6-0.6,1.6-0.7,2.4c-0.2,1.1-0.3,1.2-1.6,1C248.1,94,248,92.1,249.6,90.7z
	"/>
<path class="st0" d="M157.5,61.3c-0.5,0.3-0.9,0.5-1.3,0.8c-0.3-0.2-0.6-0.5-1-0.8c1-1,0.3-2.3,0.4-3.5c0.9,0.5,0.4,2.1,1.8,1.9
	C157.4,60.2,157.4,60.7,157.5,61.3z"/>
<path class="st0" d="M222.9,79.5c0.2-0.6,0.4-1,0.3-1.6c-0.2-0.9-0.7-2.2,0.5-3c0.2-0.1,0.1-0.8,0.1-1.2c0-0.5-0.2-1-0.3-1.5
	c0.1,0,0.2,0,0.3-0.1c0.1,0.5,0.2,1,0.2,1.5c0,1.4,0,2.8,0,4.2C224.1,78.6,223.8,79.1,222.9,79.5z"/>
<path class="st0" d="M175.6,77.7c0-0.4-0.1-0.8-0.1-1c0.1-0.4,0.3-0.7,0.5-1c0.7-1.4,0.7-1.3,0.4-2.7c0.7,0.2,1,0.7,1.1,1.9
	C177.6,76.2,176.9,77,175.6,77.7z"/>
<path class="st0" d="M92.5,62.9c0.7-0.1,0.9,0.2,0.9,0.8c0,0.4-0.1,0.8-0.2,1.1c-0.2,1.1-0.1,1.2,1.1,1.7c-0.8,0.1-1,0.6-0.8,1.2
	c0.2,0.5,0.2,0.9-0.3,1.3c-0.5-0.6,0.2-2.1-1.3-2c0.3-0.6,1-1.5,0.8-2C92.4,64.4,93.2,63.6,92.5,62.9z"/>
<path class="st0" d="M194.8,54.6c-0.1-0.5-0.2-0.9-0.3-1.4c0.8-0.3,0.8-0.3,1.2-1.9c0.1,0.7,0.2,1.3,0.3,2c0.3-0.3,0.6-0.5,0.8-0.7
	c0.1,0.2,0.2,0.5,0.2,0.5c-0.9,0.7-0.5,1.8-0.7,2.7c0,0.1-0.1,0.2-0.2,0.4c-0.9-0.2-0.3-1-0.6-1.5C195.4,54.7,195.1,54.7,194.8,54.6
	L194.8,54.6z"/>
<path class="st0" d="M195,241.9c0.2-0.8,0.2-1.7,1-2.2c-0.4,0.8-0.4,1.6-0.2,2.5c0.1,0.5-0.2,1.2-0.4,1.8c-0.2,0.5-1,0.5-1.4,0
	c-0.5-0.8-0.2-1.5,0.7-1.8C194.8,242,194.9,241.9,195,241.9z"/>
<path class="st0" d="M62.5,189.5c-0.7,0-1.3,0-2,0c0-0.6-0.1-1.1,0-1.7c0.1-0.7,0.6-0.9,1.2-0.8c0.6,0,0.7,0.5,0.7,1
	C62.5,188.5,62.5,188.9,62.5,189.5z"/>
<path class="st0" d="M63.7,212.3c1.4,0.2,1.4,0.4,1.8-2.3c0.3,0.8,0.4,1.3,0.7,2c-0.2,0.1-0.5,0.3-0.7,0.4c0.4,1.2,0.1,2.1-0.1,3.1
	c-0.1,0-0.2,0-0.3,0C64.6,214.5,64.2,213.5,63.7,212.3z"/>
<path class="st0" d="M90.2,214.9c0.2-0.4,0.4-1.2,0.8-1.8c0.1-0.2,0.5-0.3,0.7-0.3c0.2,0.1,0.4,0.4,0.4,0.6c0.1,1-0.3,1.8-0.8,2.5
	c-0.1,0.2-0.5,0.4-0.7,0.3c-0.2-0.1-0.3-0.4-0.4-0.7C90.1,215.5,90.2,215.3,90.2,214.9z"/>
<path class="st0" d="M248.1,169.1c-0.4,0.5-0.7,0.9-1.1,1.3c-0.2-0.3-0.5-0.5-0.7-0.8c1.7-2,1.7-2,3.4-1.3c-0.3,0.3-0.6,0.6-0.7,0.9
	c-0.1,0.3,0,0.7-0.2,1.1C248.6,170,248.4,169.6,248.1,169.1z"/>
<path class="st0" d="M47.5,148.5c0.2,0.7,0.4,1.5,1.1,1.1c0.3,0.4,0.5,0.9,0.8,1.2c0.8,0.5,0.5,1,0.1,1.7c-0.2-0.3-0.3-0.6-0.5-0.8
	c-0.2,0.1-0.5,0.2-0.8,0.3C48.1,150.8,46.7,150.1,47.5,148.5z"/>
<path class="st0" d="M224.6,70.7c0.7-0.9,0.2-2.1,1.4-2.5c0.4,0.8,2.2,0.4,1.5,2.2C226.7,70.5,225.8,70.6,224.6,70.7z"/>
<path class="st0" d="M111.8,213.3c0.1-0.1,0.1-0.3,0.2-0.5c0.5-1,0.4-1.1-0.3-2c-0.3-0.4-1-0.8-0.6-1.6c1.8,0.8,2.6,2,2,4
	C112.9,213.3,112.4,213.3,111.8,213.3z"/>
<path class="st0" d="M204.6,29.2c-0.5,0-0.9,0-1.4,0c0-0.9-0.4-1.7,0-2.6c0.1-0.3-0.1-0.8-0.2-1.2c0.5-0.2,0.9-0.2,1,0.7
	C204.2,27,204.4,28,204.6,29.2z"/>
<path class="st0" d="M26.5,230.4c-0.1,0.5-0.2,0.8-0.2,1.2c-0.2-0.1-0.4-0.1-0.4-0.2c-0.4-1-0.3-1.2,0.6-1.8
	c0.3-0.2,0.5-0.4,0.8-0.6c0.1,0,0.2,0,0.3,0c0-0.7,0.1-1.4,0.2-2.2c0.6,0.6,0.8,1.4,0.5,2.1C27.9,229.7,27.7,230.7,26.5,230.4z"/>
<path class="st0" d="M187.2,74.3c0.4,0.4,0.7,0.6,1,0.8c0.7,0.5,1,1.1,0.9,2c-0.1,1.1-0.1,1.3,0.5,2.4c-0.7-0.1-0.7-0.1-1.3,0.4
	c-0.7-1.1,0.2-2.1,0.3-3.1C187.9,76.2,187.2,75.6,187.2,74.3z"/>
<path class="st0" d="M120.5,175.3c-0.1,0.7-0.1,1.3-0.2,2c-0.5-0.1-0.8,0.1-0.7,0.7c0.1,0.8-0.3,1.2-1.1,1.5c0-0.3,0-0.7,0.1-0.8
	c0.9-0.5,0.6-1.1,0.4-1.9c0-0.1-0.1-0.3-0.1-0.4c0.2-1,0.3-2,0.6-3c0.1,0.7,0.1,1.4,0.2,2.1C120,175.5,120.3,175.4,120.5,175.3z"/>
<path class="st0" d="M246.7,75.7c-0.2-0.7-0.3-1-0.5-1.5c-0.4,0.2-0.8,0.2-0.9,0.5c-0.5,1.1-1.6,1.4-2.7,2.2
	c0.2-0.6,0.3-1.1,0.4-1.1c1.3-0.1,1.5-1.3,2.1-2.1c0.4-0.5,0.7-1.2,1.3-1.6c-0.2,0.5-0.5,1-0.7,1.5C247,74.2,247,74.2,246.7,75.7z"
	/>
<path class="st0" d="M213.8,294.2c-0.5-0.6-1.1-1.2-1.6-1.9c-0.3-0.4-0.5-1,0-1.3c0.3-0.2,0.9-0.3,1.2-0.2c0.5,0.1,0.6,0.7,0.5,1.2
	C213.9,292.7,213.8,293.4,213.8,294.2z"/>
<path class="st0" d="M93.1,91.1c0.9,1.3,0.4,2.6-1,3.1C91.3,92.7,91.4,92.3,93.1,91.1z"/>
<path class="st0" d="M19.7,236c-0.6,0.1-1.2-0.2-1.4-0.9c-0.2-0.9-0.5-1.7-1.1-2.4c0,0,0.1-0.2,0.1-0.2
	C19.6,233.6,20,234.3,19.7,236z"/>
<path class="st0" d="M27.5,134.3c0.9,0.2,1.9,0.2,2.6,1.2c-0.2,0.2-0.5,0.3-0.7,0.5c-0.4,0.4-0.9,0.8-1.5,0.5
	C27.4,136.3,27.2,135.4,27.5,134.3z"/>
<path class="st0" d="M235.7,77.4c0.3-0.6,0.5-1.2,0.8-1.7c0.1-0.3,0.4-0.5,0.7-0.6c0.4-0.1,0.8,0.1,0.8,0.7c-0.4,0-0.8-0.1-1.4-0.2
	c0.4,1.3,0.8,2.3,1.1,3.4C236.4,79,236.1,78.8,235.7,77.4z"/>
<path class="st0" d="M13.2,12.5c0.8,0.5,0.9,1.7,2.3,1.1c-0.7,1.1-1.4,1.6-2.4,1.5c-0.4,0-0.6-0.6-1.1-1.1
	C12.8,13.7,13.4,13.5,13.2,12.5z"/>
<path class="st0" d="M158.5,297.4c-0.4,0.2-0.7,0.2-0.9,0.3c-0.2,0.1-0.3,0.2-0.6,0.4c-0.3-0.9-2-0.3-1.8-1.9c0.8,0,1.5-0.1,2.4-0.1
	C157.8,296.3,158.1,296.8,158.5,297.4z"/>
<path class="st0" d="M44.2,135.8c0.4,0.6,0.4,1.4,0.5,2.2c-0.8,0.2-1.5,0.4-1.9,1.2c-0.3,0.5-0.8,0.7-1.4,0.2
	c0.1-0.1,0.1-0.3,0.2-0.3c1.3-0.5,1.9-1.7,2.1-3.1c0-0.1,0.1-0.1,0.2-0.2C44,135.8,44.1,135.8,44.2,135.8z"/>
<path class="st0" d="M117.4,174.3c-1.3,0.1-1.3,0.1-1.7,0.8c-0.7-1.1-0.7-1.2,0.2-2c0.3-0.3,0.5-0.9,0.7-1.4
	C117.3,172.5,117.6,173.2,117.4,174.3z"/>
<path class="st0" d="M207.7,27c0.2,0.3,0.4,0.6,0.6,0.9c-0.2,0.4-0.4,0.8-0.5,1.2c0,0.4,0.2,0.8,0.4,1.2c-0.6-0.2-0.6-0.2-1.3-2
	c-0.5-0.1-0.6,1.2-1.2,0.6c-0.2-0.2-0.2-0.7-0.4-1.2c0.6,0.1,1.1,0.3,1.4,0.2C207.1,27.7,207.4,27.3,207.7,27z"/>
<path class="st0" d="M240.8,140.6c-0.3,0.8-0.5,1.5-0.9,2.6c0-1.5-0.8-2.2-1.8-3c0.8-0.5,0.5-1.6,1.3-2.1c0,0.7-0.3,1.4-0.1,1.8
	C239.6,140.3,240.3,140.4,240.8,140.6z"/>
<path class="st0" d="M111.1,200.2c-0.4,1.5-0.1,2,1.2,2.2c0,0.2,0.1,0.4,0,0.5c-0.1,0.2-0.3,0.5-0.4,0.7c-0.2-0.2-0.5-0.3-0.6-0.5
	c-0.4-0.5-0.7-1.1-1.1-1.9c0-0.4,0.8-1.2-0.4-1.8c1.6-0.2,1.9,0,2.2,1.4c-0.2-0.2-0.3-0.3-0.5-0.4
	C111.4,200.5,111.3,200.4,111.1,200.2z"/>
<path class="st0" d="M80.4,48.3c-0.4,0-1,0.1-1.2-0.1c-0.6-0.9-1.2-1.8-0.6-3.1c1.2,0.5,1.3,1.9,2,2.8
	C80.5,48.1,80.5,48.2,80.4,48.3z"/>
<path class="st0" d="M18,182.7c0.1-0.6,0.3-1,0.4-1.4c1,0.6,0.6-0.9,1.2-1c0,0.5-0.1,1-0.1,1.5c0,0.2-0.2,0.5-0.1,0.7
	c0.5,1.2-0.3,1.9-0.9,2.8c-0.4-0.7,0.1-1.2,0.2-1.7C18.8,183,18.5,182.8,18,182.7z"/>
<path class="st0" d="M213.9,44.5c-0.8,0-1-0.3-1-0.7c0-0.5,0-1.1,0.1-1.6c0.1-0.6,0.1-1.1-0.4-1.6c-0.4-0.3-0.4-0.7,0-1
	c0.5-0.4,0.7-0.1,0.9,0.4c0.3,0.6,0.7,1.1,0.1,1.8c-0.2,0.2-0.1,0.7,0,1.1C213.6,43.5,213.8,43.9,213.9,44.5z"/>
<path class="st0" d="M14.1,134.5c-1.2,0-0.4-1.1-1.1-1.5c-0.8,0.1-1.7,0.2-2.8,0.4c0.1-0.6,0.2-0.9,0.3-1.4c0.4,0.4,0.7,0.6,1,0.9
	c0.5-0.6,1-1.2,1.7-0.6C13.9,132.7,14.3,133.5,14.1,134.5z"/>
<path class="st0" d="M217.1,281.7c2.4-0.2,2.9,0.2,2.4,2.2C218.7,283.7,217.8,282.9,217.1,281.7z"/>
<path class="st0" d="M212.7,242.1c-1.7-0.6-2.3-2.3-1.5-4.1c0,0.4,0.1,0.6,0,0.8c0,0.6,0.2,0.9,0.7,1.2
	C212.9,240.4,212.9,240.7,212.7,242.1z"/>
<path class="st0" d="M77.3,55.2c0,0.7,0,1.6,0,2.5c-0.2,0-0.5-0.2-0.7-0.1c-0.2,0.1-0.3,0.4-0.6,0.6c0.5-1.2-0.4-1.9-0.9-2.9
	c0.6,0.3,0.9,0.5,1.5,0.8c-0.1-0.8-0.1-1.3-0.2-1.8C76.6,54.7,76.9,55,77.3,55.2z"/>
<path class="st0" d="M14.4,124.6c0.6,1.4,1.3,2.9,1.9,4.3c0,0.1-0.1,0.3-0.2,0.6C14.7,128.1,14,126.6,14.4,124.6L14.4,124.6z"/>
<path class="st0" d="M89.4,230.8c-1,0.9-2,1.8-3.4,1.3c-0.1-1.1,0-1.2,0.7-1.3C87.6,230.8,88.5,230.8,89.4,230.8z"/>
<path class="st0" d="M48.4,217.5c0,1,0,1,0.6,1.7c0.3,0.3,0.5,0.7,0.7,1.1c0.2,0.3,0.4,0.8-0.1,1c-0.3,0.1-0.9,0.1-1-0.1
	c-0.3-0.7-0.6-1.5-0.7-2.3C47.9,218.4,48.2,217.9,48.4,217.5z"/>
<path class="st0" d="M31.6,206.5c-0.3-0.1-0.6-0.1-0.8-0.3c-0.3-0.2-0.7-0.6-0.6-0.8c0.1-0.5,0.3-1.1,0.6-1.5
	c0.2-0.3,0.7-0.1,0.9,0.3C31.8,204.9,32.1,205.6,31.6,206.5z"/>
<path class="st0" d="M242.6,239.5c0.7-0.2,1.3-0.3,1.9-0.4c0,0.1,0.1,0.3,0.3,0.6c-1.2-0.2-1.1,1.1-1.7,1.6
	c-0.3,0.2-0.4,0.6-0.8,0.5c-0.2,0-0.5-0.2-0.6-0.5c-0.1-0.1,0.1-0.5,0.3-0.6C242.7,240.7,242.7,240.1,242.6,239.5z"/>
<path class="st0" d="M53.8,117.8c-0.4-1.6,0.1-2.7,1.8-3.9c-0.3,1-0.5,2-0.8,3C54.7,117.5,54.3,117.7,53.8,117.8z"/>
<path class="st0" d="M54.6,149.7c0,0.5-0.1,0.9-0.1,1.4c-0.1,0.9-0.2,1.7-0.4,2.5c0,0.1-0.2,0.1-0.4,0.3c-0.5-0.9,0-1.8,0-2.7
	c-0.4-0.1-0.7-0.1-1-0.2c0.3-0.5,0.7-0.9,1-1.3C54,149.7,54.3,149.7,54.6,149.7L54.6,149.7z"/>
<path class="st0" d="M41.7,135.6c0,1.1,0,1.8,0,2.7c-0.3-0.1-0.6-0.2-1-0.3c-0.2,0.3-0.5,0.6-0.7,1c-0.2-0.3-0.4-0.6-0.6-0.8
	C39.8,137,40.9,136.6,41.7,135.6z"/>
<path class="st0" d="M231.2,81.6c-0.1-1,0.5-1.5,1-1.7c0.5-0.3,1.2-0.3,1.5,0.5C233.2,81.6,233.2,81.6,231.2,81.6z"/>
<path class="st0" d="M63.5,129.2c0.3,0.4,0.6,0.8,0.6,1.2c0,0.8-0.2,1.6-0.4,2.7C63.2,131.7,61.7,130.8,63.5,129.2z"/>
<path class="st0" d="M39.8,122.5c-0.7,0.4-1.2,0.8-1.8,1.1c-0.4,0.2-0.9,0.3-1.2-0.4c1.6-0.4,2.4-1.8,3.2-3.1
	C39.9,120.9,39.9,121.8,39.8,122.5z"/>
<path class="st0" d="M207.9,238.4c0.3,0.1,0.8,0,1,0.2c0.4,0.4,0.7,0.9,0.8,1.4c0.1,0.2-0.3,0.7-0.6,0.8c-0.2,0.1-0.8-0.1-0.9-0.3
	c-0.3-0.5-0.4-1.2-0.6-1.8C207.7,238.6,207.8,238.5,207.9,238.4z"/>
<path class="st0" d="M24.7,22.3c-1-1.3-1.1-1.6-0.2-2.3c0.2,0.3,0.4,0.5,0.6,0.8c0.8-0.7-0.2-2,1-2.3C26.4,20,25.7,21.2,24.7,22.3z"
	/>
<path class="st0" d="M60.5,280.1c-0.1-0.2-0.5-0.6-0.6-0.9c-0.1-0.8,0.6-1.3,1.3-1.3c0.5,0,0.8,0.3,0.8,0.8
	C62,279.3,61.3,280.1,60.5,280.1z"/>
<path class="st0" d="M44.9,218.7c1.3,0.9,1,2.7,2.5,3.1c-0.3,0.1-0.6,0.2-0.8,0.2c-1.1-0.2-1.6-1-1.9-2
	C44.5,219.7,44.7,219.2,44.9,218.7z"/>
<path class="st0" d="M133.8,148.8c0.5-0.1,1-0.2,1.4-0.3c0.3,1,0.2,1.5-0.4,2.6C133.9,150.6,133.6,150.2,133.8,148.8z"/>
<path class="st0" d="M25.8,186.9c0.6-0.2,0.9-0.4,1.3-0.5c0.2,0,0.6,0,0.6,0.1c0.3,0.5,0.5,1.1,0.6,1.7c0.1,0.5,0.2,1.2-0.4,1.5
	c-0.5-0.6-0.5-0.6-0.7-2.5C26.9,187.2,26.5,187.1,25.8,186.9z"/>
<path class="st0" d="M238.7,175.5c0.3-0.4,0.5-0.8,0.8-1.2c0.1-0.1,0.3,0,0.5,0c0.1,0,0.1,0.3,0.1,0.4c-0.2,1.2-1.2,2-2.2,2
	c-0.1,0-0.2-0.1-0.3-0.1c0.1-0.7,0.3-1.3,0.4-2.2C238.3,174.9,238.5,175.2,238.7,175.5z"/>
<path class="st0" d="M189.2,195.7c0.2-0.2,0.4-0.4,0.6-0.6c0.8,0.2,1,1.7,0.4,3.2C189.7,198.1,189.7,198.1,189.2,195.7z"/>
<path class="st0" d="M172.4,283.1c0.1,0.4,0.2,0.7,0.3,1.1c-0.4,0.1-0.6,0.2-1,0.2c0.4,0.7,0.3,1.4-0.3,1.9
	c-0.2,0.1-0.5,0.2-0.6,0.2c-0.2-0.2-0.3-0.5-0.3-0.7c0.4-0.9,0.9-1.9,1.3-2.8C172.1,283.1,172.2,283.1,172.4,283.1z"/>
<path class="st0" d="M149.7,130.2c0.1,0.1,0.3,0.3,0.3,0.3c-0.2,0.4-0.4,0.9-0.8,1.1c-0.5,0.4-1.1,0.6-1.6,0.8
	c-0.2-0.3-0.3-1.3-0.6-2.3l0,0c0.4,0.2,0.8,0.5,1.3,0.7c0.4,0.3,0.8,0.3,1.1-0.2C149.5,130.5,149.6,130.3,149.7,130.2L149.7,130.2z"
	/>
<path class="st0" d="M57.8,272.5c-1.3-1-1.5-2.1-1-3.1c0.1-0.1,0.3-0.3,0.4-0.3c0.2,0,0.5,0.2,0.5,0.3
	C57.8,270.4,57.8,271.4,57.8,272.5z"/>
<path class="st0" d="M259.4,263.3c-0.6,0.3-1,0-1.3-0.6c0.2-0.3,0.4-0.6,0.4-0.9c0-0.3-0.3-0.5-0.6-0.9c0.6,0.1,1,0.2,1.4,0.1
	c0.3-0.1,0.6-0.5,0.9-0.8c0,0.6,0.2,1.1-0.5,1.5C259.4,262,259.5,262.7,259.4,263.3z"/>
<path class="st0" d="M47.4,158.4c-0.2,0-0.5,0.2-0.6,0.1c-0.7-0.9-1.3-1.8-1.9-2.7c-0.1-0.1,0-0.3,0-0.4c0.9-0.1,1.4,0.3,1.7,1.1
	C46.8,157.2,47.1,157.7,47.4,158.4z"/>
<path class="st0" d="M194.6,289.2c0.1,0.7,0.1,1.3,0.2,1.9c0,0.4,0.1,0.9-0.4,1.1c-0.4,0.1-1-0.4-1.1-0.9
	C193.1,290.5,193.7,289.6,194.6,289.2z"/>
</svg>
